<svg viewBox="0 0 46.28 47.44" xmlns="http://www.w3.org/2000/svg"><path d="m12.18 15.65h4.55v6.75h-4.55z" fill="#fbcc9a"/><rect fill="#f9c645" height="9.63" rx=".42" width=".85" x="22.94" y=".62"/><path d="m20.85 7.8v2.94a6.46 6.46 0 0 1 -6.46 6.47 6 6 0 0 1 -1.6-.21 6.45 6.45 0 0 1 -4.85-6.26v-2.94a6.47 6.47 0 0 1 6.47-6.46 4.22 4.22 0 0 1 .61 0 6.35 6.35 0 0 1 4 1.86 6.47 6.47 0 0 1 1.83 4.6z" fill="#e4b488"/><path d="m19.87 7.63v2.94a6.47 6.47 0 0 1 -6.47 6.43c-.2 0-.41 0-.61 0a6.45 6.45 0 0 1 -4.85-6.26v-2.94a6.47 6.47 0 0 1 6.47-6.46 4.22 4.22 0 0 1 .61 0 6.36 6.36 0 0 1 3 1.69 6.44 6.44 0 0 1 1.85 4.6z" fill="#fbcc9a"/><path d="m7.74.98h13.38v5.8h-13.38z" fill="#112138"/><path d="m7.74.98h12.73v5.1h-12.73z" fill="#153c54"/><rect fill="#153c54" height=".98" rx=".49" width="19.84" x="4.51"/><path d="m20.85 8.37h.09a1.56 1.56 0 0 1 1.34 1.71 1.55 1.55 0 0 1 -1.34 1.7h-.17z" fill="#e4b488"/><path d="m8 8.37h-.14a1.56 1.56 0 0 0 -1.34 1.71 1.55 1.55 0 0 0 1.34 1.7h.14z" fill="#fbcc9a"/><path d="m7.5 25.05.66-.84 2.08-1.27.87-.2h3.44l4.31-.27 1.47 1.74 1.31 2.74.47 3.81-3.45 3.01-4.18 1.78-.16.1-2.71-.37-6.09-7.59 1.84-2.61z" fill="#edf4f7"/><path d="m18.3 33.54-3.98 2.11-3.04-1.91 1.13-5.92-.98-1.81-.22-.4.07-.4 2.22-2.03.49-.46.09-.08.32.04 1.72.19.64 1.44-.31 1.32-.49 2.16 2.12 5.2z" fill="#f9c645"/><path d="m18.08 32.99-1.38.98-1.82-5.7.35-2.45-1.44-2.2-.29-.44-.23-.35h-.18l.9-.11.41-.04 1.72-.21 1.21 1.48.15.93-.69 1.2-.34-.45-.49 2.16z" fill="#da3"/><path d="m18.86 22.47-1.38 2.41-.69 1.2-.34-.45-2-2.69-.66.68-2.36 2.39-.26.27-.93-3.34 1.94-2.54 2.33 2.07 2.15-2.34z" fill="#3cb982"/><g fill="#153c54"><path d="m14.32 35.65h-.15-9.64-4.45a40.37 40.37 0 0 0 -.08-5.29 4.88 4.88 0 0 1 3.81-5.28l4.34-.87 1.69 6.79 1.64 1.72 2.77 2.89z"/><path d="m25.92 25.54a7.06 7.06 0 0 0 -1.07.88 8.05 8.05 0 0 0 -1.63 2.25 1.92 1.92 0 0 0 -.12.25 8.06 8.06 0 0 0 -.7 3.3 7.77 7.77 0 0 0 .6 2.94.29.29 0 0 0 0 .1c.05.11.1.23.16.34h-5.58-3.26-.14l1.09-1.14 1.13-1.19 1.26-1.27 1-1 1.66-6.75 2.69.54 1.66.33a4.86 4.86 0 0 1 1.25.42z"/><path d="m9.84 30.96-1.68-6.75-4.34.87z"/></g><path d="m25.92 25.54a7.06 7.06 0 0 0 -1.07.88 7.92 7.92 0 0 0 -1.85-1.67l1.66.33a4.86 4.86 0 0 1 1.26.46z" fill="#112138"/><path d="m3.77 33.37h.76v2.16h-.76z" fill="#112138"/><rect fill="#f9c645" height="2.57" rx=".9" width="1.81" x="22.44" y="5.62"/><path d="m46.28 35.26v-6.59h-2.88a13.26 13.26 0 0 0 -1.4-3.26l2-2.06-4.58-4.65-2 2a13.11 13.11 0 0 0 -3.28-1.41v-2.79h-6.62v2.67a13.28 13.28 0 0 0 -3.52 1.34l-1.8-1.81-3.56 3.55-.25.25-.85.85.52.52 1.15 1.13a13.38 13.38 0 0 0 -1.61 3.64h-2.26v6.59h2.13c0 .13.06.25.1.37a12.93 12.93 0 0 0 1.43 3.49l-1.48 1.49 4.66 4.65 1.5-1.49a13 13 0 0 0 3.82 1.51v2.19h6.6v-2.34a13 13 0 0 0 3.59-1.6l1.73 1.73 4.65-4.65-1.87-1.88a13.14 13.14 0 0 0 1.33-3.44zm-8.07-.55a5.2 5.2 0 0 1 -.21.55 8.14 8.14 0 0 1 -3.9 4.21l-.3.14a8.11 8.11 0 0 1 -3.3.71 8.2 8.2 0 0 1 -2.86-.52h-.12a8.11 8.11 0 0 1 -4.37-4.15c-.06-.11-.11-.23-.16-.34a.29.29 0 0 1 0-.1 7.77 7.77 0 0 1 -.56-2.94 8.06 8.06 0 0 1 .7-3.3 1.92 1.92 0 0 1 .12-.25 8.05 8.05 0 0 1 1.63-2.25 7.06 7.06 0 0 1 1.07-.88 7.69 7.69 0 0 1 1.6-.86l.45-.23a8.28 8.28 0 0 1 2.5-.39 7.82 7.82 0 0 1 3 .56 5.37 5.37 0 0 1 .65.29 8.11 8.11 0 0 1 3.68 3.71c.11.22.21.45.3.68a8 8 0 0 1 .52 2.87 8.21 8.21 0 0 1 -.44 2.49z" fill="#112138"/></svg>