<svg viewBox="0 0 31.53 48" xmlns="http://www.w3.org/2000/svg"><rect fill="#edf4f7" height="48" rx="1.06" width="31.53"/><path d="m15.65 24.41h11.32" fill="#edf4f7"/><path d="m27 25.41h-11.35a1 1 0 0 1 0-2h11.35a1 1 0 0 1 0 2z" fill="#112138"/><path d="m15.65 29.82h11.32" fill="#edf4f7"/><path d="m27 30.82h-11.35a1 1 0 1 1 0-2h11.35a1 1 0 0 1 0 2z" fill="#112138"/><path d="m15.65 35.24h11.32" fill="#edf4f7"/><path d="m27 36.23h-11.35a1 1 0 1 1 0-2h11.35a1 1 0 0 1 0 2z" fill="#112138"/><path d="m19.07 40.65h8.18" fill="#edf4f7"/><path d="m27.25 41.65h-8.18a1 1 0 0 1 0-2h8.18a1 1 0 1 1 0 2z" fill="#112138"/><path d="m5.41 25.25 1.81 1.81 3.53-3.53" fill="#fff"/><path d="m7.22 28.48-2.52-2.48a1 1 0 0 1 0-1.42 1 1 0 0 1 1.41 0l1.11 1.11 2.78-2.86a1 1 0 1 1 1.42 1.41z" fill="#112138"/><path d="m7.22 37.44-2.52-2.52a1 1 0 0 1 0-1.42 1 1 0 0 1 1.41 0l1.11 1.11 2.78-2.82a1 1 0 0 1 1.42 0 1 1 0 0 1 0 1.41z" fill="#f9c645"/><circle cx="15.41" cy="10.65" fill="#3cb982" r="7.41"/><g fill="#102037"><path d="m15.41 19.06a8.41 8.41 0 1 1 8.41-8.41 8.42 8.42 0 0 1 -8.41 8.41zm0-14.82a6.41 6.41 0 1 0 6.41 6.41 6.42 6.42 0 0 0 -6.41-6.41z"/><circle cx="15.68" cy="8.18" r="3"/><path d="m21.94 14.17a6.83 6.83 0 0 0 -5.37-4 5.82 5.82 0 0 0 -1.8 0 6.83 6.83 0 0 0 -5.57 4.51l4.45 3 4.94.08z"/></g></svg>