<svg viewBox="0 0 44.47 45.27" xmlns="http://www.w3.org/2000/svg"><g fill="#231f20"><path d="m44.47 25.35a16.34 16.34 0 0 0 -13.47-16.08 16.07 16.07 0 0 0 -3.54-.27 13.2 13.2 0 0 1 1.47 3 12.57 12.57 0 0 1 3.12.56l.17.06a13.33 13.33 0 0 1 8.66 16.59 24.87 24.87 0 0 1 -3.1 5.31l-.35.47.57 5.1-4.75-2.36-.49.09c-1.6.3-6.24.92-8.53.22a13.24 13.24 0 0 1 -7.23-5.41 13.06 13.06 0 0 1 -1.47-3 23.68 23.68 0 0 1 -3.33-.76 15.57 15.57 0 0 0 1.15 3.41c.12.25.24.5.37.74a16.2 16.2 0 0 0 9.63 7.95c3 .91 7.81.23 9.46 0l8.78 4.37-1.05-9.4a25 25 0 0 0 3.21-5.74 16.21 16.21 0 0 0 .72-4.85z"/><path d="m32.22 12.66a16.32 16.32 0 0 0 -32.22 3.66c0 3.1 2.07 7.54 2.82 9l-1.61 9.68 8.68-3.77c.75.25 2.07.67 3.46 1a14.41 14.41 0 0 0 3 .4h.68a16.34 16.34 0 0 0 15.61-16.31 15.8 15.8 0 0 0 -.42-3.66zm-15.9 17a7.79 7.79 0 0 1 -.79 0 23.68 23.68 0 0 1 -3.33-.76c-.78-.23-1.46-.45-1.86-.6l-.56-.3-4.71 2 .87-5.23-.24-.44c-.7-1.33-2.7-5.62-2.7-8.01a13.32 13.32 0 0 1 24.46-7.32 13.38 13.38 0 0 1 2.18 7.3 13.34 13.34 0 0 1 -13.32 13.35z"/><path d="m14 20.93v-.81a7.1 7.1 0 0 1 2.08-5.3c1.45-1.6 2.26-2.79 2.3-4.18 0-1.58-.91-2.67-2.86-2.76a5.52 5.52 0 0 0 -3.16.87l-.68-2a8.12 8.12 0 0 1 4.47-1.1c3.56.11 5.11 2.36 5 4.71-.06 2.11-1.29 3.59-2.83 5.31a6.11 6.11 0 0 0 -1.9 4.51v.82zm-.82 4.32a1.84 1.84 0 0 1 1.92-1.9 1.81 1.81 0 0 1 1.77 2 1.85 1.85 0 1 1 -3.69-.11z"/></g></svg>