<svg viewBox="0 0 30.3 43" xmlns="http://www.w3.org/2000/svg"><path d="m19.87 31.69-7 .31-2.14.1a.38.38 0 0 1 -.26-.05c-.13-.08-.12-.28-.09-.44s.1-.53.16-.79.11-.52.18-.78.12-.45.19-.68l.21-.69c.15-.45.31-.89.49-1.33.26-.65.56-1.29.88-1.91a3.11 3.11 0 0 1 .43-.79.77.77 0 0 1 .37-.2 8 8 0 0 1 2.19-.06l2.61.11a.88.88 0 0 1 .32.07c.24.14.22.49.19.76a8.81 8.81 0 0 0 -.05 1.85 9.4 9.4 0 0 0 .31 1.76 7.6 7.6 0 0 0 .3.92c0 .07 0 .13.07.19s.14.32.2.48a6 6 0 0 1 .44 1.17z" fill="#fbcc9a"/><path d="m25.57 18.12c0 .17-.06.35-.1.52a12.26 12.26 0 0 1 -6.89 8.53c-.27.12-.56.22-.84.32a9.74 9.74 0 0 1 -5.22.11 8.89 8.89 0 0 1 -.88-.26 8.57 8.57 0 0 1 -4.9-4.13 17.23 17.23 0 0 1 -.74-1.79c-.35-1-.7-1.93-1-2.9-.22-.59-.43-1.18-.6-1.78a9.78 9.78 0 0 1 -.28-1.19 8.66 8.66 0 0 1 .66-4.87 3.58 3.58 0 0 1 1.45-1.81 20.86 20.86 0 0 1 3.08-1.5c.42-.16.84-.29 1.27-.41a17.61 17.61 0 0 1 7.08-.32 11 11 0 0 1 4.12 1.36c3.3 1.94 4.49 6.34 3.79 10.12z" fill="#fbcc9a"/><path d="m30.11 40.65a2.76 2.76 0 0 1 -.89 2.07 2.83 2.83 0 0 1 -1.78.25q-1-.09-2-.15a168.86 168.86 0 0 0 -21.44-.17c-1.18.06-2.35.14-3.53.23a13.34 13.34 0 0 1 -.17-6.12 6.33 6.33 0 0 1 3.85-4.51 16.72 16.72 0 0 1 3.6-.44 6.09 6.09 0 0 0 2.82-1 1.28 1.28 0 0 1 .95-.3 8.5 8.5 0 0 1 1.28.57 6 6 0 0 0 1.26.34 5.79 5.79 0 0 0 1.5.05 6.59 6.59 0 0 0 .76-.1 5.72 5.72 0 0 0 1.77-.69 7.08 7.08 0 0 1 1.17-.68 1.63 1.63 0 0 1 .49-.09c0 .09.07.18.11.27.71 1.49 2.58 2.15 4.25 2.45s3.73.53 5 1.84c1.45 1.6 1.28 4.05 1 6.18z" fill="#153c54"/><path d="m27.62 13.83a3.84 3.84 0 0 1 -2 4.73l-.19.08a1 1 0 0 1 -.3 0c-.54-.05-.73-.72-.78-1.25-.19-1.74-.37-3.48-.56-5.22a8.31 8.31 0 0 1 -7 .67c-1.79-.62-3.29-1.84-5.08-2.52a5.41 5.41 0 0 0 -3.37-.15 3 3 0 0 0 -1.74 1.33 4.45 4.45 0 0 0 -.43 2.5c0 .71.27 1.57-.16 2.2a1.42 1.42 0 0 1 -1.43.58l-.21-.08a2.35 2.35 0 0 1 -1.07-1.58 7.47 7.47 0 0 1 .06-3 21.35 21.35 0 0 1 2.09-6.78 10.12 10.12 0 0 1 5.06-4.73 13.1 13.1 0 0 1 6.29-.43 35.64 35.64 0 0 1 5.41 1.14l-2 1.17a10.84 10.84 0 0 1 3.1.43 11.67 11.67 0 0 1 5.69 3.59c-1.54 1-3.13 2.53-2.82 4.33.16 1.1 1.03 1.95 1.44 2.99z" fill="#112138"/><path d="m19.86 30.22-.4.3a4.86 4.86 0 0 1 -3.09 1.07 7.5 7.5 0 0 1 -.81-.11 4.68 4.68 0 0 0 -1.29-.09h-.21a2.53 2.53 0 0 0 -1.16.61c-1.18 1-1.93 2.75-3.34 3.51a16.45 16.45 0 0 1 -2.56.78 5 5 0 0 0 -3.25 4.32 6.42 6.42 0 0 0 .25 2c-1.18.06-2.35.14-3.53.23a13.34 13.34 0 0 1 -.17-6.08 6.33 6.33 0 0 1 3.85-4.51 16.72 16.72 0 0 1 3.6-.44 6.09 6.09 0 0 0 2.82-1q.07-.39.18-.78a11.86 11.86 0 0 0 8.14-1.11 7.6 7.6 0 0 0 .3.92c0 .07 0 .13.07.19a1.63 1.63 0 0 1 .49-.09c.03.06.07.19.11.28z" fill="#fff" opacity=".15"/><path d="m3.3 15.12a7.47 7.47 0 0 1 .06-3 21.35 21.35 0 0 1 2.09-6.78 10.12 10.12 0 0 1 5.06-4.73 13.1 13.1 0 0 1 6.29-.43 35.64 35.64 0 0 1 5.41 1.14l-2 1.17a10.84 10.84 0 0 1 3.1.43h-3.53a13.42 13.42 0 0 0 -4.38.45 11.68 11.68 0 0 0 -4.74 3.57 12.87 12.87 0 0 0 -2.24 3.21 4.47 4.47 0 0 0 -.19.46c-1.05 2.84-.15 6 1 8.78a11.59 11.59 0 0 0 1.86 3.17c.55.61 1.21 1.12 1.7 1.78.07.09.13.19.19.28a2.33 2.33 0 0 1 .29 2 2.44 2.44 0 0 1 -.72.92c-.43.38-.95.7-1.37 1.07.15-.45.31-.89.49-1.33a8.57 8.57 0 0 1 -4.9-4.13 17.23 17.23 0 0 1 -.77-1.73c-.35-1-.7-1.93-1-2.9-.22-.59-.43-1.18-.6-1.78a2.35 2.35 0 0 1 -1.1-1.62z" fill="#fff" opacity=".15"/><path d="m30.11 40.65a2.76 2.76 0 0 1 -.89 2.07 2.83 2.83 0 0 1 -1.78.25q-1-.09-2-.15l-.12-.14a3 3 0 0 1 -.44-3.2c.36-.67 1-1.22 1.08-2a1.83 1.83 0 0 0 -1.15-1.65 7.79 7.79 0 0 0 -2.08-.49 11 11 0 0 1 -5.8-3 1.89 1.89 0 0 1 -.6-1 5.72 5.72 0 0 0 1.77-.69 7.08 7.08 0 0 1 1.16-.65 1.63 1.63 0 0 1 .49-.09c0 .09.07.18.11.27.71 1.49 2.58 2.15 4.25 2.45s3.73.53 5 1.84c1.45 1.6 1.28 4.05 1 6.18z" fill="#112138"/></svg>