<svg viewBox="0 0 49.82 28" xmlns="http://www.w3.org/2000/svg"><rect fill="none" height="15.71" rx="2.65" width="47.82" x="1" y="1"/><path d="m46.18 17.71h-42.53a3.66 3.66 0 0 1 -3.65-3.65v-10.41a3.66 3.66 0 0 1 3.65-3.65h42.53a3.65 3.65 0 0 1 3.64 3.65v10.41a3.65 3.65 0 0 1 -3.64 3.65zm-42.53-15.71a1.65 1.65 0 0 0 -1.65 1.65v10.41a1.65 1.65 0 0 0 1.65 1.65h42.53a1.65 1.65 0 0 0 1.64-1.65v-10.41a1.65 1.65 0 0 0 -1.64-1.65z" fill="#231f20"/><g fill="#f9c645"><path d="m9.86 4.46.72 1.43a.73.73 0 0 0 .66.38l1.6-.09a.7.7 0 0 1 .62 1.08l-.87 1.34a.7.7 0 0 0 0 .76l.87 1.34a.7.7 0 0 1 -.62 1.08l-1.6-.09a.73.73 0 0 0 -.66.38l-.72 1.43a.7.7 0 0 1 -1.25 0l-.72-1.43a.72.72 0 0 0 -.66-.38l-1.6.09a.7.7 0 0 1 -.63-1.08l.87-1.34a.7.7 0 0 0 0-.76l-.87-1.34a.7.7 0 0 1 .62-1.08l1.6.09a.72.72 0 0 0 .66-.38l.72-1.43a.7.7 0 0 1 1.26 0z"/><path d="m20.59 4.46.73 1.43a.71.71 0 0 0 .66.38l1.6-.09a.7.7 0 0 1 .62 1.08l-.88 1.34a.7.7 0 0 0 0 .76l.88 1.34a.7.7 0 0 1 -.62 1.08l-1.58-.09a.71.71 0 0 0 -.66.38l-.73 1.43a.69.69 0 0 1 -1.24 0l-.73-1.43a.7.7 0 0 0 -.65-.38l-1.61.09a.7.7 0 0 1 -.62-1.08l.88-1.34a.7.7 0 0 0 0-.76l-.88-1.34a.7.7 0 0 1 .62-1.08l1.62.09a.7.7 0 0 0 .65-.38l.73-1.43a.69.69 0 0 1 1.21 0z"/><path d="m31.33 4.46.72 1.43a.73.73 0 0 0 .66.38l1.6-.09a.7.7 0 0 1 .62 1.08l-.87 1.34a.7.7 0 0 0 0 .76l.87 1.34a.7.7 0 0 1 -.62 1.08l-1.6-.09a.73.73 0 0 0 -.66.38l-.72 1.43a.7.7 0 0 1 -1.25 0l-.72-1.43a.72.72 0 0 0 -.66-.38l-1.6.09a.7.7 0 0 1 -.62-1.08l.87-1.34a.66.66 0 0 0 0-.76l-.87-1.34a.7.7 0 0 1 .62-1.08l1.6.09a.72.72 0 0 0 .66-.38l.72-1.43a.7.7 0 0 1 1.25 0z"/><path d="m42.06 4.46.73 1.43a.71.71 0 0 0 .66.38l1.6-.09a.7.7 0 0 1 .62 1.08l-.88 1.34a.7.7 0 0 0 0 .76l.88 1.34a.7.7 0 0 1 -.62 1.08l-1.6-.09a.71.71 0 0 0 -.66.38l-.73 1.43a.69.69 0 0 1 -1.24 0l-.72-1.43a.73.73 0 0 0 -.66-.38l-1.6.09a.7.7 0 0 1 -.63-1.08l.88-1.34a.7.7 0 0 0 0-.76l-.88-1.34a.7.7 0 0 1 .63-1.08l1.6.09a.73.73 0 0 0 .66-.38l.72-1.43a.69.69 0 0 1 1.24 0z"/></g><circle cx="25.79" cy="20.5" fill="#3cb982" r="7.5"/><path d="m24.75 23.77-2.52-2.52a1 1 0 0 1 1.41-1.41l1.11 1.1 2.82-2.82a1 1 0 0 1 1.41 0 1 1 0 0 1 0 1.41z" fill="#fff"/></svg>