<svg viewBox="0 0 41.59 37.71" xmlns="http://www.w3.org/2000/svg"><path d="m38.41 32.29a3.8 3.8 0 0 1 -3.79 3.8h-6.24a1.3 1.3 0 0 0 -1.26-1h-4.24a1.33 1.33 0 0 0 0 2.65h4.24a1.32 1.32 0 0 0 1.09-.62h6.41a4.8 4.8 0 0 0 4.79-4.8v-1.85h-1z"/><path d="m41.59 22.44-1.52-.7v-2.62a16.53 16.53 0 0 0 -.09-1.8 19.1 19.1 0 0 0 -17.22-17.23 17.32 17.32 0 0 0 -1.82-.09 18.64 18.64 0 0 0 -3.78.38 19.14 19.14 0 0 0 -15.28 17.23c0 .5-.06 1-.06 1.51v2.48l-1.82.84v5.65l1.82 1.05v.67h2v-10.69c0-.46 0-.91.05-1.36a17.12 17.12 0 0 1 34.13-.24 13.16 13.16 0 0 1 .08 1.6v10.69h2v-.81l1.52-.87z"/></svg>