<svg viewBox="0 0 46.76 31" xmlns="http://www.w3.org/2000/svg"><rect fill="none" height="28" rx="3.29" width="43.76" x="1.5" y="1.5"/><path d="m42 31h-37.21a4.8 4.8 0 0 1 -4.79-4.79v-21.42a4.8 4.8 0 0 1 4.79-4.79h37.21a4.8 4.8 0 0 1 4.79 4.79v21.42a4.8 4.8 0 0 1 -4.79 4.79zm-37.21-28a1.79 1.79 0 0 0 -1.79 1.79v21.42a1.79 1.79 0 0 0 1.79 1.79h37.21a1.79 1.79 0 0 0 1.79-1.79v-21.42a1.79 1.79 0 0 0 -1.79-1.79z" fill="#231f20"/><path d="m6.32 5.85h11.47v15.35h-11.47z" fill="none"/><path d="m18.79 22.21h-13.47v-17.36h13.47zm-11.47-2h9.47v-13.36h-9.47z" fill="#231f20"/><path d="m23.62 7.44h17.64" fill="#fff"/><path d="m23.62 5.94h17.65v3h-17.65z" fill="#231f20"/><path d="m23.62 12.56h17.64" fill="#fff"/><path d="m23.62 11.06h17.65v3h-17.65z" fill="#231f20"/><path d="m23.62 19.09h17.64" fill="#fff"/><path d="m23.62 17.59h17.65v3h-17.65z" fill="#231f20"/></svg>