<svg viewBox="0 0 45.88 36.76" xmlns="http://www.w3.org/2000/svg"><rect fill="#edf4f7" height="29.29" rx=".62" width="45.88" y="7.47"/><path d="m2.7 14h19.3v19.88h-19.3z" fill="#3cb982"/><g fill="#112138"><circle cx="12.24" cy="19.65" r="4"/><path d="m20.94 0h4.59v6.21h-4.59z"/><path d="m19.17 30.7a8.76 8.76 0 0 1 -.58 3.18h-12.72a8.76 8.76 0 0 1 -.58-3.18c0-4.41 3.11-8 6.94-8s6.94 3.59 6.94 8z"/><path d="m26.59 16.35h16.59v2h-16.59z"/></g><path d="m16.88 9.88h12.71v2h-12.71z" fill="#e2e2e2"/><path d="m23.24 4.06a2.29 2.29 0 0 1 2.29 2.29v5.53a0 0 0 0 1 0 0h-4.59a0 0 0 0 1 0 0v-5.53a2.29 2.29 0 0 1 2.3-2.29z" fill="#f9c645"/><path d="m26.59 21.65h16.59v2h-16.59z" fill="#112138"/><path d="m26.6 26.71h2.32v2h-2.32z" fill="#112138"/><path d="m31.59 26.71h2.32v2h-2.32z" fill="#112138"/><path d="m36.04 26.71h2.32v2h-2.32z" fill="#112138"/></svg>