<svg viewBox="0 0 37.6 47.03" xmlns="http://www.w3.org/2000/svg"><path d="m16.07 20.65h6v8.91h-6z" fill="#fbcc9a"/><rect fill="#f9c645" height="12.71" rx=".56" width="1.12" x="30.27" y=".82"/><path d="m27.51 10.29v3.88a8.52 8.52 0 0 1 -8.51 8.53 8.19 8.19 0 0 1 -2.11-.27 8.52 8.52 0 0 1 -6.4-8.26v-3.88a8.53 8.53 0 0 1 8.51-8.53 7.32 7.32 0 0 1 .81 0 8.54 8.54 0 0 1 7.7 8.49z" fill="#e4b488"/><path d="m26.21 10.06v3.88a8.53 8.53 0 0 1 -8.53 8.53 7.32 7.32 0 0 1 -.81 0 8.52 8.52 0 0 1 -6.4-8.26v-3.92a8.53 8.53 0 0 1 8.53-8.53 7.32 7.32 0 0 1 .81 0 8.54 8.54 0 0 1 6.4 8.26z" fill="#fbcc9a"/><path d="m10.21 1.29h17.65v7.65h-17.65z" fill="#112138"/><path d="m10.21 1.29h16.79v6.74h-16.79z" fill="#153c54"/><rect fill="#153c54" height="1.29" rx=".65" width="26.18" x="5.95"/><path d="m27.51 11h.12a2.05 2.05 0 0 1 1.76 2.25 2.05 2.05 0 0 1 -1.76 2.25h-.23z" fill="#e4b488"/><path d="m10.49 11h-.12a2.05 2.05 0 0 0 -1.76 2.25 2.05 2.05 0 0 0 1.76 2.25h.23z" fill="#fbcc9a"/><path d="m9.89 33.04.88-1.1 2.74-1.67 1.14-.27h4.55l5.69-.35 1.93 2.29 1.73 3.62.62 5.03-4.54 3.97-5.52 2.34-.22.13-3.57-.49-8.03-10.01 2.42-3.44z" fill="#edf4f7"/><path d="m24.14 44.25-5.25 2.78-4.01-2.52 1.5-7.81-1.3-2.38-.29-.53.09-.53 2.93-2.68.65-.6.12-.11.42.05 2.27.25.84 1.9-.4 1.74-.66 2.85 2.8 6.87z" fill="#f9c645"/><path d="m23.85 43.53-1.81 1.29-2.41-7.53.47-3.23-1.91-2.9-.38-.58-.3-.46h-.24l1.19-.14.54-.06 2.27-.27 1.59 1.94.2 1.24-.91 1.58-.44-.6-.66 2.85z" fill="#da3"/><path d="m24.89 29.65-1.83 3.18-.91 1.58-.44-.6-2.64-3.55-.88.9-3.11 3.16-.34.35-1.23-4.41 2.56-3.35 3.08 2.74 2.83-3.09z" fill="#3cb982"/><path d="m18.89 47h-.19-12.7-1-4.88a49.81 49.81 0 0 0 -.12-6.94 6.43 6.43 0 0 1 5-7l5.73-1.15 2.27 8.94 2.17 2.27 3.65 3.81z" fill="#153c54"/><path d="m37.5 46.94h-6.64l-12 .06h-.16l.07-.07 4.51-4.72 1.31-1.36 2.2-8.91 3.56.71 2.18.44a6.44 6.44 0 0 1 5 7c-.21 5.97-.03 6.85-.03 6.85z" fill="#153c54"/><path d="m12.98 40.85-2.21-8.91-5.73 1.15" fill="#153c54"/><g fill="#112138"><path d="m37.5 46.94h-2.63c1.54-8.6-1.86-12.57-4.49-14.3l2.18.44a6.44 6.44 0 0 1 5 7c-.24 5.98-.06 6.86-.06 6.86z"/><path d="m5.98 44.03v2.85l-1-.01v-2.84z"/><path d="m31.86 44.03v2.84l-1 .01v-2.85z"/></g><rect fill="#f9c645" height="3.4" rx="1.19" width="2.38" x="29.61" y="7.41"/></svg>