<svg viewBox="0 0 44.3 44.91" xmlns="http://www.w3.org/2000/svg"><path d="m12.51 19.43v-.81a7.12 7.12 0 0 1 2.09-5.3c1.44-1.6 2.26-2.79 2.3-4.18.01-1.58-.9-2.67-2.9-2.76a5.49 5.49 0 0 0 -3.16.87l-.69-2a8.17 8.17 0 0 1 4.47-1.1c3.56.11 5.11 2.36 5 4.71-.07 2.11-1.29 3.59-2.83 5.31a6.17 6.17 0 0 0 -1.91 4.51v.8zm-.81 4.32a1.83 1.83 0 0 1 1.92-1.9 1.81 1.81 0 0 1 1.76 2 1.84 1.84 0 1 1 -3.68-.11z" fill="#231f20"/><path d="m29.65 14.82a14.83 14.83 0 0 1 -14.83 14.83 26.73 26.73 0 0 1 -6.49-1.49l-6.68 2.9 1.23-7.45s-2.88-5.5-2.88-8.79a14.83 14.83 0 0 1 29.65 0z" fill="#153c54"/><path d="m33.82 13.37a14.83 14.83 0 0 1 9.82 18.52 26.41 26.41 0 0 1 -3.33 5.77l.81 7.25-6.76-3.37s-6.1 1.14-9.24.18a14.83 14.83 0 0 1 8.7-28.35z" fill="#edf4f7"/><path d="m11.83 17.31v-.62a5.49 5.49 0 0 1 1.61-4.09c1.12-1.24 1.74-2.15 1.78-3.23s-.74-2.06-2.22-2.13a4.26 4.26 0 0 0 -2.44.67l-.56-1.53a6.27 6.27 0 0 1 3.45-.85c2.75.09 3.94 1.82 3.89 3.64-.05 1.63-1 2.77-2.19 4.1a4.76 4.76 0 0 0 -1.47 3.48v.62zm-.63 3.34a1.42 1.42 0 0 1 1.48-1.47 1.5 1.5 0 1 1 -1.48 1.47z" fill="#f9c645"/><path d="m28.68 31.43-2.68-11.17 2.24-.48 2.08 11.31zm.13 3.47a1.39 1.39 0 0 1 1.07-1.74 1.37 1.37 0 0 1 1.69 1.15 1.41 1.41 0 1 1 -2.76.59z" fill="#3cb982"/></svg>