<svg viewBox="0 0 23.29 45.93" xmlns="http://www.w3.org/2000/svg"><path d="m11.36 10.87h-.08c-4.64-.06-4.63-4.81-4.63-6.87 0-2.48 1.82-4 4.64-4s4.65 1.55 4.65 3.94v.27c0 1.6 0 4-1.48 5.51a4.24 4.24 0 0 1 -3.1 1.15zm-.07-8.87c-1 0-2.64.25-2.64 1.94 0 3.14.43 4.9 2.66 4.93a2.26 2.26 0 0 0 1.74-.57c.9-.9.9-2.82.89-4.09v-.27c0-1.69-1.66-1.94-2.65-1.94z" fill="#231f20"/><path d="m1 18.41 6.12-6.12 15.17 22.71h-14.35-6.35l14.59-22.59 5.64 5.06" fill="none"/><path d="m22.29 36h-20.7a1 1 0 0 1 -.84-1.54l9.82-15.21-3.57-5.39-5.29 5.26a1 1 0 0 1 -1.42-1.42l6.12-6.11a1 1 0 0 1 1.59.15l3.8 5.68 3.59-5.55a1 1 0 0 1 1.5-.2l5.65 5.06a1 1 0 0 1 -1.33 1.49l-4.78-4.28-3.43 5.3 10.17 15.2a1 1 0 0 1 .05 1 1 1 0 0 1 -.93.56zm-18.87-2h17l-8.64-12.93z" fill="#231f20"/><path d="m10.18 44.93v-9.68" fill="#fff"/><path d="m10.18 45.93a1 1 0 0 1 -1-1v-9.68a1 1 0 0 1 2 0v9.68a1 1 0 0 1 -1 1z" fill="#231f20"/><path d="m14.18 35.36v9.57" fill="#fff"/><path d="m14.18 45.93a1 1 0 0 1 -1-1v-9.57a1 1 0 0 1 2 0v9.57a1 1 0 0 1 -1 1z" fill="#231f20"/></svg>