<svg viewBox="0 0 296.35 297.17" xmlns="http://www.w3.org/2000/svg"><path d="m158 297.17c-76.32 0-138.4-62.09-138.4-138.4s62.04-138.39 138.4-138.39 138.35 62.08 138.35 138.39-62.08 138.4-138.35 138.4zm0-273.79c-74.66 0-135.4 60.73-135.4 135.39s60.7 135.4 135.4 135.4 135.39-60.74 135.39-135.4-60.78-135.39-135.39-135.39z" fill="#709af5"/><path d="m138.4 276.79c-76.32 0-138.4-62.08-138.4-138.4s62.08-138.39 138.4-138.39 138.39 62.08 138.39 138.39-62.08 138.4-138.39 138.4zm0-273.79c-74.66 0-135.4 60.74-135.4 135.39s60.74 135.4 135.4 135.4 135.39-60.74 135.39-135.4-60.74-135.39-135.39-135.39z" fill="#f9f9f9"/></svg>