<svg viewBox="0 0 45.88 29.29" xmlns="http://www.w3.org/2000/svg"><rect fill="#edf4f7" height="29.29" rx=".62" width="45.88"/><path d="m10.24 13.56a2.91 2.91 0 1 0 -3 0 5.77 5.77 0 0 0 -3.53 5.54 6.28 6.28 0 0 0 .42 2.31h9.23a6.28 6.28 0 0 0 .42-2.31 5.77 5.77 0 0 0 -3.54-5.54z" fill="#3cb982"/><g fill="#112138"><path d="m20.06 8.88h16.29v2h-16.29z"/><path d="m3.94 3.76h10.71v2h-10.71z"/><path d="m3.94 24.41h10.71v2h-10.71z"/><path d="m20.06 14.18h12v2h-12z"/><path d="m20.06 19.03h12v2h-12z"/><path d="m25.39 26.43a3.76 3.76 0 0 1 -2.36-1c-1.05-.87-1.68-1.21-2.54-1l-.57-1.92c1.87-.56 3.19.35 4.38 1.32.52.42 1 .61 1.22.52a2 2 0 0 0 .59-.58 6.77 6.77 0 0 1 .64-.7 3.42 3.42 0 0 1 4.31-.07c.16.13.31.28.47.43a1.49 1.49 0 0 0 .45.37.64.64 0 0 0 .49-.16 4.08 4.08 0 0 0 .68-.77l.41-.52 1.52 1.3-.34.43a5.86 5.86 0 0 1 -1.05 1.15 2.58 2.58 0 0 1 -2.36.47 3.15 3.15 0 0 1 -1.21-.85l-.31-.28a1.41 1.41 0 0 0 -1.72.05 3.13 3.13 0 0 0 -.42.47 3.37 3.37 0 0 1 -1.45 1.19 2.28 2.28 0 0 1 -.83.15z"/></g><path d="m36.62 16.74h6.79v8.56h-6.79z" fill="#f9c645"/></svg>