<svg viewBox="0 0 35.36 42.72" xmlns="http://www.w3.org/2000/svg"><rect fill="#153c54" height="36.47" rx="1.65" width="24.24" x=".12"/><rect fill="#153c54" height="36.47" rx="1.65" width="13.88" x="10.47"/><path d="m.74 37.05 9.35 5.61c.41.24.74-.3.74-1.21v-33.17a2.73 2.73 0 0 0 -.74-2.09l-9.35-5.61c-.41-.25-.74.29-.74 1.2v33.22a2.75 2.75 0 0 0 .74 2.05z" fill="#edf4f7"/><circle cx="7.7" cy="24.15" fill="#3cb982" r=".88"/><path d="m35 20.84a.67.67 0 0 0 0-1.15l-7.29-4.21v1.12a.66.66 0 0 1 -.67.66h-9.76a.67.67 0 0 0 -.67.67v4.67a.66.66 0 0 0 .67.66h9.79a.67.67 0 0 1 .67.67v1.12z" fill="#f9c645"/></svg>