<svg enable-background="new 0 0 431.9 463.9" viewBox="0 0 431.9 463.9" xmlns="http://www.w3.org/2000/svg" xmlns:xlink="http://www.w3.org/1999/xlink"><clipPath id="a"><path d="m249 442h36v21.9h-36z"/></clipPath><clipPath id="b"><path d="m147 442h36v21.9h-36z"/></clipPath><clipPath id="c"><path d="m416 210h15.9v8h-15.9z"/></clipPath><path clip-rule="evenodd" d="m182.1 29.4 9.4-8.1-5.6-11.1 11.1 5.8 9.4-8.7-2.4 12.3 11.8 5.8-13.3 1.6-2.4 11.7-5.6-11.1z" fill="#019149" fill-rule="evenodd"/><path d="m182.1 29.4 9.4-8.1-5.6-11.1 11.1 5.8 9.4-8.7-2.4 12.3 11.8 5.8-13.3 1.6-2.4 11.7-5.6-11.1z" fill="none" stroke="#019149" stroke-linejoin="round" stroke-miterlimit="1" stroke-width="1.514"/><path clip-rule="evenodd" d="m173.4 43.9c4.7 13.9 18.9 24.8 36.3 24.8 21.2 0 38.5-16.1 38.5-35.7 0-14.7-9.4-26.4-22.9-32.2 20.5 3.6 35.6 20.5 35.6 40.1 0 22.8-19.8 40.9-44.1 40.9-22.9-.1-41.7-16.8-43.4-37.9" fill="#019149" fill-rule="evenodd"/><path d="m173.4 43.9c4.7 13.9 18.9 24.8 36.3 24.8 21.2 0 38.5-16.1 38.5-35.7 0-14.7-9.4-26.4-22.9-32.2 20.5 3.6 35.6 20.5 35.6 40.1 0 22.8-19.8 40.9-44.1 40.9-22.9-.1-41.7-16.8-43.4-37.9z" fill="none" stroke="#019149" stroke-linejoin="round" stroke-miterlimit="1" stroke-width="1.514"/><g clip-path="url(#a)"><path d="m283.8 456.5c0 5.8-.9 6.6-9.6 6.6-8.5 0-19.6-10.9-24.3-20.3l21.2 2.2z" fill="none" stroke="#019149" stroke-linejoin="round" stroke-miterlimit="1" stroke-width="1.514"/></g><g clip-path="url(#b)"><path d="m148.2 456.5c0 5.8.7 6.6 9.4 6.6s19.8-10.9 24.5-20.3l-21.2 2.2z" fill="none" stroke="#019149" stroke-linejoin="round" stroke-miterlimit="1" stroke-width="1.514"/></g><path clip-rule="evenodd" d="m184.2 430.6c0-.6-.7-1.4-1.6-1.4 0 0-.7 0-1.5 0h-2.4v8.1h2.4 1.5c.9 0 .9-.8.9-.8.7-.6.7-.6.7-1.4.7-.6.7-1.4.7-2.2 0-.6 0-2.3-.7-2.3zm0 0c0-.6-.7-1.4-1.6-1.4 0 0-.7 0-1.5 0h-2.4v8.1h2.4 1.5c.9 0 .9-.8.9-.8.7-.6.7-.6.7-1.4.7-.6.7-1.4.7-2.2 0-.6 0-2.3-.7-2.3zm0 0c0-.6-.7-1.4-1.6-1.4 0 0-.7 0-1.5 0h-2.4v8.1h2.4 1.5c.9 0 .9-.8.9-.8.7-.6.7-.6.7-1.4.7-.6.7-1.4.7-2.2 0-.6 0-2.3-.7-2.3zm0 0c0-.6-.7-1.4-1.6-1.4 0 0-.7 0-1.5 0h-2.4v8.1h2.4 1.5c.9 0 .9-.8.9-.8.7-.6.7-.6.7-1.4.7-.6.7-1.4.7-2.2 0-.6 0-2.3-.7-2.3zm0 0c0-.6-.7-1.4-1.6-1.4 0 0-.7 0-1.5 0h-2.4v8.1h2.4 1.5c.9 0 .9-.8.9-.8.7-.6.7-.6.7-1.4.7-.6.7-1.4.7-2.2 0-.6 0-2.3-.7-2.3zm33 0c-.7-.6-.7-1.4-.7-2 0 .6-.7 1.4-.7 2l-1.6 3.8h4zm0 0c-.7-.6-.7-1.4-.7-2 0 .6-.7 1.4-.7 2l-1.6 3.8h4zm-33 0c0-.6-.7-1.4-1.6-1.4 0 0-.7 0-1.5 0h-2.4v8.1h2.4 1.5c.9 0 .9-.8.9-.8.7-.6.7-.6.7-1.4.7-.6.7-1.4.7-2.2 0-.6 0-2.3-.7-2.3zm0 0c0-.6-.7-1.4-1.6-1.4 0 0-.7 0-1.5 0h-2.4v8.1h2.4 1.5c.9 0 .9-.8.9-.8.7-.6.7-.6.7-1.4.7-.6.7-1.4.7-2.2 0-.6 0-2.3-.7-2.3zm33 0c-.7-.6-.7-1.4-.7-2 0 .6-.7 1.4-.7 2l-1.6 3.8h4zm27.6 0c0-.6-.7-.6-.7-1.4-.7 0-1.6-.6-2.4-.6-.7 0-2.4.6-3.3 1.4-.7.6-.7 1.4-.7 3.6 0 .8 0 2.2.7 2.8.9.8 2.5.8 3.3.8.7 0 2.4 0 3.1-.8.9-.6.9-2 .9-3.6 0-.5 0-1.3-.9-2.2zm0 0c0-.6-.7-.6-.7-1.4-.7 0-1.6-.6-2.4-.6-.7 0-2.4.6-3.3 1.4-.7.6-.7 1.4-.7 3.6 0 .8 0 2.2.7 2.8.9.8 2.5.8 3.3.8.7 0 2.4 0 3.1-.8.9-.6.9-2 .9-3.6 0-.5 0-1.3-.9-2.2zm-27.6 0c-.7-.6-.7-1.4-.7-2 0 .6-.7 1.4-.7 2l-1.6 3.8h4zm-33 0c0-.6-.7-1.4-1.6-1.4 0 0-.7 0-1.5 0h-2.4v8.1h2.4 1.5c.9 0 .9-.8.9-.8.7-.6.7-.6.7-1.4.7-.6.7-1.4.7-2.2 0-.6 0-2.3-.7-2.3zm99.7 8c-.1-.7-.3-1.3-.6-1.9-.1-.2-.2-.4-.3-.6s-.3-.5-.5-.7c-.1-.2-.2-.3-.3-.5-.2-.3-.5-.6-.7-.9-.4-.4-.8-.8-1.3-1.3-.9-.9-1.7-1.6-3-2.5-2-1.4-5.2-3.1-11.9-6.2-20.5-8.9-83.5-9.5-104-.8-.8.3-1.6.7-2.3 1-1.6.7-2.9 1.4-4 2.1-.5.3-1 .6-1.4.9s0 0 0 0c-3.1 2.3-3 4-4.1 5.5-.2.2-.5.5-.7.7-2 2-3.3 4.1-3.3 7.4v15.3c0 3 2.4.8 3.3 0 0-.8 7.1-7.2 14.2-9.5 7.1-2.2 17.2-5.8 51.9-5.8s45 3.6 52.1 5.8 14.2 8.7 14.2 9.5c.5.6 2 2 2.7 1.4 0 0 .1-.1.1-.2.1-.2.1-.4.2-.7 0-.2 0-.3 0-.5v-15.3c0-.7-.1-1.5-.3-2.2zm-109.2-9.4h-7.1v3h6.3v1.4h-6.3v3.6h7.1v1.4h-8.7v-10.9h8.7zm11.1 5.9c0 .8 0 1.4-.9 1.4 0 .8 0 .8-.7 1.6 0 0-.7 0-1.6 0 0 .6-.7.6-1.5.6h-4v-10.9h4 1.5c.9 0 1.6.8 2.4.8 0 .6.9 1.4.9 2 .7.8.7 1.6.7 2.2-.1.9-.1 1.7-.8 2.3zm11.8 1.4c0 .8-.9 1.6-1.6 1.6-.7.6-1.6.6-2.4.6-1.6 0-2.4 0-3.1-.6-.9 0-.9-.8-1.6-1.6v-8.7h1.6v5.9 2.2c0 .6.7.6.7 1.4h1.6c1.5 0 2.4 0 2.4-.8.7 0 .7-1.4.7-2.8v-5.9h1.6v8.7zm4.7-1.4c0 .8.7 1.4.7 2.2h2.4c.9 0 1.6 0 2.4-.8 0 0 .9-.6.9-1.4h1.5c0 1.4-.7 2.2-1.5 3-.9.6-1.6.6-3.3.6-1.5 0-2.4 0-3.1-.6-.7-.8-1.6-1.6-1.6-2.2-.7-.8-.7-1.4-.7-3 0-.6 0-2.2.7-2.8.9-.8.9-1.4 1.6-2.2h3.1c1.6 0 2.4 0 3.3.8.7 0 1.5 1.4 1.5 2h-1.5c0-.6-.9-1.4-.9-1.4-.7 0-1.5-.6-2.4-.6-.7 0-1.5.6-2.4.6-.7.8-.7.8-.7 1.4-.7.8-.7 1.6-.7 2.2 0 .8 0 2.2.7 2.2zm18.2 3.6-1.6-3.6h-4.7l-1.6 3.6h-1.6l4.7-10.9h1.5l4.7 10.9zm10.1-9.5h-4v9.5h-1.5v-9.5h-4v-1.4h9.4v1.4zm3.1 9.5h-1.5v-10.9h1.5zm12.7-2.8c0 1.4-.7 1.4-1.6 2.2-1.5.6-2.4.6-3.1.6s-2.4 0-3.3-.6c-.7-.8-1.4-1.6-1.4-2.2-.9-.8-.9-1.4-.9-3 0-1.4.9-2.8 1.6-3.6.7-1.4 2.3-1.4 4-1.4.7 0 2.4 0 3.1.8.9 0 1.6.6 1.6 1.4.7.6.7 2.2.7 2.8 0 1.6 0 2.2-.7 3zm11.8 2.8h-1.6l-5.4-8.7v8.7h-1.6v-10.9h1.6l5.4 8.7v-8.7h1.6zm-14.1-9.5c-.7 0-1.6-.6-2.4-.6-.7 0-2.4.6-3.3 1.4-.7.6-.7 1.4-.7 3.6 0 .8 0 2.2.7 2.8.9.8 2.5.8 3.3.8.7 0 2.4 0 3.1-.8.9-.6.9-2 .9-3.6 0-.6 0-1.4-.9-2.2 0-.6-.7-.6-.7-1.4zm-27.6-.6c0 .6-.7 1.4-.7 2l-1.6 3.8h4l-.9-3.8c-.8-.6-.8-1.4-.8-2zm-32.3 2c0-.6-.7-1.4-1.6-1.4 0 0-.7 0-1.5 0h-2.4v8.1h2.4 1.5c.9 0 .9-.8.9-.8.7-.6.7-.6.7-1.4.7-.6.7-1.4.7-2.2 0-.6 0-2.3-.7-2.3zm0 0c0-.6-.7-1.4-1.6-1.4 0 0-.7 0-1.5 0h-2.4v8.1h2.4 1.5c.9 0 .9-.8.9-.8.7-.6.7-.6.7-1.4.7-.6.7-1.4.7-2.2 0-.6 0-2.3-.7-2.3zm33 0c-.7-.6-.7-1.4-.7-2 0 .6-.7 1.4-.7 2l-1.6 3.8h4zm0 0c-.7-.6-.7-1.4-.7-2 0 .6-.7 1.4-.7 2l-1.6 3.8h4zm-33 0c0-.6-.7-1.4-1.6-1.4 0 0-.7 0-1.5 0h-2.4v8.1h2.4 1.5c.9 0 .9-.8.9-.8.7-.6.7-.6.7-1.4.7-.6.7-1.4.7-2.2 0-.6 0-2.3-.7-2.3zm0 0c0-.6-.7-1.4-1.6-1.4 0 0-.7 0-1.5 0h-2.4v8.1h2.4 1.5c.9 0 .9-.8.9-.8.7-.6.7-.6.7-1.4.7-.6.7-1.4.7-2.2 0-.6 0-2.3-.7-2.3zm33 0c-.7-.6-.7-1.4-.7-2 0 .6-.7 1.4-.7 2l-1.6 3.8h4zm0 0c-.7-.6-.7-1.4-.7-2 0 .6-.7 1.4-.7 2l-1.6 3.8h4zm-33 0c0-.6-.7-1.4-1.6-1.4 0 0-.7 0-1.5 0h-2.4v8.1h2.4 1.5c.9 0 .9-.8.9-.8.7-.6.7-.6.7-1.4.7-.6.7-1.4.7-2.2 0-.6 0-2.3-.7-2.3zm0 0c0-.6-.7-1.4-1.6-1.4 0 0-.7 0-1.5 0h-2.4v8.1h2.4 1.5c.9 0 .9-.8.9-.8.7-.6.7-.6.7-1.4.7-.6.7-1.4.7-2.2 0-.6 0-2.3-.7-2.3zm0 0c0-.6-.7-1.4-1.6-1.4 0 0-.7 0-1.5 0h-2.4v8.1h2.4 1.5c.9 0 .9-.8.9-.8.7-.6.7-.6.7-1.4.7-.6.7-1.4.7-2.2 0-.6 0-2.3-.7-2.3z" fill="#019149" fill-rule="evenodd"/><path d="m393.2 385.8c-.9-3.6-4-6.4-11.8-5.8-8 .8-11.8 5.2-11.8 8.1 0 3 5.4 13.1 7.8 16.1 1.6 2.8 17.2-5 17.2-5z" fill="none" stroke="#019149" stroke-linejoin="round" stroke-miterlimit="1" stroke-width="1.514"/><path clip-rule="evenodd" d="m303.4 427.5c.7 1.4.7 2.8 0 3.6-.7.6-1.6 1.4-2.4 1.4-1.6.8-2.4 0-3.1-.8-.9 0-1.6-1.4-2.4-2 0-2.2 0-3 .7-3.8.7-1.4 1.6-1.4 2.4-2 .7 0 1.6 0 2.4.6.7 0 .7 0 1.6.8.8.6.8 1.4.8 2.2z" fill="#019149" fill-rule="evenodd"/><path clip-rule="evenodd" d="m372.7 412.8c0-.6-.7-1.4-.7-2.2-.9 0-.9-.6-1.6-.6-.7-.8-1.6-.8-2.4 0-.7 0-2.4.6-2.4 1.4-.7.8-.7 2.2-.7 3.6.7.8.7 2.2 2.4 3 .7 0 1.4.6 3.1 0 .7 0 1.6-.8 2.4-1.6-.1-.6.7-2-.1-3.6zm0 0c0-.6-.7-1.4-.7-2.2-.9 0-.9-.6-1.6-.6-.7-.8-1.6-.8-2.4 0-.7 0-2.4.6-2.4 1.4-.7.8-.7 2.2-.7 3.6.7.8.7 2.2 2.4 3 .7 0 1.4.6 3.1 0 .7 0 1.6-.8 2.4-1.6-.1-.6.7-2-.1-3.6zm26.7-5.1-4.7-22h-1.5c-2.4 14.7-10.3 16.1-27.6 18.3-18.2 2.2-37 3.6-62.3 8.7-18.2 4.4-26 8.9-30.7 12.5-1.6 1.4 1.5 2.2 3.1 2.2 2.4.6 2.4 5 4 8.7 1.5 3 .7 4.4 4.7 3.6 2.4-.6 3.1 2.2 3.1 2.2 4.7-3.6 8.7-4.4 18.1-5.8 9.4-2.2 34.7-3.6 56.6-6.5 22.9-3 24.5-5.2 31.6-9.5 6.5-5.1 5.6-12.4 5.6-12.4zm-107.1 27c-.7.8-1.5 1.4-3.1 1.4-.7.8-2.4.8-3.1 0-.9 0-1.6-.6-2.3-1.4 0-.8-.9-2.2-.9-3-.7-.6-.7-2 0-2.8 0-.8.9-1.4 1.6-2.2s1.6-1.4 2.4-1.4h3.1c.9.6 1.6 1.4 2.4 2.2l-1.5.6c-.9-.6-.9-1.4-1.6-1.4h-2.4c-.7 0-1.6.8-1.6.8-.7.6-.7 1.4-.7 2.2-.7.6-.7 1.4 0 2 0 .8 0 1.6.7 2.2.9.8.9.8 1.6.8.7.8 1.6.8 2.4.8.7-.8 1.6-.8 1.6-1.6.7-.6.7-1.4.7-2.2h1.6c0 1.6 0 2.2-.9 3zm12.7-4.4c0 .8-.9 1.4-1.6 2.2s-1.6 1.4-2.4 1.4h-3c-.9-.6-1.6-.6-2.4-1.4-.9-.8-.9-2.2-1.6-2.8 0-1.6 0-3 .7-4.4.9-1.4 2.4-2.2 4-2.2h2.4c1.6 0 2.4.8 3.1 1.4 0 .8.9 1.4.9 3 .7.6.7 2.2-.1 2.8zm12.6 0-1.6-8.7-1.5 9.5h-1.6l-5.4-8.1 2.3 8.7h-1.6l-2.4-10.1 2.4-.8 4.7 7.3c0 .8.7.8.7 1.6v-2.2l.9-8.1h2.4l2.4 10.3zm13.4-2.8-2.4-8.9-.7 9.5h-1.6l-5.6-7.9 2.4 8.7-1.5.8-2.4-11.1 2.4-.6 4.7 7.3c0 .6.7 1.4.7 1.4 0-.8 0-.8 0-2.2l.9-7.2 2.4-.8 2.4 10.3zm4.7-.8-3.1-10.9h1.5l2.4 10.1zm11.8-4.5c-.7.8-.7 1.6-1.6 1.6-.7.6-1.4.6-2.4 1.4h-2.4c-.7 0-1.5-.8-2.4-1.4 0 0-.7-.8-.7-1.6l1.6-.6c0 .6 0 1.4.7 1.4 0 0 .7.8 1.6.8h1.5c.9 0 .9-.8 1.6-.8l.7-.8c0-.6 0-.6 0-.6 0-.8 0-.8-.7-1.4h-3.1c-.9 0-1.6 0-2.4-.8-.9 0-.9 0-1.6-.8l-.7-.6c0-.8 0-1.6 0-1.6.7-.6.7-1.4 1.5-1.4.9-.6 1.6-.6 1.6-.6 1.6-.8 2.4-.8 2.4-.8.7.8 1.6.8 2.4 1.4 0 0 .7.8.7 1.4h-1.4c0-.6-.9-.6-.9-1.4h-2.4c-.7.8-1.5.8-1.5.8-.9.6-.9 1.4-.9 1.4 0 .8.9.8.9.8 0 .6.7.6 2.4.6h3.1s.7.8 1.6.8c0 .8.7.8.7 1.4.1.8.1.8.1 1.4zm10.2-2c0 .6-.7 1.4-.7 1.4-.7.6-1.6.6-2.4.6-.7.8-2.4.8-2.4.8-.7-.8-1.6-.8-2.4-1.4-.7 0-.7-.8-.7-1.4l.7-.8c.7.8.7 1.4.7 1.4.9 0 .9.8 1.6.8h1.6c.7 0 1.5-.8 1.5-.8.9 0 .9-.6.9-.6.7-.8.7-.8.7-1.6-.7 0-.7 0-.7-.6-.9 0-.9 0-1.6 0 0 0-.7 0-1.6 0-1.5 0-2.4 0-2.4-.8-.7 0-1.5 0-1.5-.8-.9 0-.9-.6-.9-.6 0-.8 0-1.4 0-1.4 0-.8.9-1.6.9-1.6.7-.6 1.5-.6 2.4-.6.7-.8 1.5-.8 2.4-.8.7.8 1.5.8 1.5 1.4.9 0 .9.8.9 1.6h-.9c-.7-.8-.7-.8-1.5-1.6-.9 0-.9 0-2.4 0-.9 0-.9.8-1.6.8 0 .8-.7 1.4 0 1.4v.8c.7.6 1.6.6 3.1.6h2.4c.9 0 1.6 0 1.6.8.7 0 .7.8.7 1.4.1.8.1.8.1 1.6zm3.2.6-2.4-10.3 1.5-.6 2.4 10.9zm13.5-5c0 .6-.9 1.4-1.6 2.2-.7.6-1.6 1.4-2.4 1.4h-3.1c-.9-.8-1.6-.8-2.4-1.4-.9-.8-.9-2.2-1.6-3 0-1.4 0-2.8.7-4.4.9-1.4 1.6-2 4-2h2.4c1.6 0 2.4.6 2.4 1.4.7.6 1.6 1.4 1.6 2.8.7.8.7 2.2 0 3zm10.9 0-7.8-6.7 1.6 8.1-1.6.8-2.4-11.1h1.6l7.8 6.6-1.6-8.1.9-.6 3.1 10.9h-1.6zm-13.3-5.3c-.9 0-.9-.6-1.6-.6-.7-.8-1.6-.8-2.4 0-.7 0-2.4.6-2.4 1.4-.7.8-.7 2.2-.7 3.6.7.8.7 2.2 2.4 3 .7 0 1.4.6 3.1 0 .7 0 1.6-.8 2.4-1.6 0-.6.7-2 0-3.6-.1-.5-.8-1.3-.8-2.2z" fill="#019149" fill-rule="evenodd"/><path d="m287.6 442c4.7-3.6 8.7-4.4 18.2-5.8 9.4-2.2 34.7-3.6 56.6-6.4 22.9-3 24.5-5.2 31.6-9.5 6.4-5.2 5.4-12.5 5.4-12.5l-4.7-22h-1.5c-2.4 14.7-10.3 16.1-27.6 18.3-18.2 2.2-37 3.6-62.3 8.7-18.2 4.4-26 8.9-30.7 12.5-1.6 1.4 1.5 2.2 3.1 2.2 2.4.6 2.4 5 4 8.7 1.5 3 .7 4.4 4.7 3.6 2.5-.6 3.2 2.2 3.2 2.2z" fill="none" stroke="#019149" stroke-linejoin="round" stroke-miterlimit="1" stroke-width="1.514"/><path d="m369.6 388c0 2.2 4.7 4.4 9.4 2.2 4.7-1.4 3.8-.8 4.7-1.4l6.2 10.3" fill="none" stroke="#019149" stroke-linejoin="round" stroke-miterlimit="1" stroke-width="1.514"/><path clip-rule="evenodd" d="m56.1 381.3c-.8-.4-1.8-.7-2.8-.9-.9-.2-1.8-.4-2.8-.5-.1 0-.2 0-.3 0-3.7-.2-6.3.3-8.1 1.3-1.9 1.1-2.9 2.7-3.3 4.5l-.1.5-1.6 12.8s.1 0 .2.1c.5.3 2.1 1.1 4.2 2 4.6 2.1 11.5 4.8 13 2.9 0 0 .1-.1.1-.1.3-.4.6-.9 1-1.5 1.6-2.4 3.6-6.1 5-9.2.3-.7.6-1.3.8-2 .5-1.4.9-2.6.9-3.3 0-2-2.1-4.8-6.2-6.6zm2.8 11.9c-1.4 3.5-3.1 6.8-4.6 9-4.7-1-8.2-2.5-10.8-5.1-2-2-3.4-4.7-4.3-8.4l.1-2.2c.9-1.4 1.6-2.8 3.3-4.4 1.5-.6 3.8-1.4 7.1-.6 1.4 0 2.4 0 3.1.6.7 0 1.6 0 2.4.8 3.1 1.4 5.4 3.6 5.4 5 0 .8-.7 1.4-.7 3 0 0-.7.6-.7 1.4-.1.4-.2.6-.3.9z" fill="#019149" fill-rule="evenodd"/><path d="m38.7 385.8h-1.6m1.7.6-.2-.1-1.6-.5-1.6 13.3h3.3v-.4l.6-9.9.1-2.2zm-3.3 12.7v.6l.9.8.7-1.4zm19.1 4.9-1-.7c-1 1.4-7.3-1.2-11.6-3.1-1.4-.6-2.5-1.2-3.2-1.5-.5-.2-.8-.4-.8-.4l-.6.8-.1.1-1 1.3s16.5 8.7 19.6 4.4zm6-10.7-.9-.6-.5-.3c-.1.3-.2.5-.3.8-1.4 3.5-3.1 6.8-4.6 9-.3.4-.5.8-.8 1.1l1 .7 1.4.9c.4-.5.8-1.3 1.3-2.1 1.4-2.6 3.1-6.2 4.3-9zm.9-2-.8-.2-.7-.1s-.7.6-.7 1.4l.5.3.9.6 1 .6c.7-.6.7-1.4 1.5-2.2zm-.8-3.3c0 .8-.7 1.4-.7 3l.7.1.8.2 1.6.3c0-1.4.9-2.8.9-3.6zm-21.9-1.6c.1.8.3 1.6.5 2.4l.1-2.2zm18.1-6.5-.8 1.4-.9 1.6c3.1 1.4 5.4 3.6 5.4 5h3.4c0-2.1-2.4-5.8-7.1-8zm-3.3-.6-.3 1.1-.4 1.7c.7 0 1.6 0 2.4.8l.9-1.6.8-1.4c-1.8 0-2.5-.6-3.4-.6zm-3.1-.8-.3 1.4-.4 1.6c1.4 0 2.4 0 3.1.6l.4-1.7.3-1.1c-.7 0-2.4-.8-3.1-.8zm-9.4 1.4 1 1.3.7.9c1.5-.6 3.8-1.4 7.1-.6l.4-1.6.3-1.4c-4.8 0-7.2 0-9.5 1.4zm.9 1.3-1-1.3c-2.4 1.6-3.1 3.8-4 5.8h1.6l-.1.5.2.1c.1.8.3 1.6.5 2.4l.1-2.2c.9-1.4 1.6-2.8 3.3-4.4z" fill="none"/><path clip-rule="evenodd" d="m126.9 421.6s-.7-.8-1.6-.8l-3.8-.6-.9 3.6 3.3.6h2.4s0 0 .7-.6c0 0 0 0 0-.8.7-.8-.1-.8-.1-1.4zm0 0s-.7-.8-1.6-.8l-3.8-.6-.9 3.6 3.3.6h2.4s0 0 .7-.6c0 0 0 0 0-.8.7-.8-.1-.8-.1-1.4zm0 0s-.7-.8-1.6-.8l-3.8-.6-.9 3.6 3.3.6h2.4s0 0 .7-.6c0 0 0 0 0-.8.7-.8-.1-.8-.1-1.4zm0 0s-.7-.8-1.6-.8l-3.8-.6-.9 3.6 3.3.6h2.4s0 0 .7-.6c0 0 0 0 0-.8.7-.8-.1-.8-.1-1.4zm0 0s-.7-.8-1.6-.8l-3.8-.6-.9 3.6 3.3.6h2.4s0 0 .7-.6c0 0 0 0 0-.8.7-.8-.1-.8-.1-1.4zm0 0s-.7-.8-1.6-.8l-3.8-.6-.9 3.6 3.3.6h2.4s0 0 .7-.6c0 0 0 0 0-.8.7-.8-.1-.8-.1-1.4zm0 0s-.7-.8-1.6-.8l-3.8-.6-.9 3.6 3.3.6h2.4s0 0 .7-.6c0 0 0 0 0-.8.7-.8-.1-.8-.1-1.4zm0 0s-.7-.8-1.6-.8l-3.8-.6-.9 3.6 3.3.6h2.4s0 0 .7-.6c0 0 0 0 0-.8.7-.8-.1-.8-.1-1.4zm0 0s-.7-.8-1.6-.8l-3.8-.6-.9 3.6 3.3.6h2.4s0 0 .7-.6c0 0 0 0 0-.8.7-.8-.1-.8-.1-1.4zm0 0s-.7-.8-1.6-.8l-3.8-.6-.9 3.6 3.3.6h2.4s0 0 .7-.6c0 0 0 0 0-.8.7-.8-.1-.8-.1-1.4zm33.2 3.8s0-.1-.1-.2c-5.4-3.6-13.4-8-31.4-12.5-25.2-5-44.1-6.4-62.3-8.7-3.4-.4-6.4-.8-9-1.3-.6-.1-1.1-.2-1.7-.3-.4-.1-.9-.2-1.3-.3-4.7-1-8.2-2.5-10.8-5.1-2-2-3.4-4.7-4.3-8.4-.2-.8-.3-1.5-.5-2.4 0-.2-.1-.4-.1-.6h-1.6l-4 22s-1.5 7.2 4.9 12.5c7.1 4.2 8.5 6.4 31.4 9.5 22.1 2.8 47.2 4.2 56.8 6.5 9.4 1.4 13.3 2.2 18.9 5.8 0 0-.9-4.4 0-5.8.5-1.7 2.4-.8 4.7-1.5.8-.2 1.5-.6 2.3-1.3 1.3-1.2 1.6-2.8 2-3.9.1-.2.1-.3.2-.5s.1-.3.2-.4c0-.1.1-.1.1-.2l.2-.2c.3-.3.6-.5 1-.6h.1c1.9-.1 4.8-.8 4.3-2.1zm-83.6-3.2-1.6-.6.9-4.4-6.3-1.4-.7 5h-1.8l2.4-10.9h1.6l-.9 4.4 5.6 1.4.7-4.4h1.6zm4 .8-1.6-.8 2.4-10.1h1.6zm14.1-5.8-1.6.8c0-.8 0-1.6 0-1.6 0-.6-.7-.6-.7-1.4-.7 0-.7 0-1.6 0-.7-.6-1.5-.6-2.4 0h-.7c-.7.8-.7.8-1.6 1.4 0 0 0 .8-.7 1.6v2.8c.7.8.7 1.4 1.6 1.4.7.8 1.5.8 2.4.8h1.5 1.6l.7-2.2-3.8-.6.7-1.6 4.7 1.6-.7 3.6c-.9.6-1.6.6-2.4.6h-3.3c-.7 0-1.5-.6-2.4-1.4-.7 0-1.5-1.4-2.4-2.2v-2.8c.9-.8.9-2.2 1.6-3 .7-.6 1.6-1.4 2.4-1.4h3.1c.9 0 1.6 0 2.4.8.9 0 .9.6 1.6 1.4zm8.7 9.5.7-5-5.5-.8-1.6 5h-1.6l2.4-10.9h1.6l-.7 4.4 6.2 1.4.9-4.4h1.5l-2.4 11.1zm14.2-7.3-6.3-.8-.7 3 6.2 1.4-.7 1.4-6.3-1.4-.7 3.6 7.1 1.4v.8l-8.7-1.4 2.4-10.3 8 1.4v.9zm11.1 4.4c0 .6 0 .6-.9 1.4-.7.6-1.5.6-2.4.6 0 0 0 0 .9.8 0 0 0 .8.7 1.4l1.6 3h-2.4l-.9-2.2c-.7-.8-.7-1.4-.7-2.2l-.7-.8h-.8c0-.6 0-.6-.7-.6h-1.6l-.7 4.4h-1.6l2.4-11.1 4.7 1.6c.9 0 1.6 0 2.4.6.9 0 .9 0 .9.8.5.7.5 1.5-.2 2.3zm-3.3-3-3.8-.6-.9 3.6 3.3.6h2.4s0 0 .7-.6c0 0 0 0 0-.8.7-.8 0-.8 0-1.4-.1 0-.8-.8-1.7-.8zm1.6.8s-.7-.8-1.6-.8l-3.8-.6-.9 3.6 3.3.6h2.4s0 0 .7-.6c0 0 0 0 0-.8.7-.8-.1-.8-.1-1.4zm0 0s-.7-.8-1.6-.8l-3.8-.6-.9 3.6 3.3.6h2.4s0 0 .7-.6c0 0 0 0 0-.8.7-.8-.1-.8-.1-1.4zm0 0s-.7-.8-1.6-.8l-3.8-.6-.9 3.6 3.3.6h2.4s0 0 .7-.6c0 0 0 0 0-.8.7-.8-.1-.8-.1-1.4zm0 0s-.7-.8-1.6-.8l-3.8-.6-.9 3.6 3.3.6h2.4s0 0 .7-.6c0 0 0 0 0-.8.7-.8-.1-.8-.1-1.4zm0 0s-.7-.8-1.6-.8l-3.8-.6-.9 3.6 3.3.6h2.4s0 0 .7-.6c0 0 0 0 0-.8.7-.8-.1-.8-.1-1.4zm0 0s-.7-.8-1.6-.8l-3.8-.6-.9 3.6 3.3.6h2.4s0 0 .7-.6c0 0 0 0 0-.8.7-.8-.1-.8-.1-1.4zm0 0s-.7-.8-1.6-.8l-3.8-.6-.9 3.6 3.3.6h2.4s0 0 .7-.6c0 0 0 0 0-.8.7-.8-.1-.8-.1-1.4zm0 0s-.7-.8-1.6-.8l-3.8-.6-.9 3.6 3.3.6h2.4s0 0 .7-.6c0 0 0 0 0-.8.7-.8-.1-.8-.1-1.4z" fill="#019149" fill-rule="evenodd"/><path d="m60.7 391v.1c0 .6-.4 1.1-1 1.5-.2.2-.5.4-.8.5-1.8.9-4.7 1.3-7.7 0-4.7-1.6-3.8-.8-4.7-1.6l-2.9 5.5-1.6 3-.5 1-.4.7" fill="none" stroke="#019149" stroke-linejoin="round" stroke-miterlimit="1" stroke-width="1.514"/><path d="m362.4 144.4c4 3.6 8.7 5.2 13.4 7.5 7.1 3.6 11.1 9.5 15.8 15.3 1.6 2 2.4 5 3.1 7.2 1.6 4.4 2.4 9.5 1.6 13.9 0-.8.7-1.6 0-1.6-4-7.9-8.7-15.3-14.2-23.2-.7-2.2-2.4-3.8-4-4.4-6.1-4.4-10.8-9.5-15.7-14.7z" fill="none" stroke="#019149" stroke-linejoin="round" stroke-miterlimit="1" stroke-width="1.514"/><path d="m276.5 384.4c-30.7-16.7-50.3-6.4-71.5 8.9" fill="none" stroke="#019149" stroke-linejoin="round" stroke-miterlimit="1" stroke-width="1.514"/><path clip-rule="evenodd" d="m205 393.2c-4 2-8 5-12.7 7.9 0 0 2.4 3 4.7.8.7-.8 4-5 10.3-10.3z" fill="#019149" fill-rule="evenodd"/><path d="m205 393.2c-4 2-8 5-12.7 7.9 0 0 2.4 3 4.7.8.7-.8 4-5 10.3-10.3z" fill="none" stroke="#019149" stroke-linejoin="round" stroke-miterlimit="1" stroke-width="1.514"/><path d="m205 393.2c-4 2-8 5-12.7 7.9 0 0 2.4 3 4.7.8.7-.8 4-5 10.3-10.3" fill="none" stroke="#019149" stroke-linejoin="round" stroke-miterlimit="1" stroke-width="1.514"/><path clip-rule="evenodd" d="m207.4 391.6c6.2-4.2 14.2-9.5 26.7-13.7z" fill="#019149" fill-rule="evenodd"/><path d="m207.4 391.6c6.2-4.2 14.2-9.5 26.7-13.7z" fill="none" stroke="#019149" stroke-linejoin="round" stroke-miterlimit="1" stroke-width="1.514"/><path d="m207.4 391.6c.9-.6 1.8-1.2 2.7-1.8.3-.2.6-.4 1-.6 1.2-.8 2.5-1.6 3.9-2.5.3-.2.7-.4 1-.6.1-.1.2-.1.3-.1.4-.3.9-.5 1.4-.8 0 0 .1-.1.1-.1.5-.3 1-.5 1.4-.8.5-.3 1-.5 1.6-.8 2.4-1.2 4.9-2.4 7.8-3.5.3-.2.7-.3 1.1-.4 1.4-.6 2.9-1.1 4.5-1.6m32.2-11.8c19.8-5.2 33-16.9 41.8-27m-74.1 38.7c.6-.3 1.1-.5 1.7-.8.8-.4 1.5-.7 2.3-1.1h.1c.4-.2.8-.4 1.2-.5 44.4-19.5 69.9-10.8 92.6-4.4.2 0 .4.1.6.2.2 0 .4-.1.6-.3.8-.7 1.9-2.2 2.5-3.3 2.4-.8 4.7-2.2 7.1-3m-69.4-.1c.8-.2 1.6-.3 2.3-.5 34.8-7.4 52.9-21.2 87.5-19.9m-7.9-50.3c-16.5 17.8-14.6 31.4-24.9 42.7-2 2.2-4.4 4.2-7.4 6.2-7.7 4.9-16.9 12-47.2 21.3-.5.2-1.1.3-1.6.5m39.4 13.3c-8.5-5.2-16.5-8.9-25.9-11.1-5.5-1.4-6.4-2.2-12.5-1.4-4-.8-10.3 1.4-14.2 3.6 7.8 1.4 15.6 0 22.9 2.2h.1c1.2.3 2.3.7 3.5 1.1 11.1 3.7 21.2 9.3 32.5 10.5 3.1-.8 2.4-.8 3.1-1.4-3.2-.7-6.3-1.5-9.5-3.5zm13.4-38.7c1.1-.9 2.3-1.7 3.4-2.6 20.5-15.7 36.4-30.3 44-45.5 1.5-2.9 2.6-5.8 3.4-8.7 3.7-13.7.5-27.5-4-39.4-.1-.3-.2-.5-.3-.8.2.3.3.6.3.8-.1 1.4-4.4 1.5-6.5 2.2m8.5 41.4c.6-1.7 1.2-3.1 1.9-4.3 4.6-8.2 10.9-6.3 17.9-4.4m-4.7-16.9c5.4-21 8.5-30.6 19.6-44.3m-35.4-40.1c16.5 13.1 27.6 29.8 22.9 60.4m.7-24.7c-1.4-13.9-1.9-22.9-1.2-29.8.8-8.3 3.2-13.7 7.6-21.2 2.4-3.6-1.6-8.1-.9-11.7m-18.9-33.6c-4.7 22-3.8 23.4.9 34.2 5.2 10.5 8.2 14.9 11.3 32.2.2.9.3 1.8.5 2.8m-43.4-100.4c-.7 10.1 0 13.7 7.1 22.6 2.4 2.2 1.6-4.4 1.6-6.6-.9-3.6-3.3-7.2-4-11.7-.7 3-2.4 5.2-1.6 8.1.9 3.6 1.6 7.2 4.7 9.5v.8m-10.2 2.6c9.4 2.2 16.5 5.2 23.6 16.1" fill="none" stroke="#019149" stroke-linejoin="round" stroke-miterlimit="1" stroke-width="1.514"/><path d="m219.2 384.4c-.9-2.2 0-5 1.5-7.3 2.4-3.6 4-7.3 5.6-11.7 0 3 1.5 5.8 1.5 8.7-.7.8-.7 2.2-.7 3-.7.8-.7 2.2-1.6 2.8-1.5 1.6-3.8 3-6.2 3.8v.7z" fill="none" stroke="#019149" stroke-linejoin="round" stroke-miterlimit="1" stroke-width="1.514"/><path d="m219.2 384.4c-.9-2.2 0-5 1.5-7.3 2.4-3.6 4-7.3 5.6-11.7 0 3 1.5 5.8 1.5 8.7-.7.8-.7 2.2-.7 3-.7.8-.7 2.2-1.6 2.8-1.5 1.6-3.8 3-6.2 3.8" fill="none" stroke="#019149" stroke-linejoin="round" stroke-miterlimit="1" stroke-width="1.514"/><path d="m219.9 384.4c11.1-5.8 16.5-4.4 21.2-3.6 4 0 7.1 2.2 10.3 2.2 4.7 0 8.5-.8 12.5-.8-4 2.2-7.8 5.2-12.5 6.6-4 1.4-8.7 0-12.7-.8 0 0 0-.6-.7-.6-5.6-2.2-11.8-2.2-18.1-3z" fill="none" stroke="#019149" stroke-linejoin="round" stroke-miterlimit="1" stroke-width="1.514"/><path d="m228.6 347.9c-.9 0-1.6.8-2.4 1.4-.9 0-1.6.8-1.6 1.6 0 .6 0 1.4.7 2.2 2.4 2.8 7.1 4.2 10.3 7.3 1.5 2.2 1.5 4.2.7 6.4 0 1.6 0 3-.7 3.6 0 2.2-.9 3.6-1.6 5.2-.7 1.4-1.6 2.2-2.4 2.8 2.4-1.4 5.4-1.4 7.8-3.6 2.5-2.8 4-6.4 3.3-10.3 0-.6-.7-1.4-.7-1.4-3.3-4.4-8.7-5-13.4-8.1-.9-.6-.9-2-.9-2.8 0-1.3-.7-3.5.9-4.3z" fill="none" stroke="#019149" stroke-linejoin="round" stroke-miterlimit="1" stroke-width="1.514"/><path d="m258.6 356.8c.7-3 0-5.8-1.6-8.9-.7-2.2-2.4-4.4-4.7-6.4-.7-.8-1.6-.8-2.4-.8-2.4 0-4.7-1.4-7.1.8 1.6 0 3.1.6 3.1 2 2.3 5.8 6.3 11.6 12.7 13.3z" fill="none" stroke="#019149" stroke-linejoin="round" stroke-miterlimit="1" stroke-width="1.514"/><path d="m262.4 332.6c-3.1 1.4-3.1 5.8-4.7 9.5-.7 1.4-1.5 3.6-.7 5.8.7 2.2 1.6 3.6 1.6 5.2.7.6 2.4 1.4 2.4 2 .7 0 1.5-.6 1.5-1.4 1.6-2.2 2.4-3.6 3.3-5.8.7-.6 0-1.4.7-2.2 0-.6 0-1.4 0-1.4.7-2.8 0-5-.7-8.1-1.1-1.4-1.8-4.2-3.4-3.6z" fill="none" stroke="#019149" stroke-linejoin="round" stroke-miterlimit="1" stroke-width="1.514"/><path d="m278.9 342c-4.7-.6-8.5 1.4-11.8 3.6-3.1 2.2-5.4 5.8-6.2 9.5 2.4.8 4.7 0 7.1-.6 2.4-1.4 4.7-3 6.2-5.2.9-.6 2.4-1.4 2.4-2.8.8-1.4 1.6-3.6 2.3-4.5z" fill="none" stroke="#019149" stroke-linejoin="round" stroke-miterlimit="1" stroke-width="1.514"/><path d="m252.2 364.6c2.4-.6 2.4-3.6 2.4-5.8-.7 0-.7-.6-.7-.6v-.8h-.9v-.6c-.7-.8-2.4-.8-3.1-2.2 0 1.4-1.6 2.8-1.6 4.2.9.8 0 2.2.9 3 .6 1.4 1.4 3.6 3 2.8z" fill="none" stroke="#019149" stroke-linejoin="round" stroke-miterlimit="1" stroke-width="1.514"/><path d="m252.9 364.6c1.6-1.4 4-2.8 6.4-2 2.4 0 3.1 2 5.4 2.8-1.5.8-3.1.8-4.7 1.4-1.4.8-3.1.8-4.7 0-1.5 0-3.1-.6-2.4-2.2z" fill="none" stroke="#019149" stroke-linejoin="round" stroke-miterlimit="1" stroke-width="1.514"/><path d="m256.9 377.1c1.6-4.4 5.4-5 9.4-5 1.6 0 0 2.8-.7 3.6-.9.6-2.4 1.4-4 1.4s-3-.8-4.7 0z" fill="none" stroke="#019149" stroke-linejoin="round" stroke-miterlimit="1" stroke-width="1.514"/><path d="m256.9 377.1c-2.4 0-4 2.8-2.4 4.4 2.4 1.4 4.7 1.4 6.4.6 1.5-.6.7-2.8 0-4.2 0 0-2.3-.8-4-.8z" fill="none" stroke="#019149" stroke-linejoin="round" stroke-miterlimit="1" stroke-width="1.514"/><path d="m282.9 383.8c-2.4-4.4-2.4-11.1 2.4-13.3 1.6-.6 1.6 1.6 2.4 2.2.9 1.4.9 3.6 0 5.8-.8 2.2-1.6 4.4-4.8 5.3 0 0 .9 0 0 0z" fill="none" stroke="#019149" stroke-linejoin="round" stroke-miterlimit="1" stroke-width="1.514"/><path d="m285.2 384.4c2.4-4.4 8.7-6.4 13.4-4.4v1.6c-.7 2.2-3.1 2.8-4.7 2.8-2.4 1.4-5.4 1.4-7.8.8-.9-.8-1.6-.8-.9-.8z" fill="none" stroke="#019149" stroke-linejoin="round" stroke-miterlimit="1" stroke-width="1.514"/><path d="m285.2 388c-.7.8-.7 3 0 4.4.9 1.4 1.6 2.2 3.3 2.8.7.8 3.1 1.6 3.8 0 1.7-3.6-2.3-10-7.1-7.2z" fill="none" stroke="#019149" stroke-linejoin="round" stroke-miterlimit="1" stroke-width="1.514"/><path d="m282.9 388.8c-4 2.2-4.7 8.7-.7 11.7 2.4-.8 3.1-3 3.1-5.2.8-2.1.8-5.9-2.4-6.5z" fill="none" stroke="#019149" stroke-linejoin="round" stroke-miterlimit="1" stroke-width="1.514"/><path d="m281.2 386.6c-2.4-.8-3.8-2.2-6.2-2.2-.9.8-2.4.8-3.3.8-3.1 2.2-5.4 3.6-7.1 6.4 4 2.2 9.4 1.6 13.4-.6 1.6-.8 4-2.2 2.4-4.4z" fill="none" stroke="#019149" stroke-linejoin="round" stroke-miterlimit="1" stroke-width="1.514"/><path d="m282.2 384.4c0-6.4-6.4-10.9-12.7-10.9v4.4c0 1.4 1.6 2.8 2.4 3.6 1.6 1.4 3.3 2.2 4.7 2.8 2.3.9 3.9.1 5.6.1z" fill="none" stroke="#019149" stroke-linejoin="round" stroke-miterlimit="1" stroke-width="1.514"/><path d="m286.9 385.8c0-.6 0-1.4-.7-2-1.6-.8-3.3-.8-4 .6-.9 0-.9 1.4-.9 2.2s1.6 1.4 2.5 1.4c0 .8 1.5.8 2.4 0 .7 0 .7-1.4.7-2.2z" fill="none" stroke="#019149" stroke-linejoin="round" stroke-miterlimit="1" stroke-width="1.514"/><path d="m268 366.2c.7 0 1.5-.8 2.4-1.6 1.5-1.4 3.1-2.8 4.7-4.2 4.7-7.3 7.1-16.1 14.9-20.6-.7 1.6-1.4 3.6-2.4 5.2v2.2c-.7 1.4-1.5 3.6-1.5 5.8-.9 2.8-1.6 5-4.9 6.4-2.4 1.4-3.8 2.2-7.1 3-1.5.6-3.1 2-5.4 2.8z" fill="none" stroke="#019149" stroke-linejoin="round" stroke-miterlimit="1" stroke-width="1.514"/><path d="m268 366.2c.7 0 1.5-.8 2.4-1.6 1.5-1.4 3.1-2.8 4.7-4.2 4.7-7.3 7.1-16.1 14.9-20.6-.7 1.6-1.4 3.6-2.4 5.2v2.2c-.7 1.4-1.5 3.6-1.5 5.8-.9 2.8-1.6 5-4.9 6.4-2.4 1.4-3.8 2.2-7.1 3-1.5.6-3.1 2-5.4 2.8" fill="none" stroke="#019149" stroke-linejoin="round" stroke-miterlimit="1" stroke-width="1.514"/><path d="m336.4 355.9c-.7 1.4-3.1 1.4-4.7 2.2-10.2.6-19.6-1.4-30-.8-1.5 0-3.1.8-4.7.8-4.7 1.4-9.4 3.6-14.2 5.8 8.7 0 17.4.6 26 0 4 0 7.1-.8 11.1-1.4 3.1-.8 7.1-2.2 10.3-3.8 1.5 0 3.8-.6 4.7-2z" fill="none" stroke="#019149" stroke-linejoin="round" stroke-miterlimit="1" stroke-width="1.514"/><path d="m336.4 355.9c-.7 1.4-3.1 1.4-4.7 2.2-10.2.6-19.6-1.4-30-.8-1.5 0-3.1.8-4.7.8-4.7 1.4-9.4 3.6-14.2 5.8 8.7 0 17.4.6 26 0 4 0 7.1-.8 11.1-1.4 3.1-.8 7.1-2.2 10.3-3.8 1.5 0 3.8-.6 4.7-2" fill="none" stroke="#019149" stroke-linejoin="round" stroke-miterlimit="1" stroke-width="1.514"/><path d="m352.2 360.4c-3.1 0-5.4-.8-7.8 0-5.6 1.4-11.1 5.8-12.7 10.9 5.6.8 10.3-.8 15.1-4.4 1.5-1.4 2.4-2.8 3.8-5 0-.8 0-1.4 0-2.2z" fill="none" stroke="#019149" stroke-linejoin="round" stroke-miterlimit="1" stroke-width="1.514"/><path d="m352.2 360.4c-3.1 0-5.4-.8-7.8 0-5.6 1.4-11.1 5.8-12.7 10.9 5.6.8 10.3-.8 15.1-4.4 1.5-1.4 2.4-2.8 3.8-5 0-.8 0-1.4 0-2.2" fill="none" stroke="#019149" stroke-linejoin="round" stroke-miterlimit="1" stroke-width="1.514"/><path d="m336.4 391.6c-3.8-4.2-9.4-10.1-7.1-16.7.9-2.2 2.4-5 4.7-3.6 4.7 2.8 5.6 8.7 4.7 13.1 0 2.2-.7 3.6-.7 5 0 .8-.7 1.6-.7 2.2z" fill="none" stroke="#019149" stroke-linejoin="round" stroke-miterlimit="1" stroke-width="1.514"/><path d="m357.7 380.7c-3.1-5.8-10.2-9.5-17.2-10.9-3.1-.8-5.4 0-7.1 1.4 4.7 6.7 14.8 11.7 24.3 9.5z" fill="none" stroke="#019149" stroke-linejoin="round" stroke-miterlimit="1" stroke-width="1.514"/><path d="m336.4 346.5c.9-2.2 1.6-4.4 4-5 2.4-2.2 6.4-1.6 9.4-3-.7 5.8-7.7 8-13.4 8z" fill="none" stroke="#019149" stroke-linejoin="round" stroke-miterlimit="1" stroke-width="1.514"/><path d="m352.9 353.7c-.7 0-1.5 0-1.5 0-1.6-1.4-3.3-2.2-4.7-4.4-.9-.6-2.4-2-3.3-2-3.1-.8-6.2-2.2-8.5 0v.6c4.7 3.6 10.9 5.8 17.2 5.8z" fill="none" stroke="#019149" stroke-linejoin="round" stroke-miterlimit="1" stroke-width="1.514"/><path d="m352.9 353.7c-.7 0-1.5 0-1.5 0-1.6-1.4-3.3-2.2-4.7-4.4-.9-.6-2.4-2-3.3-2-3.1-.8-6.2-2.2-8.5 0v.6c4.7 3.6 10.9 5.8 17.2 5.8" fill="none" stroke="#019149" stroke-linejoin="round" stroke-miterlimit="1" stroke-width="1.514"/><path d="m368 347.3c3.1 4.2 5.4 13.7 0 16.7-.7.6-1.6-.8-2.4-2.2s-2.4-6.6-1.6-8.7c.9-2.2 1.6-5.2 4-6.6z" fill="none" stroke="#019149" stroke-linejoin="round" stroke-miterlimit="1" stroke-width="1.514"/><path d="m366.4 346.5c-3.1 5-9.4 8.1-14.9 5.8-.9 0-.9-1.4 0-1.4.7-2.2 3.1-4.4 5.4-5.2 2.4-1.4 5.4 0 8 0 .8 0 1.5.8 1.5.8z" fill="none" stroke="#019149" stroke-linejoin="round" stroke-miterlimit="1" stroke-width="1.514"/><path d="m364.9 342.9c1.5-.8.7-3.6 0-5.8-.9-.8-2.5-2.2-4-2.2-.9-.8-8-3.6-8-2.2-1.4 4.3 8 13 12 10.2z" fill="none" stroke="#019149" stroke-linejoin="round" stroke-miterlimit="1" stroke-width="1.514"/><path d="m367.3 342c4.7-3.6 10.9-8.1 3.8-15.3-2.4 1.4-4.7 4.4-4.7 7.3-.7 2.2-2.4 6.6.9 8z" fill="none" stroke="#019149" stroke-linejoin="round" stroke-miterlimit="1" stroke-width="1.514"/><path d="m368.7 343.5c2.4.8 4.7 2.2 7.1 1.6.9 0 6.4.6 7.1 0 4-2.2 4.7-2.2 6.4-5.2-4.7-1.4-13.4-4.2-18.2-1.4-1.5.8-3.1 3-1.5 5-.9 0-.9 0-.9 0z" fill="none" stroke="#019149" stroke-linejoin="round" stroke-miterlimit="1" stroke-width="1.514"/><path d="m368.7 346.5c1.6 6.6 10.3 10.3 17.4 10.3 0-2.2 0-3.6-.9-5.2 0-2.2-1.5-2.8-2.4-4.2-1.5-.8-6.2-.8-7.8-1.6-2.3-.1-3.9-.1-6.3.7z" fill="none" stroke="#019149" stroke-linejoin="round" stroke-miterlimit="1" stroke-width="1.514"/><path d="m364 345.1c0 .6 0 2.2.9 2.2 1.5.6 3.8.6 4.7-.8 0-.8.7-1.4 0-3 0-.6-1.6-.6-2.4-1.4-.9-.6-1.6 0-2.4 0-1.5.8-.8 1.4-.8 3z" fill="none" stroke="#019149" stroke-linejoin="round" stroke-miterlimit="1" stroke-width="1.514"/><path d="m342.1 315.9c1.4-5 1.4-12.5-4.7-13.9-3.3 2.2-3.3 6.7-1.6 9.5.7 1.4 2.4 3.6 4 4.4 1.5 0 2.4-.8 3.1-1.4z" fill="none" stroke="#019149" stroke-linejoin="round" stroke-miterlimit="1" stroke-width="1.514"/><path d="m342.1 315.9c1.4-5 1.4-12.5-4.7-13.9-3.3 2.2-3.3 6.7-1.6 9.5.7 1.4 2.4 3.6 4 4.4 1.5 0 2.4-.8 3.1-1.4" fill="none" stroke="#019149" stroke-linejoin="round" stroke-miterlimit="1" stroke-width="1.514"/><path d="m354.6 309.2c-2.4-.6-4-.6-5.4-.6-2.4 0-3.3 2.2-4.7 2.8-1.6 1.4-3.3 3-2.4 4.4.7 1.4 3.8 1.4 5.4.8 3.1-1.6 7.1-4.4 5.4-8.1z" fill="none" stroke="#019149" stroke-linejoin="round" stroke-miterlimit="1" stroke-width="1.514"/><path d="m354.6 309.2c-2.4-.6-4-.6-5.4-.6-2.4 0-3.3 2.2-4.7 2.8-1.6 1.4-3.3 3-2.4 4.4.7 1.4 3.8 1.4 5.4.8 3.1-1.6 7.1-4.4 5.4-8.1" fill="none" stroke="#019149" stroke-linejoin="round" stroke-miterlimit="1" stroke-width="1.514"/><path d="m395.6 281.6c-.9-.8-1.6 0-1.6.6-3.1 2.2-6.4 4.4-8.7 8.1-3.1 3-6.2 4.4-9.4 6.6-.7 0-.7 1.4-.7 1.4-7.1 4.4-14.2 6.7-19.8 12.5-.7.6-2.4 1.4-3.1 2.8-1.6 3-2.4 5-4 8.1 0 0 0 .8.9 1.4 3.8-3.6 7.8-7.3 13.2-10.3 3.3-2 6.4-2.8 8.7-5 3.3-2.8 7.1-5 10.3-8.7 3.8-5.8 7.8-10.3 11.8-16.1.8-.8 1.5-.8 2.4-1.4z" fill="none" stroke="#019149" stroke-linejoin="round" stroke-miterlimit="1" stroke-width="1.514"/><path d="m327 339.2c44.1-16.1 37.9-30.6 34.7-44.5.7.8.7.8.7.8 3.3-2.2 4.9-5.2 6.4-8.9 1.6-3.6.9-8.1 0-11.7-7.8 3-10.2 13.9-6.4 20.6 0 0 0 0 0-.8-.7-3.6-7.8-2.2-11.8-4.4" fill="none" stroke="#019149" stroke-linejoin="round" stroke-miterlimit="1" stroke-width="1.514"/><path d="m341.1 288.1c8-3.6 17.4 1.6 22.1 7.5-7.9 1.3-16.4-1.7-22.1-7.5z" fill="none" stroke="#019149" stroke-linejoin="round" stroke-miterlimit="1" stroke-width="1.514"/><path d="m360.9 294.7c-.9.8-.9 0-1.6-.8-1.6-2-3.1-4.2-4.7-7.3-.7-1.4-1.6-3.6-2.4-5-.7-3.6.7-7.3 1.6-10.3.7-.6 1.5.8 1.5.8 3.3 4.2 5.6 8.1 7.1 11.7 1.6 3.6 1.6 7.3 0 10.9-.7 0-.7 0-1.5 0z" fill="none" stroke="#019149" stroke-linejoin="round" stroke-miterlimit="1" stroke-width="1.514"/><path d="m388.5 333.4c.7-1.4.7-3 2.4-3.6 2.4-3 5.4-4.4 8.5-7.2 1.6-1.6 3.3-3.8 4-5.8 1.6-2.2 1.6-4.4-.7-6.6-4.7-3.6-12.7-.8-18.2 2.2-5.4 3.6-11.1 6.4-16.5 10.3-10.3 6.4-18.9 12.3-30 15.9-3.1.8-6.4.8-10.2 1.4 5.4-2 9.4-3.6 14.2-6.4 3.1-1.4 7.1-3 10.2-5.2 7.1-7.2 15.1-13.7 23.6-18.1 5.6-2.2 6.4-4.4 11.1-6.6 3.1-.6 4.7-1.4 6.4-2 2.4 0 4.7 0 6.2 1.4 1.6 2.2 3.3 3.6 4 5.8.7 2.8 0 5.8-3.1 7.2-.9.8-2.4 2.2-3.3 2.8-3.8 3-8.5 3.8-10.2 8.1-.7 2-.7 5 1.6 6.4z" fill="none" stroke="#019149" stroke-linejoin="round" stroke-miterlimit="1" stroke-width="1.514"/><path d="m360.9 253.8c2.4 3 4.7 5.8 7.8 8.9 2.4 2.2 3.3 4.2 4.7 7.3.9 1.4 3.3 5.8 3.3 8.1.7 5-1.6 8.7-2.4 13.9-.9-2.2.7-4.4 0-7.4-.9-5.8-4.7-9.5-8-14.5-.7-1.4-1.5-3.6-3.1-5-1.6-2.2-1.6-4.4-1.6-6.6-.7 0-1.6 0-1.6-.8-.7-1.4-.7-2.8 0-3.6 0-.9.9-.9.9-.3z" fill="none" stroke="#019149" stroke-linejoin="round" stroke-miterlimit="1" stroke-width="1.514"/><path d="m411.4 269.1c-4.7-.6-8.7.8-13.4 3.6-3.3 1.6-4.7 4.4-4.7 8.1 3.8.8 7.1 0 10.2-2.2 3.3-2.2 6.4-5.8 6.4-9.5z" fill="none" stroke="#019149" stroke-linejoin="round" stroke-miterlimit="1" stroke-width="1.514"/><path d="m411.4 269.1c-4.7-.6-8.7.8-13.4 3.6-3.3 1.6-4.7 4.4-4.7 8.1 3.8.8 7.1 0 10.2-2.2 3.3-2.2 6.4-5.8 6.4-9.5" fill="none" stroke="#019149" stroke-linejoin="round" stroke-miterlimit="1" stroke-width="1.514"/><path d="m402.7 296.1c-4.7-.6-8.7-6.4-8-10.9 0-1.4 0-3.6 2.4-4.4.9 0 1.6.8 3.3 1.4.7.8 1.5 2.2 1.5 3 .9.8.9 1.4.9 2.8.7 3 0 5.8-.9 8.9z" fill="none" stroke="#019149" stroke-linejoin="round" stroke-miterlimit="1" stroke-width="1.514"/><path d="m402.7 296.1c-4.7-.6-8.7-6.4-8-10.9 0-1.4 0-3.6 2.4-4.4.9 0 1.6.8 3.3 1.4.7.8 1.5 2.2 1.5 3 .9.8.9 1.4.9 2.8.7 3 0 5.8-.9 8.9" fill="none" stroke="#019149" stroke-linejoin="round" stroke-miterlimit="1" stroke-width="1.514"/><path d="m418.5 287.4c-1.6-2.2-3.3-5.8-5.6-6.6-3.8-2.2-8.7-3.6-12.5-2.2-1.6.8-4 1.6-4.7 3 2.4.6 3.1 2.2 5.4 3.6 1.6 1.4 3.1 1.4 4.7 2.2 4 1.5 8.7 2.9 12.7 0z" fill="none" stroke="#019149" stroke-linejoin="round" stroke-miterlimit="1" stroke-width="1.514"/><path d="m379.1 258.2c-.9-5 .7-10.9 6.2-11.7 1.6 5-1.5 10.9-6.2 13.9 0-.8 0-1.4 0-2.2z" fill="none" stroke="#019149" stroke-linejoin="round" stroke-miterlimit="1" stroke-width="1.514"/><path d="m372 251c3.1-.8 6.2-.8 7.1 2.2 1.4 2.2 1.4 5 .7 7.2-.7.6-4 0-4.7-1.4-2.4-2.2-1.6-5.2-3.1-8z" fill="none" stroke="#019149" stroke-linejoin="round" stroke-miterlimit="1" stroke-width="1.514"/><path d="m427.9 232c-4 .6-7.1 2.8-11.1 4.2-2.4.8-4.7 3-6.4 5.2-6.4 4.2-11.8 8.1-16.5 13.1-.7 1.4-2.4 2.2-2.4 4.4 0 0-.7 0-.7.6-4.7 5.8-6.4 13.1-8.7 19.7 9.4-5 14.2-13.9 20.5-22.6 4.7-5.8 9.4-10.3 14.2-14.7 0-.6 1.6-.6 1.6-.6 3.2-3.4 6.3-6.4 9.5-9.3z" fill="none" stroke="#019149" stroke-linejoin="round" stroke-miterlimit="1" stroke-width="1.514"/><path d="m383.8 275.8c1.5-.8 3.1-2.2 3.8-3.6.9-1.4 1.6-2.2 2.4-3.6 2.4-7.5 2.4-16.1 10.3-20.6 4.7-2.8 11.1-3.6 16.5-1.4 4 1.4 4.7 5.8 4 10.3-.9 3.6-3.3 6.4-7.1 8.1 1.5-3 2.4-6.6 3.1-9.5 0-.8 0-1.6 0-2.2 1.6-2.2 3.1-5.8.7-7.5-10.2-8.7-23.6 0-30.7 8.9-.7.8-1.6 2.2-1.6 3.6-.7 5.8-7.8 15.3-6.2 20.3z" fill="none" stroke="#019149" stroke-linejoin="round" stroke-miterlimit="1" stroke-width="1.514"/><path d="m373.5 239.3c4.7-5 12.7-4.4 18.2-3 0 3.8-4 5.8-7.1 5.8-4 .8-7.8 1.6-11.1-1.4 0 0 0-.6 0-1.4z" fill="none" stroke="#019149" stroke-linejoin="round" stroke-miterlimit="1" stroke-width="1.514"/><path d="m358.6 249.6c.7 0 2.4-.8 2.4-1.6 2.4-2.8 4-6.4 7.8-7.9 1.6 0 3.3 0 4.7.6v.8c0 .6.9 0 .9 0 0 .6.7 1.4 0 2.2-2.4 3.6-7.1 4.2-12 4.2-.7.9-3.1.9-3.8 1.7z" fill="none" stroke="#019149" stroke-linejoin="round" stroke-miterlimit="1" stroke-width="1.514"/><path d="m383.8 215.1c-4.7 3.8-8 8.1-8.7 13.3-.7 3.6-2.4 7.9-.7 11.7 3.1-2.2 6.2-5.2 7.1-8.1.7-1.6 1.5-3.6 2.4-5.2 0 0 0-.6 0-1.4 0-.6.7-.6.7-1.4-.8-3 .7-5.9-.8-8.9z" fill="none" stroke="#019149" stroke-linejoin="round" stroke-miterlimit="1" stroke-width="1.514"/><path d="m351.5 232.6c4.7-1.4 10.2-.6 14.9 1.6 3.3 1.4 10.3 2.8 8 6.4-1.6 2.2-4.7 1.4-7.1.8-4-.8-8-3-12-5.8-.7-.8-1.5-2.2-3.1-3z" fill="none" stroke="#019149" stroke-linejoin="round" stroke-miterlimit="1" stroke-width="1.514"/><path d="m351.5 232.6c4.7-1.4 10.2-.6 14.9 1.6 3.3 1.4 10.3 2.8 8 6.4-1.6 2.2-4.7 1.4-7.1.8-4-.8-8-3-12-5.8-.7-.8-1.5-2.2-3.1-3" fill="none" stroke="#019149" stroke-linejoin="round" stroke-miterlimit="1" stroke-width="1.514"/><path d="m362.4 211.5c2.5 2.2 4.9 4.4 6.4 7.5 3.3 2.8 4.7 6.4 6.4 10.1.7 3.6 1.6 8.1-.7 11.7-.9 0-1.6 0-1.6 0-1.6-.6-2.4-1.4-2.4-3.6h-1.6c-2.4-4.4-4.7-9.5-6.4-13.9-.8-4.4-.1-8.2-.1-11.8z" fill="none" stroke="#019149" stroke-linejoin="round" stroke-miterlimit="1" stroke-width="1.514"/><path d="m373.5 192.6c8 6.6 15.1 13.9 20.5 22.6 4 7.5 4 15.3 3.1 23.4 0 0-.7 0-.7.8-.7 1.4-.7 3.6-1.6 5.8 0-4.4.9-8.1 0-12.5-.7-1.4-.7-2.8-.7-4.2-.7-3.6-2.4-7.5-4-11.1-.7-2.2-2.4-4.2-3.8-6.4-3.3-3.6-4.7-5.8-8-8.9-3.2-2.3-3.2-6.5-4.8-9.5z" fill="none" stroke="#019149" stroke-linejoin="round" stroke-miterlimit="1" stroke-width="1.514"/><path d="m423.2 173.6c-.9 5.8-6.4 9.5-10.3 13.1-1.5 1.6-2.4 3-3.8 4.4-3.3 4.4-5.6 8.7-8 13.9-1.6 2.2-1.6 4.4-2.4 6.4-.7 3-.7 11.1-.7 13.9.7-.6 1.5-3.6 1.5-5l1.6-2.2c.7-.8 0-2.2.7-3 0-.6 0-1.4.9-2.8 0-.8 0-1.4.7-2.8 0-.8.7-1.6 1.6-2.2 3.1-9.5 11.1-16.9 16.5-25.6 1.7-2.2 1.7-5.1 1.7-8.1z" fill="none" stroke="#019149" stroke-linejoin="round" stroke-miterlimit="1" stroke-width="1.514"/><path d="m414.5 212.3c-.7-1.4-1.6-3.6-.7-5 .7-3.6 4.7-5.8 7.8-8.1.7 0 1.6-.8 2.4 0 4 4.4.7 10.9-4 14.5-1.5.8-3.9 0-5.5-1.4z" fill="none" stroke="#019149" stroke-linejoin="round" stroke-miterlimit="1" stroke-width="1.514"/><g clip-path="url(#c)"><path d="m418.5 213.1c3.8-3.6 9.4-1.6 12.5 1.4.7 1.4-1.6 1.4-2.4 2.2-3.1.6-7.1.6-10.2 0-1.6-.8-.8-3 .1-3.6z" fill="none" stroke="#019149" stroke-linejoin="round" stroke-miterlimit="1" stroke-width="1.514"/></g><path d="m425.6 229c0-1.4 0-3.6 0-5-.9-.8-1.6-2.2-1.6-3-2.4-2-4.7-7.3-7.8-4.2-.9.6-1.6 2.2-.9 3.6 1.6 2.8 4 7.3 8.7 8.1-.1-.1.7.5 1.6.5z" fill="none" stroke="#019149" stroke-linejoin="round" stroke-miterlimit="1" stroke-width="1.514"/><path d="m412.1 216.7c-5.4.6-7.1 6.4-6.4 10.9 0 0 .9.8.9 1.4 0 0 0 0 .7.8 1.6.6 2.4-.8 3.1-2.2 2.4-2.8 4.7-7.3 2.4-10.9.1-.8.1 0-.7 0z" fill="none" stroke="#019149" stroke-linejoin="round" stroke-miterlimit="1" stroke-width="1.514"/><path d="m396.3 213.7c.7-.6 1.6-2.2 2.4-2.2 4 0 8-1.4 11.8 1.6 1.6.6 2.4 2.8.9 2.8-4 3-10.3 0-14.3-2.8z" fill="none" stroke="#019149" stroke-linejoin="round" stroke-miterlimit="1" stroke-width="1.514"/><path d="m396.3 213.7c.7-.6 1.6-2.2 2.4-2.2 4 0 8-1.4 11.8 1.6 1.6.6 2.4 2.8.9 2.8-4 3-10.3 0-14.3-2.8" fill="none" stroke="#019149" stroke-linejoin="round" stroke-miterlimit="1" stroke-width="1.514"/><path d="m415.2 209.5c0-.8 0-1.6 0-3-1.5-1.4-2.4-3.6-3.8-5-.9-1.6-1.6-3-2.4-3-2.4 0-3.3 4.4-2.4 6.7.7 2.8 2.4 8.1 7.1 7.2.8-.1 1.5-1.5 1.5-2.9z" fill="none" stroke="#019149" stroke-linejoin="round" stroke-miterlimit="1" stroke-width="1.514"/><path d="m417.6 212.3c-2.4-.8-3.8-1.4-5.4 0-.7.8-.7 1.4-.7 2.2.7 1.4 1.5 2.2 2.4 2.8 1.5.8 3.1.8 3.8 0 0-2.2 1.6-5-1.5-5.8z" fill="none" stroke="#019149" stroke-linejoin="round" stroke-miterlimit="1" stroke-width="1.514"/><path d="m417.6 212.3c-2.4-.8-3.8-1.4-5.4 0-.7.8-.7 1.4-.7 2.2.7 1.4 1.5 2.2 2.4 2.8 1.5.8 3.1.8 3.8 0 0-2.2 1.6-5-1.5-5.8" fill="none" stroke="#019149" stroke-linejoin="round" stroke-miterlimit="1" stroke-width="1.514"/><path d="m364.9 158.3c1.5.8 3.8 2.2 5.4 3 .7.6 1.6 2.2 2.4 3.6 0 .6 0 2.2.7 2.8 0 1.4 0 3.6-.7 5.2-3.1-.8-5.4-3.8-7.1-5.8-1.6-3-1.6-5.8-.7-8.8z" fill="none" stroke="#019149" stroke-linejoin="round" stroke-miterlimit="1" stroke-width="1.514"/><path d="m384.5 161.9c-4.7 0-8.7 4.4-10.2 8.1 0 1.4 0 3 .7 3.6 1.6 1.4 4.7-.6 6.4-2.8 2.4-2.2 4.8-5.2 3.1-8.9z" fill="none" stroke="#019149" stroke-linejoin="round" stroke-miterlimit="1" stroke-width="1.514"/><path d="m391.6 178.9c-3.1-5.2-11.1-8.9-16.5-4.4-.7.6.7 2.2 1.6 2.8 3.8 3.6 10.2 4.4 14.9 1.6z" fill="none" stroke="#019149" stroke-linejoin="round" stroke-miterlimit="1" stroke-width="1.514"/><path d="m382.2 188.9c0-2.2 1.6-5.8-.7-8.1-1.6-2-5.6-4.2-7.1-1.4-1.7 3.7 3.1 8.1 7.8 9.5z" fill="none" stroke="#019149" stroke-linejoin="round" stroke-miterlimit="1" stroke-width="1.514"/><path d="m362.4 187.5c1.6-2.2 1.6-5 2.5-6.6.7-2 2.4-3.6 5.4-4.2 1.6 0 4 0 4 2.8 0 .8.7.8.7.8v1.4c-3.9 2.8-7.7 5-12.6 5.8z" fill="none" stroke="#019149" stroke-linejoin="round" stroke-miterlimit="1" stroke-width="1.514"/><path d="m356.9 173.6c1.6-.6 2.4-2.2 3.1-2.8 2.4-1.6 5.6-.8 8 0 1.6.6 4 2.2 4.7 3.6s-.7 2.2-2.4 2.8c-4.7.8-10.4-.6-13.4-4.2z" fill="none" stroke="#019149" stroke-linejoin="round" stroke-miterlimit="1" stroke-width="1.514"/><path d="m376.7 173c-.9 0 0-.8 0-.8-1.6-.8-2.4-.8-4 0 0 0-.7.8-1.6.8 0 .6-.7 1.4-.7 2.8.7 2.2 3.1 3 4.7 1.4 2.4-.6 3.1-2.8 1.6-4.2z" fill="none" stroke="#019149" stroke-linejoin="round" stroke-miterlimit="1" stroke-width="1.514"/><path d="m410.5 170c-.7 0-1.4.8-2.4 1.4-1.5 1.6-4 1.6-6.4 5.2-1.5 2.2-1.5 4.2-2.4 6.4-2.4 3.6-1.5 7.3-2.4 11.1-.7 2-.7 4.2 0 5.6 0 .8 0 2.2.9 3 0 .8 0 1.4.7 2.2v.6c.7-3.6 0-7.9 1.6-11.5 2.4-8.9 3.8-17.5 8.7-24.2h1.7z" fill="none" stroke="#019149" stroke-linejoin="round" stroke-miterlimit="1" stroke-width="1.514"/><path d="m410.5 170c-.7 0-1.4.8-2.4 1.4-1.5 1.6-4 1.6-6.4 5.2-1.5 2.2-1.5 4.2-2.4 6.4-2.4 3.6-1.5 7.3-2.4 11.1-.7 2-.7 4.2 0 5.6 0 .8 0 2.2.9 3 0 .8 0 1.4.7 2.2v.6c.7-3.6 0-7.9 1.6-11.5 2.4-8.9 3.8-17.5 8.7-24.2" fill="none" stroke="#019149" stroke-linejoin="round" stroke-miterlimit="1" stroke-width="1.514"/><path d="m404.1 162.7c-3.8-4.4-3.8-9.5-3.8-15.3.7-2.2 1.5-4.4 3.8-6.6 8.8 5.2 2.6 15.3 0 21.9z" fill="none" stroke="#019149" stroke-linejoin="round" stroke-miterlimit="1" stroke-width="1.514"/><path d="m405.8 162.7c4-1.4 7.1 0 11.1.8 1.6 0 3.1.6 4.7 2 .7 1.6 2.4 3 2.4 5.2-4-.8-7.8 0-11.1-2.2-3.1-1.3-6.2-2.9-7.1-5.8z" fill="none" stroke="#019149" stroke-linejoin="round" stroke-miterlimit="1" stroke-width="1.514"/><path d="m404.1 161.9c1.6 1.6 4 .8 5.6 0 4.7-2.2 7.8-5 11.1-9.5.7-1.4 1.4-3.6.7-4.4-2.4-1.4-5.4-.6-7.8.8-1.6 1.4-3.3 2.2-4.7 3.6 0 .8-.9.8-1.6.8 0 .6-.7 2.2-1.6 2.8-.8 1.7 0 4.5-1.7 5.9 2.5-2.8 8-4.2 9.6-8.1z" fill="none" stroke="#019149" stroke-linejoin="round" stroke-miterlimit="1" stroke-width="1.514"/><path d="m404.1 161.9c1.6 1.6 4 .8 5.6 0 4.7-2.2 7.8-5 11.1-9.5.7-1.4 1.4-3.6.7-4.4-2.4-1.4-5.4-.6-7.8.8-1.6 1.4-3.3 2.2-4.7 3.6 0 .8-.9.8-1.6.8 0 .6-.7 2.2-1.6 2.8-.8 1.7 0 4.5-1.7 5.9 2.5-2.8 8-4.2 9.6-8.1" fill="none" stroke="#019149" stroke-linejoin="round" stroke-miterlimit="1" stroke-width="1.514"/><path d="m398 121.2c-.9 2-.9 5-1.6 7.3-3.1 8.1-4 15.9-4.7 24.8-.7 3.6-.7 7.2.7 10.9 0-6.4.9-13.1 3.3-18.9.7-.8 0-1.4.7-2.2 2.4-3.6 2.4-8.1 4-12.3.7-3-.9-6.6-1.6-9.5h-.8z" fill="none" stroke="#019149" stroke-linejoin="round" stroke-miterlimit="1" stroke-width="1.514"/><path d="m356.9 124.1c0 1.4.7 2.2 1.6 3 3.1 2.8 7.8 4.2 11.8 5.6 5.4 2.2 8.7 6.6 11.8 11.1 3.1 4.2 5.4 8.1 7.1 13.1-3.1-5-7.8-7.2-12.5-10.9-.9-.8 0-1.6-.9-2.2-4.7-4.4-10.9-7.3-14.9-11.7-2.3-2.2-4-5-4-8z" fill="none" stroke="#019149" stroke-linejoin="round" stroke-miterlimit="1" stroke-width="1.514"/><path d="m379.8 134.9c-1.6-4.2-4.7-7.2-7.1-10.9-2.4-2.8-6.4-2.8-9.4-3.6 3.1 4.4 7.8 7.3 11.8 10.3.7.6 1.6 1.4 3.1 1.4 0 1.4 1.6 1.4 1.6 2.8z" fill="none" stroke="#019149" stroke-linejoin="round" stroke-miterlimit="1" stroke-width="1.514"/><path d="m364.9 89.8c.7 0 1.5 1.4 2.4 1.4 3.8 3.6 4.7 8.9 7.8 13.9 1.6 1.4 1.6 3.6 2.4 6.7 1.6 6.4.7 13.1.7 19.5.9-.6 0-1.4-.7-2.2-.7-1.4-1.6-2-3.1-3.6-.9-.6-1.6-2.8-1.6-4.2-2.4-8.1-3.1-16.1-4.7-24.8-.8-2.3-1.7-4.5-3.2-6.7z" fill="none" stroke="#019149" stroke-linejoin="round" stroke-miterlimit="1" stroke-width="1.514"/><path d="m330.3 88.4c1.5.6 2.4 2.2 3.8 2.2 3.3 0 6.4 1.4 9.4 1.4 2.4.6 4 1.4 5.6 2.8 5.4 4.4 10.9 8.9 13.2 14.7-1.4-3.6-5.4-5.2-8.5-6.6-7.1-5-15.1-8.1-21.2-13.1z" fill="none" stroke="#019149" stroke-linejoin="round" stroke-miterlimit="1" stroke-width="1.514"/><path d="m330.3 88.4c1.5.6 2.4 2.2 3.8 2.2 3.3 0 6.4 1.4 9.4 1.4 2.4.6 4 1.4 5.6 2.8 5.4 4.4 10.9 8.9 13.2 14.7-1.4-3.6-5.4-5.2-8.5-6.6-7.1-5-15.1-8.1-21.2-13.1" fill="none" stroke="#019149" stroke-linejoin="round" stroke-miterlimit="1" stroke-width="1.514"/><path d="m341.1 75.3c0 .6.9 1.4.9 2 2.4 1.6 4.7 3.8 5.4 6.6 0 3.6 1.6 7.3 3.1 10.3.9.6 1.6 2.2 1.6 2.8-.7-.6-2.4-2.2-4-2.8-2.4-2.2-4.7-3.6-6.2-6.6-1.5-3.6.2-8.1-.8-12.3z" fill="none" stroke="#019149" stroke-linejoin="round" stroke-miterlimit="1" stroke-width="1.514"/><path d="m386.2 107.9c-3.3-2-4-5-3.3-7.9 0-.8.9-1.6.9-2.2.7-.8 1.5-1.4 1.5-3 .9-.6.9.8 1.6 0 .7 2.2 2.4 3.6 3.1 5.2.9 2 0 4.2-.7 5.8 0 2-1.6 2.8-3.1 2.8z" fill="none" stroke="#019149" stroke-linejoin="round" stroke-miterlimit="1" stroke-width="1.514"/><path d="m386.2 107.9c-3.3-2-4-5-3.3-7.9 0-.8.9-1.6.9-2.2.7-.8 1.5-1.4 1.5-3 .9-.6.9.8 1.6 0 .7 2.2 2.4 3.6 3.1 5.2.9 2 0 4.2-.7 5.8 0 2-1.6 2.8-3.1 2.8" fill="none" stroke="#019149" stroke-linejoin="round" stroke-miterlimit="1" stroke-width="1.514"/><path d="m399.4 101.5c-1.5 0-3.1-.8-4.7 0-2.4 1.4-5.4 3.6-5.4 6.4 0 1.6 1.6 2.2 2.4 1.6.7 0 1.6-.8 2.4 0 .7 0 1.6-1.6 1.6-1.6 1.4-2 2.4-4.2 3.1-7.3.6.9.6.9.6.9z" fill="none" stroke="#019149" stroke-linejoin="round" stroke-miterlimit="1" stroke-width="1.514"/><path d="m402.7 117.4c-1.6-1.4-2.4-3.6-4-5-2.4-1.4-5.4-2.2-7.8-1.4-.9 0-1.6.8-1.6 1.4.7 3 2.4 5 4.7 5.8 3.1 0 5.4-.8 8.7-.8z" fill="none" stroke="#019149" stroke-linejoin="round" stroke-miterlimit="1" stroke-width="1.514"/><path d="m390 125.5c-.7-1.4.9-2.2 1.6-2.8 0-2.2 0-4.4 0-5.8s-.7-4.4-2.4-3.6c-6.3 1.3-1.6 8.5.8 12.2z" fill="none" stroke="#019149" stroke-linejoin="round" stroke-miterlimit="1" stroke-width="1.514"/><path d="m373.5 119c2.4-3.6 5.6-6.6 9.4-8.1 3.3-1.4 4.7 2.8 3.3 5-2.4 3.6-8.7 3.6-12.7 2.2z" fill="none" stroke="#019149" stroke-linejoin="round" stroke-miterlimit="1" stroke-width="1.514"/><path d="m372.7 104.3c4.7-2.2 9.4 0 12.5 3 .9.6 1.6 2.8 0 3.6-1.5.8-3.8.8-5.4 0-3.1-.8-5.4-3-7.1-5z" fill="none" stroke="#019149" stroke-linejoin="round" stroke-miterlimit="1" stroke-width="1.514"/><path d="m372.7 104.3c4.7-2.2 9.4 0 12.5 3 .9.6 1.6 2.8 0 3.6-1.5.8-3.8.8-5.4 0-3.1-.8-5.4-3-7.1-5" fill="none" stroke="#019149" stroke-linejoin="round" stroke-miterlimit="1" stroke-width="1.514"/><path d="m391.6 111c-.7-1.4-.7-3-2.4-3.6-1.6 0-4 0-4 1.4-1.5 2.2.9 5 4 5 1.6 0 2.4-2 2.4-3.6-.7 0-.7 0-.7-.6z" fill="none" stroke="#019149" stroke-linejoin="round" stroke-miterlimit="1" stroke-width="1.514"/><path d="m391.6 111c-.7-1.4-.7-3-2.4-3.6-1.6 0-4 0-4 1.4-1.5 2.2.9 5 4 5 1.6 0 2.4-2 2.4-3.6-.7 0-.7 0-.7-.6m-8 30.6c-15.6-35.1-34.7-46.7-51.2-61.2-3.1-3-1.5-8.1.9-11.7 0 .6.7 1.4 1.5 2.8 0 .8 0 1.4.9 3 .7 2.2 0 5-3.3 5.8" fill="none" stroke="#019149" stroke-linejoin="round" stroke-miterlimit="1" stroke-width="1.514"/><path d="m322.3 84c0-1.4.7-2.8 1.6-4.4 2.4-2.2 7.1-2.8 8.7 0 0 0 0 1.6-.9 1.6-2.4 1.4-4.7 2-7.8 2.8 0 0-.9 0-1.6 0z" fill="none" stroke="#019149" stroke-linejoin="round" stroke-miterlimit="1" stroke-width="1.514"/><path d="m322.3 70.1c2.4 1.4 5.6 1.4 8 3.6 1.5.8 3.1 3 2.4 5.2 0 0-.9 0-1.6.6-.7 0-2.4 0-3.1 0-1.6-1.4-3.3-2.8-4-4.2-1-1.6-1-3.8-1.7-5.2z" fill="none" stroke="#019149" stroke-linejoin="round" stroke-miterlimit="1" stroke-width="1.514"/><path d="m347.5 77.3c3.1 0 5.4 3 7.1 5.8.7.8 0 1.6-.7 1.6-.9.6-2.4 0-3.3-.8-1.5-1.4-3.1-3.6-2.4-6.6z" fill="none" stroke="#019149" stroke-linejoin="round" stroke-miterlimit="1" stroke-width="1.514"/><path d="m360.9 78.1c-2.4 1.4-5.6 2.2-6.4 5-.7.8-.7 1.6.7 2.2.9 0 1.6 0 2.4-.6.9 0 .9-1.6 2.4-.8-.7-1.4 0-2.2.9-2.8.7-.8.7-1.6.7-3-.7 0-.7 0-.7 0z" fill="none" stroke="#019149" stroke-linejoin="round" stroke-miterlimit="1" stroke-width="1.514"/><path d="m354.6 75.3c-2.4.6-3.1 3.6-2.4 5.8 0 1.4 1.6 3.6 3.1 2.8 3.3-2.2 1.6-5.8.9-8.7-.9-.7-.9-.7-1.6.1z" fill="none" stroke="#019149" stroke-linejoin="round" stroke-miterlimit="1" stroke-width="1.514"/><path d="m354.6 109.6c-1.6-4.4-4.7-8.1-10.2-8.9-.9 3 1.5 5.8 3.8 7.3 1.6.8 4 2.2 5.6 2.2.1-.6.8-.6.8-.6z" fill="none" stroke="#019149" stroke-linejoin="round" stroke-miterlimit="1" stroke-width="1.514"/><path d="m338.8 109.6c2.4-2.2 5.6-3 9.4-2.2 1.6 0 4 .6 4.7 2.2.9 2.2-3.8 2.2-6.2 2.8-3.2.8-5.6-.6-7.9-2.8z" fill="none" stroke="#019149" stroke-linejoin="round" stroke-miterlimit="1" stroke-width="1.514"/><path d="m355.3 122.6c0-2.2.9-3.6.9-4.4-.9-2.8-1.6-5.8-4-5.8-2.4-.6-2.4 3-2.4 4.4.8 2.2 4.1 3.6 5.5 5.8z" fill="none" stroke="#019149" stroke-linejoin="round" stroke-miterlimit="1" stroke-width="1.514"/><path d="m342.1 120.4c.7 0 .7-.8.7-1.4.7-3 1.6-5.8 4.7-7.2 1.6-.8 4.7-.8 4.7.6 1.7 5.8-7.1 5.8-10.1 8z" fill="none" stroke="#019149" stroke-linejoin="round" stroke-miterlimit="1" stroke-width="1.514"/><path d="m393.2 186.1c-1.6.6-3.3 2.2-3.3 3.6 0 .6 0 2.2.9 3.6.7.8.7 2.2 2.4 2.8 0 .8.7-.6.7-1.4.8-2.7.8-5.8-.7-8.6z" fill="none" stroke="#019149" stroke-linejoin="round" stroke-miterlimit="1" stroke-width="1.514"/><path d="m393.2 186.1c-1.6.6-3.3 2.2-3.3 3.6 0 .6 0 2.2.9 3.6.7.8.7 2.2 2.4 2.8 0 .8.7-.6.7-1.4.8-2.7.8-5.8-.7-8.6" fill="none" stroke="#019149" stroke-linejoin="round" stroke-miterlimit="1" stroke-width="1.514"/><path d="m384.5 192c.7-2.2 3.1-.8 4.7 0 1.6 1.4 3.1 2.8 3.1 5h-1.4c-1.6-.8-2.4-1.4-3.3-2.2v-.6c-1.5-.8-2.4-1.6-3.1-1.6 0-.6-.7-.6 0-.6z" fill="none" stroke="#019149" stroke-linejoin="round" stroke-miterlimit="1" stroke-width="1.514"/><path d="m236.4 376.3c2.4 0 4-1.4 5.6-2.8 3.8-2.2 6.2-5 9.4-8.1 3.8-3.6 7.1-7.3 9.4-11.7 1.5-3.6 1.5-7.3 1.5-10.9" fill="none" stroke="#019149" stroke-linejoin="round" stroke-miterlimit="1" stroke-width="1.514"/><path d="m315.9 315.9c-1.5 1.4-3.1 4.4-4.7 6.7-1.5 2 0 5.6 0 7.9 0 .8.9 1.6 1.6 1.6s1.6-.8 2.4-1.6c0-2.2.7-4.2 1.6-6.4 0-2.4.8-5.4-.9-8.2z" fill="none" stroke="#019149" stroke-linejoin="round" stroke-miterlimit="1" stroke-width="1.514"/><path d="m330.3 326.1c-.9 0-.9 1.4-1.6 1.4-4.7 0-10.3.6-13.4 4.4-.7 1.4 0 2.8.7 3.6 7 2.3 11-4.3 14.3-9.4z" fill="none" stroke="#019149" stroke-linejoin="round" stroke-miterlimit="1" stroke-width="1.514"/><path d="m295.6 323.1c7.1-.6 15.6 3 15.6 9.5-.7 2.2-3.8 2.2-5.4 1.4-4.8-2.8-7.9-6.5-10.2-10.9z" fill="none" stroke="#019149" stroke-linejoin="round" stroke-miterlimit="1" stroke-width="1.514"/><path d="m290 339.8c4.7-5.8 16.5-10.9 20.5-2.8 2.4 3.6-4 5.8-7.1 4.4-4.7-1.6-8.7-1.6-13.4-.8 0-.8 0-.8 0-.8z" fill="none" stroke="#019149" stroke-linejoin="round" stroke-miterlimit="1" stroke-width="1.514"/><path d="m308.1 353.7c1.6-1.4 3.1-2.2 4-3.6 2.4-3.6 3.8-8.7 0-12.3-3.3 2-4 5-4.7 7.9-.9 3 0 5.2 1.4 7.5.9.5 0 .5-.7.5z" fill="none" stroke="#019149" stroke-linejoin="round" stroke-miterlimit="1" stroke-width="1.514"/><path d="m325.5 347.9c.7-3.6-.9-8.1-4-10.1-1.6-1.6-3.3-1.6-4.7-.8-1.6.8-3.3 1.4-1.6 2.8 2.4 3.7 7.1 5.3 10.3 8.1z" fill="none" stroke="#019149" stroke-linejoin="round" stroke-miterlimit="1" stroke-width="1.514"/><path d="m315.9 334c0-1.4-.7-2.8-2.4-2.8-.7-.8-3.1 0-3.8 1.4 0 1.4-1.6 2.2-.9 3.6.9 2.2 4 3 6.4 2.2.7-.6 1.6-2.8 1.6-4.4z" fill="none" stroke="#019149" stroke-linejoin="round" stroke-miterlimit="1" stroke-width="1.514"/><path d="m257.6 355.9v.8c0-1.6-.7-3-.7-3.6-.7-2.2-3.1-4.4-4.7-5.8m9.4 7.2c3.1-1.4 5.4-3 7.8-5.8m66.3 23.4c1.6 0 2.4 0 3.1.6 3.3.8 5.6 1.4 8 3.6m-14.2-3.6c.7 3 1.4 5.8 1.4 9.5 0 .8.9 1.6.9 2.2m44.2-72.2c2.4-2.2 5.5-3.6 8.5-5 .9-1.6 4.7-1.6 6.4-1.6 1.6-.6 3.1-.6 4.7 0 2.4 1.6 4 3 4.7 5.2m-45.7-30c0 2.2 0 4.4.9 5.8 1.4 2.2 3.1 3.6 3.8 5.9m0 1.4c1.6-.6 1.6-2 2.5-2.8 0-3 1.4-5 1.4-8.1m28.4-2.2c1.6-2.2 3.3-3.6 4.7-5 .9-.8 2.4-1.4 3.3-2.2m-5.6 8.6c4-1.4 8.7-.6 12 1.6m-12 0c.9 2.2 1.6 4.2 3.3 7.3m-31.7-63.5c.9 3.6 4 7.2 5.6 10.9m1.5-.6c2.4-2.2 4.7-5.8 4.7-9.5m-5.4 12.3c3.1 0 6.4 0 8.7-1.4m-21.4-2.2c4 1.4 8 3.6 12 3.6m40.8-73.5c-2.4-.8-4.7-2.2-7.1-3" fill="none" stroke="#019149" stroke-linejoin="round" stroke-miterlimit="1" stroke-width="1.514"/><path d="m69.4 144.4c-4 3.6-8.7 5.2-13.4 7.5-6.2 3.6-10.9 9.5-15.6 15.3-1.6 2-2.4 5-3.3 7.2-1.6 4.4-2.4 9.5-1.6 13.9 0-.8-.7-1.6 0-1.6 4-7.9 8.7-15.3 14.3-23.2.7-2.2 2.4-3.8 3.8-4.4 6.4-4.4 11.1-9.5 15.8-14.7z" fill="none" stroke="#019149" stroke-linejoin="round" stroke-miterlimit="1" stroke-width="1.514"/><path d="m155.3 384.4c30.7-16.7 50.5-6.4 71.7 8.9" fill="none" stroke="#019149" stroke-linejoin="round" stroke-miterlimit="1" stroke-width="1.514"/><path clip-rule="evenodd" d="m227 393.2c4 2 7.8 5 12.5 7.9 0 0-2.4 3-3.8.8-1.6-.8-4.7-5-11.1-10.3z" fill="#019149" fill-rule="evenodd"/><path d="m227 393.2c4 2 7.8 5 12.5 7.9 0 0-2.4 3-3.8.8-1.6-.8-4.7-5-11.1-10.3z" fill="none" stroke="#019149" stroke-linejoin="round" stroke-miterlimit="1" stroke-width="1.514"/><path d="m227 393.2c4 2 7.8 5 12.5 7.9 0 0-2.4 3-3.8.8-1.6-.8-4.7-5-11.1-10.3" fill="none" stroke="#019149" stroke-linejoin="round" stroke-miterlimit="1" stroke-width="1.514"/><path clip-rule="evenodd" d="m224.6 391.6c-6.4-4.2-14.2-9.5-26.9-13.7z" fill="#019149" fill-rule="evenodd"/><g fill="none" stroke="#019149" stroke-linejoin="round" stroke-miterlimit="1" stroke-width="1.514"><path d="m224.6 391.6c-6.4-4.2-14.2-9.5-26.9-13.7z"/><path d="m224.6 391.6c-1.4-1-3-2-4.6-3-.3-.2-.6-.4-1-.6-.7-.4-1.4-.8-2.1-1.3-.3-.2-.7-.4-1-.6-.1-.1-.1-.1-.2-.1-.3-.1-.5-.3-.8-.5-.4-.2-.8-.4-1.2-.6-.3-.2-.6-.4-1-.5-1.6-.8-3.2-1.7-5-2.5-.3-.1-.6-.3-.9-.4-1.4-.6-3-1.3-4.6-1.9-.3-.1-.6-.2-1-.4-1.2-.4-2.3-.9-3.6-1.3m-73.7-38.7c8.5 10.1 22 21.8 41.8 27m32 11.7c-.6-.3-1.2-.6-1.8-.8-.8-.4-1.6-.7-2.3-1.1-.3-.1-.6-.3-.9-.4-10.7-4.7-20.2-7.8-28.9-9.6-.1 0-.2-.1-.3-.1-.8-.2-1.6-.3-2.4-.5-26.2-5-44.5 1-61.1 5.7-.2 0-.3.1-.5.1s-.4-.1-.7-.4c-.8-.7-1.8-2.2-2.4-3.2-2.4-.8-4.7-2.2-7.1-3m69.1 0c-.8-.2-1.6-.3-2.4-.5-34.6-7.4-52.7-21.2-87.3-19.8m7.8-50.4c16.7 17.8 14.8 31.5 25.1 42.9 1.9 2.1 4.3 4.2 7.2 6.1 7.7 4.9 17.1 12 47.2 21.2.5.2 1.1.3 1.6.5m6.1 1.3c-.1 0-.2-.1-.3-.1-.8-.2-1.6-.4-2.4-.5-1.4-.2-2.8-.2-4.1 0-6.3-.8-7.1 0-12.7 1.4-9.4 2.2-17.3 5.9-26 11.1-3.1 2-6.4 2.8-9.4 3.6.7.6 0 .6 3.1 1.4 11.4-1.3 21.5-6.8 32.5-10.5 1.2-.4 2.3-.8 3.5-1.1.1 0 .2-.1.2-.1 7.1-2.2 15.1-.8 22.9-2.2-2.1-1-4.6-2.2-7.3-3zm-58.9-26.7c-1.1-.8-2.2-1.7-3.2-2.5-20.4-15.8-36.5-30.4-44-45.7-1.4-2.7-2.5-5.5-3.3-8.2-4.1-14.1-.5-28.4 4-40.7-.7 2.2 4 2.2 6.4 3m-8.7 41.5c-.5-1.5-1.1-2.7-1.6-3.8-4.6-8.8-11-6.8-18-4.9m-15.1-61.2c11.1 13.7 14.2 23.4 19.8 44.3m-7.1-23.9c-4.7-30.6 6.3-47.4 22.9-60.4m-23.8 35.6c1.5-13.8 2-22.7 1.3-29.6-.8-8.4-3.2-13.9-7.5-21.4-2.4-3.6 1.4-8.1.7-11.7m18.9-33.6c4.7 22 4 23.4-.7 34.2-5.2 10.6-8.4 14.9-11.4 32.5-.1.8-.3 1.7-.4 2.6m43.4-100.5c.7 10.1 0 13.7-7.3 22.6-1.4 2.2-1.4-4.4-1.4-6.6.7-3.6 3.8-7.2 3.8-11.7.9 3 2.4 5.2 1.6 8.1-.7 3.6-1.6 7.2-4.7 9.5v.8m-13.4 18.8c7.1-10.9 15.1-13.9 23.8-16.1"/><path d="m212.8 384.4c.7-2.2 0-5-1.6-7.3-2.4-3.6-4.7-7.3-5.4-11.7 0 3-1.6 5.8-1.6 8.7 0 .8.9 2.2.9 3 .7.8.7 2.2 1.4 2.8 1.6 1.6 4 3 6.4 3.8v.7z"/><path d="m212.8 384.4c.7-2.2 0-5-1.6-7.3-2.4-3.6-4.7-7.3-5.4-11.7 0 3-1.6 5.8-1.6 8.7 0 .8.9 2.2.9 3 .7.8.7 2.2 1.4 2.8 1.6 1.6 4 3 6.4 3.8"/><path d="m212.1 384.4c-11.1-5.8-16.7-4.4-21.4-3.6-3.8 0-7.1 2.2-10.2 2.2-4.7 0-8.7-.8-12.5-.8 3.8 2.2 7.8 5.2 12.5 6.6 4 1.4 8.7 0 12.5-.8 0 0 0-.6.9-.6 5.5-2.2 11.8-2.2 18.2-3z"/><path d="m203.4 347.9c.7 0 1.6.8 2.4 1.4.7 0 .7.8 1.6 1.6 0 .6 0 1.4-.9 2.2-2.4 2.8-7.1 4.2-10.2 7.3-1.6 2.2-1.6 4.2-.9 6.4 0 1.6 0 3 .9 3.6 0 2.2.7 3.6 1.5 5.2.9 1.4 1.6 2.2 2.5 2.8-2.5-1.4-5.6-1.4-8-3.6-3.1-2.8-4-6.4-3.1-10.3 0-.6.7-1.4.7-1.4 3.1-4.4 8.7-5 13.4-8.1.7-.6.7-2 .7-2.8.1-1.3 1-3.5-.6-4.3z"/><path d="m173.4 356.8c-.7-3 0-5.8 1.6-8.9.7-2.2 2.4-4.4 4.7-6.4.7-.8 1.4-.8 2.4-.8 2.4 0 4.7-1.4 7.1.8-1.6 0-3.3.6-3.3 2-2.3 5.8-6.1 11.6-12.5 13.3z"/><path d="m169.4 332.6c3.3 1.4 3.3 5.8 4.7 9.5.9 1.4 1.6 3.6.9 5.8-.9 2.2-1.6 3.6-2.4 5.2 0 .6-1.6 1.4-1.6 2-.7 0-1.6-.6-1.6-1.4-1.5-2.2-2.4-3.6-3.1-5.8-.7-.6 0-1.4 0-2.2-.7-.6-.7-1.4-.7-1.4-.9-2.8 0-5 .7-8.1.8-1.4 1.7-4.2 3.1-3.6z"/><path d="m152.9 342c4.7-.6 8.7 1.4 11.8 3.6 3.3 2.2 5.6 5.8 6.4 9.5-2.4.8-4.7 0-7.1-.6-2.4-1.4-4.7-3-6.4-5.2-.7-.6-2.4-1.4-2.4-2.8-.7-1.4-1.6-3.6-2.3-4.5z"/><path d="m179.8 364.6c-2.4-.6-2.4-3.6-2.4-5.8.7 0 .7-.6.7-.6v-.8h.7v-.6c1.6-.8 2.4-.8 3.3-2.2.7 1.4 1.4 2.8 1.4 4.2-.7.8 0 2.2-.7 3-.7 1.4-1.6 3.6-3 2.8z"/><path d="m178.9 364.6c-1.5-1.4-3.8-2.8-6.2-2-2.4 0-3.3 2-5.6 2.8 1.6.8 3.3.8 4.7 1.4 1.6.8 3.3.8 4.7 0 1.6 0 3.3-.6 2.4-2.2z"/><path d="m175.1 377.1c-1.6-4.4-6.4-5-9.4-5-1.6 0 0 2.8.7 3.6.7.6 2.4 1.4 4 1.4 1.4 0 3-.8 4.7 0z"/><path d="m175.1 377.1c2.4 0 3.8 2.8 2.4 4.4-2.4 1.4-4.7 1.4-6.4.6-1.6-.6-.7-2.8 0-4.2 0 0 2.3-.8 4-.8z"/><path d="m148.9 383.8c2.4-4.4 2.4-11.1-2.4-13.3-1.4-.6-1.4 1.6-2.4 2.2-.7 1.4-.7 3.6 0 5.8 1 2.2 1.7 4.4 4.8 5.3z"/><path d="m147.5 384.4c-3.3-4.4-9.4-6.4-14.2-4.4v1.6c.7 2.2 3.1 2.8 5.4 2.8 2.4 1.4 4.7 1.4 7.1.8.7-.8 1.7-.8 1.7-.8z"/><path d="m146.5 388c.9.8.9 3 0 4.4-.7 1.4-1.4 2.2-3.1 2.8-.7.8-4 1.6-4 0-1.4-3.6 2.4-10 7.1-7.2z"/><path d="m148.9 388.8c4 2.2 4.7 8.7.9 11.7-1.6-.8-2.4-3-3.3-5.2-.7-2.1-.7-5.9 2.4-6.5z"/><path d="m150.5 386.6c2.4-.8 4-2.2 6.4-2.2.7.8 2.4.8 3.1.8 3.3 2.2 5.6 3.6 7.1 6.4-4.7 2.2-9.4 1.6-13.4-.6-1.4-.8-3.8-2.2-2.4-4.4z"/><path d="m149.8 384.4c0-6.4 6.2-10.9 12.5-10.9v4.4c0 1.4-1.5 2.8-2.4 3.6-1.6 1.4-3.1 2.2-4.7 2.8-2.3.9-3.9.1-5.4.1z"/><path d="m145.1 385.8c0-.6 0-1.4.7-2 1.6-.8 3.1-.8 4 .6.7 0 .7 1.4.7 2.2-.7.8-1.6 1.4-2.4 1.4 0 .8-1.6.8-2.4 0-.6 0-.6-1.4-.6-2.2z"/><path d="m164 366.2c-.7 0-1.6-.8-2.4-1.6-1.6-1.4-3.3-2.8-4.7-4.2-4.7-7.3-7.1-16.1-15.1-20.6.9 1.6 1.6 3.6 2.4 5.2v2.2c.9 1.4 1.6 3.6 1.6 5.8.7 2.8 1.6 5 4.7 6.4 2.4 1.4 4 2.2 7.1 3 1.6.6 4 2 5.6 2.8z"/><path d="m164 366.2c-.7 0-1.6-.8-2.4-1.6-1.6-1.4-3.3-2.8-4.7-4.2-4.7-7.3-7.1-16.1-15.1-20.6.9 1.6 1.6 3.6 2.4 5.2v2.2c.9 1.4 1.6 3.6 1.6 5.8.7 2.8 1.6 5 4.7 6.4 2.4 1.4 4 2.2 7.1 3 1.6.6 4 2 5.6 2.8"/><path d="m95.4 355.9c.9 1.4 3.3 1.4 4.7 2.2 10.3.6 19.8-1.4 30-.8 1.6 0 3.3.8 4.7.8 4.7 1.4 9.4 3.6 14.2 5.8-8.5 0-17.2.6-26 0-3.1 0-7.1-.8-11.1-1.4-3.1-.8-6.2-2.2-10.2-3.8-1.6 0-4-.6-4.7-2z"/><path d="m95.4 355.9c.9 1.4 3.3 1.4 4.7 2.2 10.3.6 19.8-1.4 30-.8 1.6 0 3.3.8 4.7.8 4.7 1.4 9.4 3.6 14.2 5.8-8.5 0-17.2.6-26 0-3.1 0-7.1-.8-11.1-1.4-3.1-.8-6.2-2.2-10.2-3.8-1.6 0-4-.6-4.7-2"/><path d="m80.5 360.4c2.4 0 4.7-.8 7.1 0 6.4 1.4 11.1 5.8 12.5 10.9-5.4.8-10.9-.8-14.9-4.4-1.6-1.4-2.4-2.8-4-5 0-.8 0-1.4 0-2.2z"/><path d="m80.5 360.4c2.4 0 4.7-.8 7.1 0 6.4 1.4 11.1 5.8 12.5 10.9-5.4.8-10.9-.8-14.9-4.4-1.6-1.4-2.4-2.8-4-5 0-.8 0-1.4 0-2.2"/><path d="m95.4 391.6c4-4.2 9.4-10.1 7.1-16.7-.7-2.2-2.4-5-4.7-3.6-4.7 2.8-5.4 8.7-4.7 13.1.9 2.2.9 3.6.9 5 0 .8.7 1.6.7 2.2z"/><path d="m74.8 380.7c2.5-5.8 9.6-9.5 16.7-10.9 2.4-.8 5.4 0 7.8 1.4-5.4 6.7-15.7 11.7-24.5 9.5z"/><path d="m95.4 346.5c-.7-2.2-1.5-4.4-3.8-5-2.4-2.2-6.4-1.6-9.4-3 .6 5.8 7.7 8 13.2 8z"/><path d="m78.8 353.7h1.6c1.6-1.4 3.1-2.2 4.7-4.4.7-.6 2.4-2 3.1-2 3.3-.8 6.4-2.2 8.7 0v.6c-4.7 3.6-11.1 5.8-16.5 5.8z"/><path d="m78.8 353.7h1.6c1.6-1.4 3.1-2.2 4.7-4.4.7-.6 2.4-2 3.1-2 3.3-.8 6.4-2.2 8.7 0v.6c-4.7 3.6-11.1 5.8-16.5 5.8"/><path d="m63.9 347.3c-3.3 4.2-5.6 13.7 0 16.7.7.6 1.5-.8 2.4-2.2.7-1.4 2.4-6.6 1.4-8.7-.7-2.2-1.4-5.2-3.8-6.6z"/><path d="m65.4 346.5c3.3 5 9.4 8.1 15.1 5.8.7 0 .7-1.4 0-1.4-.7-2.2-4-4.4-5.6-5.2-2.4-1.4-4.7 0-7.8 0-.8 0-1.7.8-1.7.8z"/><path d="m67 342.9c-1.6-.8-.7-3.6 0-5.8.7-.8 2.4-2.2 4-2.2.7-.8 7.8-3.6 7.8-2.2 1.7 4.3-7.8 13-11.8 10.2z"/><path d="m64.7 342c-4.7-3.6-11.1-8.1-4-15.3 2.4 1.4 4.7 4.4 4.7 7.3.9 2.2 2.4 6.6-.7 8z"/><path d="m63 343.5c-2.4.8-4.7 2.2-7.1 1.6-.7 0-6.2.6-7.1 0-3.8-2.2-5.4-2.2-6.2-5.2 4.7-1.4 13.2-4.2 18-1.4 1.6.8 3.3 3 1.6 5z"/><path d="m63 346.5c-1.4 6.6-10.2 10.3-17.2 10.3 0-2.2 0-3.6 0-5.2.7-2.2 2.4-2.8 3.1-4.2 1.6-.8 6.4-.8 8-1.6 2.3-.1 4.7-.1 6.1.7z"/><path d="m67.8 345.1c0 .6 0 2.2-.7 2.2-1.6.6-4 .6-4.7-.8 0-.8-.7-1.4 0-3 0-.6 1.6-.6 2.4-1.4.7-.6 1.6 0 2.4 0 1.5.8.6 1.4.6 3z"/><path d="m89.9 315.9c-.7-5-1.6-12.5 4.7-13.9 3.1 2.2 3.1 6.7 1.6 9.5-.9 1.4-2.4 3.6-4 4.4-1.6 0-2.4-.8-3.1-1.4z"/><path d="m89.9 315.9c-.7-5-1.6-12.5 4.7-13.9 3.1 2.2 3.1 6.7 1.6 9.5-.9 1.4-2.4 3.6-4 4.4-1.6 0-2.4-.8-3.1-1.4"/><path d="m77.4 309.2c1.5-.6 3.8-.6 5.4-.6 2.4 0 3.1 2.2 4.7 2.8 1.6 1.4 3.1 3 2.4 4.4s-4 1.4-5.4.8c-3.3-1.6-7.1-4.4-5.6-8.1z"/><path d="m77.4 309.2c1.5-.6 3.8-.6 5.4-.6 2.4 0 3.1 2.2 4.7 2.8 1.6 1.4 3.1 3 2.4 4.4s-4 1.4-5.4.8c-3.3-1.6-7.1-4.4-5.6-8.1"/><path d="m36.4 281.6c.7-.8 1.6 0 1.6.6 3.1 2.2 6.2 4.4 8.5 8.1 3.3 3 6.4 4.4 9.4 6.6.9 0 .9 1.4.9 1.4 7.1 4.4 14.2 6.7 19.6 12.5.9.6 2.4 1.4 3.3 2.8 1.4 3 2.4 5 3.8 8.1 0 0 0 .8-.7 1.4-4-3.6-8-7.3-13.4-10.3-3.1-2-6.4-2.8-8.7-5-3.1-2.8-7.1-5-10.2-8.7-4-5.8-7.8-10.3-11.8-16.1-.7-.8-1.6-.8-2.3-1.4z"/><path d="m104.8 339.2c-44.1-16.1-37.8-30.6-34.7-44.5-.7.8-1.4.8-1.4.8-2.4-2.2-4-5.2-5.6-8.9-1.4-3.6-.7-8.1 0-11.7 8 3 10.3 13.9 6.4 20.6 0 0 0 0 0-.8.7-3.6 8-2.2 11.8-4.4"/><path d="m90.6 288.1c-7.8-3.6-17.2 1.6-22 7.5 7.9 1.3 16.6-1.7 22-7.5z"/><path d="m71 294.7c.7.8.7 0 1.5-.8 1.6-2 3.3-4.2 4.9-7.3.7-1.4 1.5-3.6 1.5-5 1.6-3.6 0-7.3-.7-10.3-.7-.6-1.6.8-1.6.8-2.4 4.2-5.4 8.1-7.1 11.7-1.6 3.6-1.6 7.3.7 10.9-.1 0-.1 0 .8 0z"/><path d="m43.4 333.4c-.7-1.4-.7-3-2.4-3.6-2.4-3-5.6-4.4-8-7.2-2.4-1.6-3.8-3.8-4.7-5.8-1.5-2.2-1.5-4.4.9-6.6 4.7-3.6 12.5-.8 18.2 2.2 6.2 3.6 10.9 6.4 17.2 10.3 9.4 6.4 18.2 12.3 29.2 15.9 3.1.8 6.2.8 10.2 1.4-5.4-2-9.4-3.6-14.2-6.4-3.1-1.4-7.1-3-10.2-5.2-7.3-7.2-14.3-13.7-23.8-18.1-5.4-2.2-6.2-4.4-10.9-6.6-3.3-.6-4.7-1.4-6.4-2-2.4 0-4.7 0-6.4 1.4-1.6 2.2-3.1 3.6-4 5.8-.7 2.8 0 5.8 2.4 7.2 1.6.8 3.3 2.2 4 2.8 4 3 8.7 3.8 11.1 8.1.2 2 .2 5-2.2 6.4z"/><path d="m71 253.8c-2.4 3-4.7 5.8-8 8.9-2.4 2.2-3.1 4.2-4.7 7.3-.7 1.4-3.1 5.8-3.1 8.1-.7 5 1.6 8.7 2.4 13.9.7-2.2-.7-4.4 0-7.4.7-5.8 4.7-9.5 7.8-14.5.9-1.4 1.6-3.6 3.3-5 1.4-2.2 1.4-4.4 2.4-6.6 0 0 .7 0 .7-.8.7-1.4.7-2.8 0-3.6 0-.9-.8-.9-.8-.3z"/><path d="m20.6 269.1c4.7-.6 8.7.8 13.4 3.6 3.1 1.6 4.7 4.4 4.7 8.1-4 .8-7.1 0-10.3-2.2-3.1-2.2-5.4-5.8-6.2-9.5z"/><path d="m20.6 269.1c4.7-.6 8.7.8 13.4 3.6 3.1 1.6 4.7 4.4 4.7 8.1-4 .8-7.1 0-10.3-2.2-3.1-2.2-5.4-5.8-6.2-9.5"/><path d="m29.3 296.1c4.7-.6 8.7-6.4 7.8-10.9 0-1.4 0-3.6-1.6-4.4-1.5 0-2.4.8-3.8 1.4-.9.8-1.6 2.2-1.6 3-.7.8-.7 1.4-.7 2.8-.9 3 0 5.8.7 8.9z"/><path d="m29.3 296.1c4.7-.6 8.7-6.4 7.8-10.9 0-1.4 0-3.6-1.6-4.4-1.5 0-2.4.8-3.8 1.4-.9.8-1.6 2.2-1.6 3-.7.8-.7 1.4-.7 2.8-.9 3 0 5.8.7 8.9"/><path d="m13.5 287.4c1.6-2.2 3.1-5.8 5.4-6.6 4-2.2 8.7-3.6 12.7-2.2 1.4.8 3.8 1.6 4.7 3-2.4.6-3.3 2.2-5.6 3.6-1.5 1.4-3.1 1.4-4.7 2.2-3.8 1.5-8.5 2.9-12.5 0z"/><path d="m52.9 258.2c.7-5-.7-10.9-6.4-11.7-1.5 5 1.6 10.9 6.4 13.9 0-.8 0-1.4 0-2.2z"/><path d="m60 251c-3.1-.8-6.4-.8-7.1 2.2-1.6 2.2-1.6 5-.7 7.2.7.6 3.8 0 4.7-1.4 1.4-2.2 1.4-5.2 3.1-8z"/><path d="m4 232c4 .6 7.1 2.8 10.2 4.2 3.3.8 5.6 3 7.1 5.2 6.4 4.2 11.8 8.1 16.7 13.1.7 1.4 2.4 2.2 2.4 4.4 0 0 .7 0 .7.6 4.7 5.8 6.4 13.1 8.7 19.7-9.4-5-14.3-13.9-20.5-22.6-4.7-5.8-9.4-10.3-14.2-14.7 0-.6-1.6-.6-1.6-.6-3.1-3.4-6.4-6.4-9.5-9.3z"/><path d="m48.9 275.8c-2.4-.8-3.8-2.2-4.7-3.6-.7-1.4-1.4-2.2-2.4-3.6-2.4-7.5-2.4-16.1-10.2-20.6-4.7-2.8-11.1-3.6-16.5-1.4-4 1.4-4.7 5.8-4 10.3.7 3.6 3.1 6.4 7.1 8.1-1.6-3-2.4-6.6-3.1-9.5-.9-.8 0-1.6 0-2.2-1.6-2.2-3.3-5.8-.9-7.5 10.3-8.7 23.8 0 30.9 8.9.7.8 1.5 2.2 1.5 3.6.9 5.8 8 15.3 6.4 20.3z"/><path d="m58.3 239.3c-4.7-5-12.5-4.4-18-3 .7 3.8 3.8 5.8 7.1 5.8 3.8.8 7.8 1.6 10.9-1.4 0 0 0-.6 0-1.4z"/><path d="m73.4 249.6c-.9 0-1.6-.8-2.4-1.6-2.4-2.8-4-6.4-8-7.9-1.4 0-3.1 0-4.7.6v.8c0 .6-.7 0-.7 0v2.2c2.4 3.6 7.1 4.2 11.8 4.2.7.9 3.1.9 4 1.7z"/><path d="m48.9 215.1c4 3.8 7.1 8.1 8 13.3.7 3.6 2.4 7.9.7 11.7-3.1-2.2-5.4-5.2-7.1-8.1-.7-1.6-1.6-3.6-2.4-5.2 0 0 0-.6 0-1.4 0-.6-.7-.6-.7-1.4 0-3-.9-5.9 1.5-8.9z"/><path d="m81.2 232.6c-5.4-1.4-11.1-.6-15.8 1.6-3.1 1.4-10.2 2.8-7.8 6.4 1.6 2.2 4.7 1.4 7.1.8 4-.8 7.8-3 11.8-5.8.9-.8 1.6-2.2 3.3-3z"/><path d="m81.2 232.6c-5.4-1.4-11.1-.6-15.8 1.6-3.1 1.4-10.2 2.8-7.8 6.4 1.6 2.2 4.7 1.4 7.1.8 4-.8 7.8-3 11.8-5.8.9-.8 1.6-2.2 3.3-3"/><path d="m69.4 211.5c-2.4 2.2-4.7 4.4-7.1 7.5-2.4 2.8-4 6.4-4.7 10.1-1.6 3.6-2.4 8.1 0 11.7h2.4c.7-.6 1.6-1.4 1.6-3.6h1.4c2.4-4.4 4.7-9.5 6.4-13.9.7-4.4 0-8.2 0-11.8z"/><path d="m58.3 192.6c-7.1 6.6-14.9 13.9-20.3 22.6-4 7.5-4 15.3-3.3 23.4 0 0 .7 0 .7.8.9 1.4.9 3.6 1.6 5.8 0-4.4-.7-8.1 0-12.5 0-1.4.9-2.8.9-4.2.7-3.6 2.4-7.5 3.8-11.1.9-2.2 2.4-4.2 4-6.4 3.1-3.6 4.7-5.8 7.8-8.9 3.4-2.3 3.4-6.5 4.8-9.5z"/><path d="m8.8 173.6c.7 5.8 6.4 9.5 10.2 13.1 1.6 1.6 2.4 3 4 4.4 4 4.4 5.4 8.7 7.8 13.9 1.6 2.2 1.6 4.4 2.4 6.4.9 3 .9 11.1.9 13.9-.9-.6-1.6-3.6-1.6-5l-1.6-2.2c-.7-.8 0-2.2-.7-3 0-.6 0-1.4-.7-2.8 0-.8 0-1.4-.9-2.8 0-.8-.7-1.6-1.5-2.2-3.3-9.5-11.1-16.9-16.5-25.6-1.8-2.2-1.8-5.1-1.8-8.1z"/><path d="m16.6 212.3c1.6-1.4 2.4-3.6 1.6-5-1.6-3.6-4.7-5.8-7.8-8.1-.9 0-1.6-.8-2.4 0-4 4.4-.9 10.9 3.8 14.5 1.7.8 4 0 4.8-1.4z"/><path d="m13.5 213.1c-4-3.6-9.4-1.6-12.5 1.4-.9 1.4 1.5 1.4 2.4 2.2 3.1.6 7.1.6 10.2 0 1.5-.8.6-3-.1-3.6z"/><path d="m6.4 229c0-1.4 0-3.6 0-5 .7-.8 1.6-2.2 1.6-3 2.4-2 4.7-7.3 7.8-4.2.7.6 1.6 2.2.7 3.6-.7 2.8-3.8 7.3-8.5 8.1 0-.1-.9.5-1.6.5z"/><path d="m19.8 216.7c5.4.6 7.1 6.4 6.2 10.9 0 0-.7.8-.7 1.4 0 0 0 0-.7.8-1.6.6-2.4-.8-3.3-2.2-2.4-2.8-4.7-7.3-3.1-10.9.7-.8.7 0 1.6 0z"/><path d="m35.5 213.7c-.7-.6-1.5-2.2-2.4-2.2-3.8 0-8.5-1.4-11.8 1.6-1.4.6-1.4 2.8-.7 2.8 4 3 10.2 0 14.2-2.8z"/><path d="m35.5 213.7c-.7-.6-1.5-2.2-2.4-2.2-3.8 0-8.5-1.4-11.8 1.6-1.4.6-1.4 2.8-.7 2.8 4 3 10.2 0 14.2-2.8"/><path d="m16.6 209.5c0-.8 0-1.6 0-3 1.6-1.4 2.4-3.6 4-5 .7-1.6 1.6-3 2.4-3 2.4 0 3.1 4.4 2.4 6.7-.7 2.8-2.4 8.1-7.1 7.2-.8-.1-1.7-1.5-1.7-2.9z"/><path d="m14.2 212.3c2.4-.8 4-1.4 5.6 0 .7.8.7 1.4.7 2.2 0 1.4-1.6 2.2-2.4 2.8-1.6.8-4 .8-4 0 0-2.2-1.4-5 1.6-5.8z"/><path d="m14.2 212.3c2.4-.8 4-1.4 5.6 0 .7.8.7 1.4.7 2.2 0 1.4-1.6 2.2-2.4 2.8-1.6.8-4 .8-4 0 0-2.2-1.4-5 1.6-5.8"/><path d="m67.8 158.3c-2.4.8-4.7 2.2-6.2 3-.9.6-1.6 2.2-2.4 3.6 0 .6 0 2.2-.9 2.8 0 1.4 0 3.6.9 5.2 3.1-.8 5.4-3.8 7.1-5.8 2.4-3 1.5-5.8 1.5-8.8z"/><path d="m47.4 161.9c4.7 0 8.5 4.4 10.2 8.1v3.6c-2.4 1.4-5.4-.6-7.8-2.8-1.6-2.2-4-5.2-2.4-8.9z"/><path d="m40.4 178.9c3.1-5.2 10.9-8.9 16.5-4.4.7.6-.9 2.2-1.6 2.8-4.1 3.6-10.2 4.4-14.9 1.6z"/><path d="m49.8 188.9c0-2.2-.9-5.8.7-8.1 1.6-2 5.4-4.2 7.1-1.4 1.6 3.7-3.1 8.1-7.8 9.5z"/><path d="m69.4 187.5c-.7-2.2-.7-5-2.4-6.6-.7-2-2.4-3.6-5.4-4.2-1.6 0-4 0-4 2.8 0 .8 0 .8-.7.8v1.4c3.1 2.8 7.8 5 12.5 5.8z"/><path d="m74.8 173.6c-1.5-.6-2.4-2.2-3.1-2.8-2.4-1.6-5.4-.8-7.8 0-1.6.6-4 2.2-4.7 3.6-.9 1.4.7 2.2 2.4 2.8 4.7.8 10.2-.6 13.3-4.2v.6z"/><path d="m55.2 173c.7 0 0-.8.7-.8.9-.8 1.6-.8 3.3 0 .7 0 .7.8 1.5.8 0 .6 1.6 1.4.9 2.8-.9 2.2-3.3 3-5.6 1.4-1.5-.6-2.4-2.8-.8-4.2z"/><path d="m21.3 170c.9 0 1.6.8 2.4 1.4 1.6 1.6 4 1.6 6.4 5.2 1.6 2.2 1.6 4.2 3.1 6.4 1.6 3.6.9 7.3 1.6 11.1.7 2 .7 4.2.7 5.6-.7.8-.7 2.2-1.5 3 0 .8 0 1.4-.9 2.2v.6c-.7-3.6 0-7.9-1.4-11.5-2.4-8.9-4-17.5-8.7-24.2h-1.7z"/><path d="m21.3 170c.9 0 1.6.8 2.4 1.4 1.6 1.6 4 1.6 6.4 5.2 1.6 2.2 1.6 4.2 3.1 6.4 1.6 3.6.9 7.3 1.6 11.1.7 2 .7 4.2.7 5.6-.7.8-.7 2.2-1.5 3 0 .8 0 1.4-.9 2.2v.6c-.7-3.6 0-7.9-1.4-11.5-2.4-8.9-4-17.5-8.7-24.2"/><path d="m27.6 162.7c4-4.4 4-9.5 4-15.3-.9-2.2-1.6-4.4-4-6.6-8.7 5.2-2.3 15.3 0 21.9z"/><path d="m26 162.7c-3.8-1.4-7.1 0-10.9.8-1.6 0-3.3.6-4.7 2-.9 1.6-2.4 3-2.4 5.2 3.8-.8 7.8 0 10.9-2.2 3.3-1.3 6.4-2.9 7.1-5.8z"/><path d="m27.6 161.9c-1.6 1.6-4 .8-5.4 0-4.7-2.2-8-5-11.1-9.5-.7-1.4-1.6-3.6-.7-4.4 2.4-1.4 5.4-.6 7.8.8 1.6 1.4 3.1 2.2 4.7 3.6 0 .8.7.8 1.6.8 0 .6.7 2.2 1.5 2.8.9 1.7 0 4.5 1.6 5.9-2.4-2.8-7.8-4.2-9.4-8.1z"/><path d="m27.6 161.9c-1.6 1.6-4 .8-5.4 0-4.7-2.2-8-5-11.1-9.5-.7-1.4-1.6-3.6-.7-4.4 2.4-1.4 5.4-.6 7.8.8 1.6 1.4 3.1 2.2 4.7 3.6 0 .8.7.8 1.6.8 0 .6.7 2.2 1.5 2.8.9 1.7 0 4.5 1.6 5.9-2.4-2.8-7.8-4.2-9.4-8.1"/><path d="m34 121.2c.7 2 .7 5 1.5 7.3 3.3 8.1 4 15.9 4.9 24.8.7 3.6.7 7.2-.9 10.9 0-6.4-.7-13.1-3.1-18.9-.9-.8 0-1.4-.9-2.2-2.4-3.6-2.4-8.1-3.8-12.3-.9-3 .7-6.6 1.4-9.5h.9z"/><path d="m74.8 124.1c0 1.4-.7 2.2-1.5 3-3.3 2.8-8 4.2-11.8 5.6-5.6 2.2-8.7 6.6-11.8 11.1-3.3 4.2-5.6 8.1-7.1 13.1 3.1-5 7.8-7.2 12.5-10.9.7-.8 0-1.6.7-2.2 4.7-4.4 11.1-7.3 15.8-11.7 1.8-2.2 3.2-5 3.2-8z"/><path d="m52.2 134.9c1.5-4.2 3.8-7.2 7.1-10.9 2.4-2.8 6.2-2.8 9.4-3.6-3.3 4.4-8 7.3-11.8 10.3-.9.6-1.6 1.4-3.3 1.4 0 1.4-1.4 1.4-1.4 2.8z"/><path d="m67 89.8c-.7 0-1.6 1.4-1.6 1.4-4.7 3.6-5.4 8.9-8.5 13.9-1.6 1.4-1.6 3.6-2.4 6.7-1.6 6.4-.9 13.1-.9 19.5-.7-.6 0-1.4.9-2.2.7-1.4 1.5-2 3.1-3.6.7-.6 1.6-2.8 2.4-4.2 1.6-8.1 2.4-16.1 4-24.8.7-2.3 1.4-4.5 3-6.7z"/><path d="m101.7 88.4c-1.6.6-2.4 2.2-4 2.2-3.1 0-6.2 1.4-9.4 1.4-1.4.6-3.8 1.4-5.4 2.8-5.4 4.4-11.1 8.9-13.4 14.7 1.6-3.6 5.4-5.2 8.7-6.6 7.1-5 14.9-8.1 22-13.1z"/><path d="m101.7 88.4c-1.6.6-2.4 2.2-4 2.2-3.1 0-6.2 1.4-9.4 1.4-1.4.6-3.8 1.4-5.4 2.8-5.4 4.4-11.1 8.9-13.4 14.7 1.6-3.6 5.4-5.2 8.7-6.6 7.1-5 14.9-8.1 22-13.1"/><path d="m90.6 75.3c0 .6-.7 1.4-.7 2-2.4 1.6-4.7 3.8-5.4 6.6 0 3.6-1.6 7.3-3.3 10.3-.7.6-1.4 2.2-1.4 2.8 1.4-.6 2.4-2.2 3.8-2.8 2.4-2.2 4.7-3.6 5.6-6.6 2.3-3.6.7-8.1 1.4-12.3z"/><path d="m45.8 107.9c4-2 4-5 3.1-7.9 0-.8-.7-1.6-.7-2.2-.7-.8-1.6-1.4-2.4-3 0-.6 0 .8-.7 0 0 2.2-1.6 3.6-2.4 5.2-1.6 2-.9 4.2 0 5.8 0 2 1.4 2.8 3.1 2.8z"/><path d="m45.8 107.9c4-2 4-5 3.1-7.9 0-.8-.7-1.6-.7-2.2-.7-.8-1.6-1.4-2.4-3 0-.6 0 .8-.7 0 0 2.2-1.6 3.6-2.4 5.2-1.6 2-.9 4.2 0 5.8 0 2 1.4 2.8 3.1 2.8"/><path d="m32.4 101.5c1.6 0 3.1-.8 4.7 0 2.4 1.4 5.6 3.6 5.6 6.4 0 1.6-1.6 2.2-2.4 1.6-.9 0-1.6-.8-2.4 0-.9 0-1.6-1.6-1.6-1.6-1.6-2-2.4-4.2-3.3-7.3-.6.9-.6.9-.6.9z"/><path d="m29.3 117.4c1.5-1.4 2.4-3.6 3.8-5 2.4-1.4 5.6-2.2 8-1.4.7 0 1.6.8 1.6 1.4-.9 3-2.4 5-4.7 5.8-3.3 0-5.6-.8-8.7-.8z"/><path d="m41.8 125.5c.9-1.4-.7-2.2-.7-2.8-.7-2.2-.7-4.4-.7-5.8s.7-4.4 2.4-3.6c6.1 1.3 1.4 8.5-1 12.2z"/><path d="m58.3 119c-2.4-3.6-5.4-6.6-9.4-8.1-3.1-1.4-4.7 2.8-3.1 5 2.4 3.6 7.8 3.6 12.5 2.2z"/><path d="m59.2 104.3c-4.7-2.2-9.4 0-11.8 3-1.6.6-2.4 2.8-.9 3.6 1.6.8 4 .8 5.6 0 3.1-.8 5.4-3 7.1-5z"/><path d="m59.2 104.3c-4.7-2.2-9.4 0-11.8 3-1.6.6-2.4 2.8-.9 3.6 1.6.8 4 .8 5.6 0 3.1-.8 5.4-3 7.1-5"/><path d="m40.4 111c.7-1.4.7-3 2.4-3.6 1.4 0 3.8 0 3.8 1.4 1.6 2.2-.7 5-3.8 5-1.6 0-2.4-2-2.4-3.6.7 0 .7 0 .7-.6z"/><path d="m40.4 111c.7-1.4.7-3 2.4-3.6 1.4 0 3.8 0 3.8 1.4 1.6 2.2-.7 5-3.8 5-1.6 0-2.4-2-2.4-3.6.7 0 .7 0 .7-.6m7.8 30.6c15.8-35.1 34.7-46.7 51.2-61.2 3.3-3 1.6-8.1 0-11.7-.7.6-1.4 1.4-2.4 2.8 0 .8 0 1.4-.7 3 0 2.2 0 5 3.1 5.8"/><path d="m109.5 84c0-1.4-.7-2.8-1.4-4.4-2.4-2.2-7.1-2.8-8.7 0 0 0 0 1.6.7 1.6 2.4 1.4 4.7 2 8 2.8z"/><path d="m109.5 70.1c-2.4 1.4-5.4 1.4-7.8 3.6-1.6.8-3.1 3-2.4 5.2 0 0 .7 0 1.6.6h3.1c1.6-1.4 3.1-2.8 4-4.2.8-1.6.8-3.8 1.5-5.2z"/><path d="m84.5 77.3c-3.3 0-5.6 3-7.1 5.8-.9.8 0 1.6.7 1.6.7.6 2.4 0 3.1-.8 1.6-1.4 3.3-3.6 2.4-6.6z"/><path d="m71 78.1c2.4 1.4 5.4 2.2 7.1 5 0 .8 0 1.6-1.6 2.2-.7 0-1.6 0-2.4-.6-.7 0-.7-1.6-2.4-.8.7-1.4 0-2.2-.7-2.8-.9-.8-.9-1.6-.9-3z"/><path d="m77.4 75.3c2.4.6 3.1 3.6 2.4 5.8 0 1.4-1.6 3.6-3.3 2.8-3.1-2.2-1.6-5.8-.7-8.7.7-.7.7-.7 1.6.1z"/><path d="m77.4 109.6c1.5-4.4 4.7-8.1 10.2-8.9.7 3-1.6 5.8-4 7.3-1.5.8-3.1 2.2-5.4 2.2-.1-.6-.8-.6-.8-.6z"/><path d="m93.9 109.6c-3.3-2.2-6.4-3-10.3-2.2-1.5 0-3.8.6-4.7 2.2-.7 2.2 4 2.2 6.4 2.8 3 .8 5.3-.6 8.6-2.8z"/><path d="m76.5 122.6c0-2.2-.7-3.6-.7-4.4.7-2.8 1.6-5.8 4-5.8 2.4-.6 2.4 3 2.4 4.4-1 2.2-4.1 3.6-5.7 5.8z"/><path d="m89.9 120.4c-.7 0-.7-.8-.7-1.4-.9-3-1.6-5.8-4.7-7.2-1.6-.8-4.7-.8-4.7.6-1.7 5.8 7 5.8 10.1 8z"/><path d="m38.7 186.1c1.6.6 3.1 2.2 3.1 3.6 0 .6 0 2.2-.7 3.6-.7.8-.7 2.2-1.6 2.8-.7.8-1.5-.6-1.5-1.4-.9-2.7-.9-5.8.7-8.6z"/><path d="m38.7 186.1c1.6.6 3.1 2.2 3.1 3.6 0 .6 0 2.2-.7 3.6-.7.8-.7 2.2-1.6 2.8-.7.8-1.5-.6-1.5-1.4-.9-2.7-.9-5.8.7-8.6"/><path d="m47.4 192c-.9-2.2-3.3-.8-4.7 0-1.6 1.4-3.3 2.8-3.3 5h1.6c1.6-.8 2.4-1.4 3.1-2.2 0 0 0-.6.9-.6.7-.8 1.5-1.6 2.4-1.6 0-.6 0-.6 0-.6z"/><path d="m195.4 376.3c-2.4 0-3.8-1.4-5.4-2.8-3.1-2.2-6.4-5-9.4-8.1-4-3.6-7.1-7.3-9.4-11.7-1.6-3.6-1.6-7.3-1.6-10.9"/><path d="m115.9 315.9c1.6 1.4 3.3 4.4 4.7 6.7 1.6 2 0 5.6 0 7.9 0 .8-.7 1.6-1.5 1.6-.9 0-1.6-.8-2.5-1.6 0-2.2-.7-4.2-.7-6.4-.8-2.4-1.7-5.4 0-8.2z"/><path d="m101.7 326.1c.7 0 .7 1.4 1.6 1.4 4.7 0 10.2.6 13.2 4.4.9 1.4 0 2.8-.7 3.6-7 2.3-11-4.3-14.1-9.4z"/><path d="m136.4 323.1c-7.1-.6-15.8 3-15.8 9.5.9 2.2 4 2.2 5.6 1.4 4.7-2.8 7.8-6.5 10.2-10.9z"/><path d="m141.8 339.8c-4.7-5.8-16.5-10.9-20.3-2.8-1.6 3.6 3.8 5.8 7.1 4.4 4.7-1.6 8.5-1.6 13.3-.8-.1-.8-.1-.8-.1-.8z"/><path d="m123.9 353.7c-1.6-1.4-3.3-2.2-4-3.6-2.4-3.6-4-8.7 0-12.3 3.1 2 4 5 4.7 7.9.7 3 0 5.2-1.6 7.5-.8.5-.1.5.9.5z"/><path d="m106.4 347.9c-.7-3.6.7-8.1 4-10.1 1.5-1.6 3.1-1.6 4.7-.8 1.4.8 3.1 1.4 1.4 2.8-2.3 3.7-7 5.3-10.1 8.1z"/><path d="m115.9 334c0-1.4.7-2.8 2.4-2.8 1.6-.8 3.3 0 4 1.4 0 1.4 1.6 2.2.7 3.6-.7 2.2-3.8 3-6.4 2.2-.7-.6-1.4-2.8-1.4-4.4z"/><path d="m174.1 355.9v.8c0-1.6.9-3 .9-3.6.7-2.2 3.1-4.4 4.7-5.8m-17.4 1.4c2.4 2.8 5.6 4.4 8 5.8m-85.1 21.8c2.4-2.2 4.7-2.8 7.8-3.6.9-.6 1.6-.6 3.3-.6m.7 12.3c0-.6.7-1.4.7-2.2 0-3.6.9-6.4 1.6-9.5m-70.9-61.9c.9-2.2 2.4-3.6 4.7-5.2 1.6-.6 3.3-.6 4.9 0 1.5 0 5.5 0 6.2 1.6 3.3 1.4 6.4 2.8 8.7 5m16.5-19.7c1.6-2.2 3.1-3.6 4-5.9.7-1.4.7-3.6 1.4-5.8m-9.4 2.2c0 3 1.6 5 1.6 8.1.7.8.7 2.2 2.4 2.8m-40.1-20.4c.7.8 2.4 1.4 3.1 2.2 1.6 1.4 3.1 2.8 4.7 5m-14.2 3.1c4-2.2 7.8-3 11.8-1.6m-3.1 8.9c1.5-3 2.4-5 3.1-7.3m22.9-45.3c1.6-3.6 4.7-7.2 5.4-10.9m-11.8.8c0 3.6 2.4 7.2 4.7 9.5m-7.7 1.4c2.4 1.4 5.5 1.4 8.7 1.4m.7 0c4 0 7.8-2.2 11.8-3.6m-46.5-73c-1.6.8-4 2.2-6.4 3"/></g><path clip-rule="evenodd" d="m244.4 309.2-17.4 3h-30c-4.7-.8-9.4-1.4-14.9-3" fill="#0b699d" fill-rule="evenodd"/><path clip-rule="evenodd" d="m264 301.9c-2.4 1.4-5.5 3-7.8 3.6h-85.1c-2.3-.6-5.4-2.2-7.8-3.6h24.3c.2.2.5.4.8.4h15.8c.3 0 .6-.2.8-.4z" fill="#0b699d" fill-rule="evenodd"/><path clip-rule="evenodd" d="m194 294.8-3.9 3.6h-34.1c-2.4-1.4-4.7-2.8-7.1-4.4h48.7v.6h-3c-.2-.1-.4 0-.6.2z" fill="#0b699d" fill-rule="evenodd"/><path clip-rule="evenodd" d="m199.7 293.9h3.4v4.4h-10l2-1.8h3.6c.5 0 1-.4 1-1z" fill="#0b699d" fill-rule="evenodd"/><path clip-rule="evenodd" d="m278.2 293.9c-2.4 1.6-4.7 3-7.1 4.4h-66v-4.4z" fill="#0b699d" fill-rule="evenodd"/><path clip-rule="evenodd" d="m185.5 286h4.2v1h-4.2z" fill="#0b699d" fill-rule="evenodd"/><path clip-rule="evenodd" d="m191.7 286h6v4.2h-53.5c-2.4-1.4-3.8-2.2-5.5-4.2h44.8v2c0 .6.5 1 1 1h6.2c.5 0 1-.4 1-1z" fill="#0b699d" fill-rule="evenodd"/><path clip-rule="evenodd" d="m204.1 287c-.5 0-1 .4-1 1v2.2h-3.4v-4.2h8.2v1z" fill="#0b699d" fill-rule="evenodd"/><path clip-rule="evenodd" d="m209.1 286h27v1h-27z" fill="#0b699d" fill-rule="evenodd"/><path clip-rule="evenodd" d="m247.8 286h4.2v1h-4.2z" fill="#0b699d" fill-rule="evenodd"/><path clip-rule="evenodd" d="m288.5 286c-1.6 2-4 2.8-5.6 4.2h-77.8v-1.2h32c.6 0 1-.4 1-1v-2h7.6v2c0 .6.5 1 1 1h6.2c.6 0 1-.4 1-1v-2z" fill="#0b699d" fill-rule="evenodd"/><path clip-rule="evenodd" d="m130.9 278.6h52.5v3.6h-48.7c-1.4-.6-3-2-3.8-3.6z" fill="#0b699d" fill-rule="evenodd"/><path clip-rule="evenodd" d="m185.5 278.6h4.2v3.6h-4.2z" fill="#0b699d" fill-rule="evenodd"/><path clip-rule="evenodd" d="m191.7 278.6h6v3.6h-6z" fill="#0b699d" fill-rule="evenodd"/><path clip-rule="evenodd" d="m199.7 278.6h3.4v3.6h-3.4z" fill="#0b699d" fill-rule="evenodd"/><path clip-rule="evenodd" d="m205.1 278.6h13.1v2.6h-13.1z" fill="#0b699d" fill-rule="evenodd"/><path clip-rule="evenodd" d="m220.2 278.6h4.2v3.6h-4.2z" fill="#0b699d" fill-rule="evenodd"/><path clip-rule="evenodd" d="m232 278.6h4.2v3.6h-4.2z" fill="#0b699d" fill-rule="evenodd"/><path clip-rule="evenodd" d="m238.1 278.6h7.6v3.6h-7.6z" fill="#0b699d" fill-rule="evenodd"/><path clip-rule="evenodd" d="m247.8 278.6h4.2v3.6h-4.2z" fill="#0b699d" fill-rule="evenodd"/><path clip-rule="evenodd" d="m296.3 278.6c-.7 1.6-2.4 3-4 3.6h-38.4v-3.6z" fill="#0b699d" fill-rule="evenodd"/><path clip-rule="evenodd" d="m123.9 270.7h59.6v4.2h-56.5c-.8-1.4-2.4-2.8-3.1-4.2z" fill="#0b699d" fill-rule="evenodd"/><path clip-rule="evenodd" d="m185.5 270.7h4.2v4.2h-4.2z" fill="#0b699d" fill-rule="evenodd"/><path clip-rule="evenodd" d="m201.6 275 1.5-1.4v1.4z" fill="#0b699d" fill-rule="evenodd"/><path clip-rule="evenodd" d="m191.7 270.7h11.6l-4.6 4.3h-7z" fill="#0b699d" fill-rule="evenodd"/><path clip-rule="evenodd" d="m204.9 270.7h13.5c-.1.2-.2.4-.2.6v3.6h-13.1v-3.6c0-.2-.1-.4-.2-.6z" fill="#0b699d" fill-rule="evenodd"/><path clip-rule="evenodd" d="m236.1 270.7v4.2h-16v-2.6h10.9c.3 0 .5-.1.7-.3l1.4-1.3z" fill="#0b699d" fill-rule="evenodd"/><path clip-rule="evenodd" d="m238.1 270.7h7.6v4.2h-7.6z" fill="#0b699d" fill-rule="evenodd"/><path clip-rule="evenodd" d="m247.8 270.7h4.2v4.2h-4.2z" fill="#0b699d" fill-rule="evenodd"/><path clip-rule="evenodd" d="m303.4 270.7c-1.6 1.4-2.4 2.8-4 4.2h-45.5v-4.2z" fill="#0b699d" fill-rule="evenodd"/><path clip-rule="evenodd" d="m118.2 262.7h65.3v4.2h-62c-1.6-1.4-2.4-2.8-3.3-4.2z" fill="#0b699d" fill-rule="evenodd"/><path clip-rule="evenodd" d="m185.5 262.7h4.2v4.2h-4.2z" fill="#0b699d" fill-rule="evenodd"/><path clip-rule="evenodd" d="m237.4 262.7h8.3v4.2h-7.6v-1.4c0-.4-.2-.8-.6-.9-.4-.2-.8-.1-1.1.2l-2.3 2.1h-42.5v-4.2h27.2c0 .5.4 1 1 1h6.3c.6 0 1-.5 1-1h1.8c0 .5.5 1 1 1h6.4c.7 0 1.1-.5 1.1-1z" fill="#0b699d" fill-rule="evenodd"/><path clip-rule="evenodd" d="m247.8 262.7h4.2v4.2h-4.2z" fill="#0b699d" fill-rule="evenodd"/><path clip-rule="evenodd" d="m308.8 262.7c-.7 1.4-1.5 2.8-3.1 4.2h-51.8v-4.2z" fill="#0b699d" fill-rule="evenodd"/><path clip-rule="evenodd" d="m115.9 254.6h68.7l-.7.7c-.2.2-.3.5-.3.7v3h-64.3z" fill="#0b699d" fill-rule="evenodd"/><path clip-rule="evenodd" d="m189.7 254.6v4.4h-4.2v-2.6l1.9-1.8z" fill="#0b699d" fill-rule="evenodd"/><path clip-rule="evenodd" d="m220.9 257.8h4.3v1.2h-4.3z" fill="#0b699d" fill-rule="evenodd"/><path clip-rule="evenodd" d="m231.1 257.8h4.4v1.2h-4.4z" fill="#0b699d" fill-rule="evenodd"/><path clip-rule="evenodd" d="m191.7 254.6h55.1l-.7.7c-.2.2-.3.5-.3.7v3h-8.3v-2.2c0-.5-.5-1-1-1h-6.4c-.5 0-1 .4-1 1v2.2h-1.8v-2.2c0-.5-.4-1-1-1h-6.3c-.6 0-1 .4-1 1v2.2h-27.2v-4.4z" fill="#0b699d" fill-rule="evenodd"/><path clip-rule="evenodd" d="m249.7 254.6h2.2v4.4h-4.1v-2.6z" fill="#0b699d" fill-rule="evenodd"/><path clip-rule="evenodd" d="m313.6 254.6c-.7 1.4-1.5 2.8-3.1 4.4h-56.5v-4.4z" fill="#0b699d" fill-rule="evenodd"/><path clip-rule="evenodd" d="m317.6 246.5c-.7 1.4-2.4 3-3.1 4.4h-60.5v-.8c0-.4-.2-.8-.6-.9-.4-.2-.8-.1-1.1.2l-1.6 1.5h-59v-.8c0-.4-.2-.8-.6-.9-.4-.2-.8-.1-1.1.2l-1.6 1.5h-70.9l-.9-4.4h61.3v.8c0 .5.5 1 1 1h18.1c.4 0 .8-.3.9-.6.2-.4 0-.8-.2-1.1l-.1-.1z" fill="#0b699d" fill-rule="evenodd"/><path clip-rule="evenodd" d="m113.5 238.5h67.6v3.4h-2.3c-.5 0-1 .4-1 1h-62c-.7-1.4-1.6-2.8-2.3-4.4z" fill="#0b699d" fill-rule="evenodd"/><path clip-rule="evenodd" d="m183.1 238.5h2.7v4.4h-2.7z" fill="#0b699d" fill-rule="evenodd"/><path clip-rule="evenodd" d="m319.2 238.5c0 1.6-.9 2.2-.9 4.4h-124.5l-.8-.7c-.2-.2-.4-.3-.7-.3h-4.4v-3h4.4c.3 0 .5-.1.7-.3l.1-.1z" fill="#0b699d" fill-rule="evenodd"/><path clip-rule="evenodd" d="m183.1 234.4h11.4l-.5.5h-10.9z" fill="#0b699d" fill-rule="evenodd"/><path clip-rule="evenodd" d="m320.6 234.9h-123.6l.7-.7c.3-.3.4-.7.2-1.1s-.5-.6-.9-.6h-14.9c-.5 0-1 .5-1 1v1.4h-66.9c-.7-1.4-1.5-2.8-3.1-4.4l209.5.8c-.7 1.3.9 2.1 0 3.6z" fill="#0b699d" fill-rule="evenodd"/><path clip-rule="evenodd" d="m119.1 265.5c-10.3-15.3-16.7-33.4-16.7-53.2 0-55.4 48.1-100.5 107.3-102.8v110h-90.6z" fill="#2a1e58" fill-rule="evenodd"/><path d="m119.1 265.5c-10.3-15.3-16.7-33.4-16.7-53.2 0-55.4 48.1-100.5 107.3-102.8v110h-90.6z" fill="none" stroke="#37266d" stroke-linejoin="round" stroke-miterlimit="1" stroke-width=".1912"/><path clip-rule="evenodd" d="m118.2 264.9c4 7.9 8.7 14.5 16.5 18.9l1.6-41.7" fill="#2a1e58" fill-rule="evenodd"/><path clip-rule="evenodd" d="m320.6 192.6 8.7 4.4c-2.4 12.5-7.1 22-17.2 22-5.6 0-8.7-3-11.8-9.5-4-6.6-5.6-21.2-5.6-32.8 0-12.5 1.6-22.8 5.6-29.2 3.8-5.8 7.1-7.2 13.3-7.2 9.4 0 12.7 11.7 14.3 22.6l-8 2.8c-.7-3.6-.7-7.3-3.1-9.5-3.3-4.2-7.1-5.8-10.3 0-2.4 4.4-3.1 10.3-3.1 18.9 0 9.5.7 21.2 2.4 25.6 2.4 3.6 3.1 5.8 6.4 5.8 2.4 0 4.7-1.4 6.2-3.6 1.5-3.1 1.5-5.1 2.2-10.3" fill="#0b699d" fill-rule="evenodd"/><path clip-rule="evenodd" d="m265.6 218.9v-93.5l26.7 11.1v13.7h-15.8v16.9h15.8v15.3h-15.8v21.2h15.1v15.3" fill="#0b699d" fill-rule="evenodd"/><path clip-rule="evenodd" d="m215.9 218.9v-109.3l15.8 2.8v45.3h15.8v-40.9l13.4 5.8v96.3h-13.4v-40.1h-15.8v40.1" fill="#0b699d" fill-rule="evenodd"/><path clip-rule="evenodd" d="m246.8 256 6.2-5.8v37.9h-6.2" fill="#0b699d" fill-rule="evenodd"/><path clip-rule="evenodd" d="m237.1 288.1h-29v-5.8h11.1v-10.9h11.8l6.2-5.8v22.5zm-6.1-11.7h-5.6v5.8h5.6zm5.4-13.7h-6.4v-5.8h6.4zm-10.2 0h-6.4v-5.8h6.4z" fill="#0b699d" fill-rule="evenodd"/><path clip-rule="evenodd" d="m194.7 295.5h4v-19.1l5.4-5v10.9h4.7v5.8h-4.7v13.3h-15.8" fill="#0b699d" fill-rule="evenodd"/><path clip-rule="evenodd" d="m184.5 256 6.2-5.8v37.9h-6.2" fill="#0b699d" fill-rule="evenodd"/><path clip-rule="evenodd" d="m192.3 237.9h-5.4v5h5.4l4.7 4.4h-18.2v-4.4h3.3v-9.5h14.9" fill="#0b699d" fill-rule="evenodd"/></svg>