<svg viewBox="0 0 43.61 47.69" xmlns="http://www.w3.org/2000/svg"><g fill="#231f20"><path d="m32.49 9.29a4.65 4.65 0 1 1 4.65-4.64 4.65 4.65 0 0 1 -4.65 4.64zm0-7.29a2.65 2.65 0 1 0 2.65 2.65 2.65 2.65 0 0 0 -2.65-2.65z"/><path d="m37.37 46.82h-9.94v-31.7l-4.43 4.47a1 1 0 0 1 -1.41-1.41l7.88-7.89v15.59h5.94v-15.48l7.88 6.54a1 1 0 0 1 -1.29 1.54l-4.6-3.82zm-3.87-2h1.87v-16.94h-5.94v16.94h2l.09-13.41h2z"/><path d="m11.36 12.63h-.08c-4.64-.05-4.63-4.8-4.63-6.83 0-2.49 1.82-4 4.64-4s4.65 1.55 4.65 4v.2c0 1.6 0 4-1.48 5.51a4.2 4.2 0 0 1 -3.1 1.12zm-.07-8.87c-1 0-2.64.26-2.64 2 0 3.13.43 4.9 2.66 4.92a2.23 2.23 0 0 0 1.74-.57c.9-.9.9-2.81.89-4.08v-.32c0-1.71-1.66-1.95-2.65-1.95z"/></g><path d="m1 20.18 6.12-6.12 15.17 22.71h-14.35-6.35l14.59-22.59 5.64 5.05" fill="none"/><path d="m22.29 37.76h-20.7a1 1 0 0 1 -.84-1.54l9.82-15.22-3.57-5.37-5.29 5.25a1 1 0 0 1 -1.42 0 1 1 0 0 1 0-1.41l6.12-6.12a1 1 0 0 1 1.59.15l3.8 5.69 3.59-5.56a1 1 0 0 1 .7-.44 1 1 0 0 1 .8.24l5.65 5.06a1 1 0 0 1 -1.38 1.51l-4.78-4.3-3.38 5.3 10.13 15.21a1 1 0 0 1 -.84 1.55zm-18.87-2h17l-8.64-12.93z" fill="#231f20"/><path d="m10.18 46.69v-9.67" fill="#fff"/><path d="m10.18 47.69a1 1 0 0 1 -1-1v-9.69a1 1 0 0 1 2 0v9.67a1 1 0 0 1 -1 1.02z" fill="#231f20"/><path d="m14.18 37.13v9.56" fill="#fff"/><path d="m14.18 47.69a1 1 0 0 1 -1-1v-9.56a1 1 0 0 1 2 0v9.56a1 1 0 0 1 -1 1z" fill="#231f20"/></svg>