<svg viewBox="0 0 46 12.03" xmlns="http://www.w3.org/2000/svg"><circle cx="6.01" cy="6.01" fill="#231f20" r="5.96"/><path d="m6 12a6 6 0 1 1 6-6 6 6 0 0 1 -6 6zm0-11.9a5.92 5.92 0 1 0 5.93 5.9 5.92 5.92 0 0 0 -5.93-5.9z" fill="#fff"/><circle cx="22.61" cy="6.01" fill="#231f20" r="5.96"/><path d="m22.61 12a6 6 0 1 1 6-6 6 6 0 0 1 -6 6zm0-11.9a5.92 5.92 0 1 0 5.92 5.9 5.92 5.92 0 0 0 -5.92-5.9z" fill="#fff"/><circle cx="39.98" cy="6.01" fill="#231f20" r="5.96"/><path d="m40 12a6 6 0 1 1 6-6 6 6 0 0 1 -6 6zm0-11.9a5.92 5.92 0 1 0 5.9 5.9 5.92 5.92 0 0 0 -5.9-5.9z" fill="#fff"/></svg>