<svg enable-background="new 0 0 46.5 52.2" viewBox="0 0 46.5 52.2" xmlns="http://www.w3.org/2000/svg"><path d="m39.9 44.5v-21.3c0-9.2-7.5-16.7-16.7-16.7h-.8c-8.8.5-15.8 7.8-15.8 16.7v21.3" fill="none"/><path d="m41.9 44.5h-4v-21.3c0-3.9-1.5-7.6-4.3-10.4-2.9-2.9-7-4.5-11.1-4.3-7.8.3-14 6.8-14 14.6v21.3h-4v-21.2c0-10 7.8-18.2 17.8-18.6h.9c10.3 0 18.7 8.3 18.7 18.6z" fill="#231f20"/><path d="m6.6 41.6-4.6 2.9h42.5l-4.6-3" fill="#fff"/><g fill="#231f20"><path d="m44.5 46.5h-42.5c-1.1 0-2-.9-2-2 0-.7.4-1.3.9-1.7l4.6-2.9c.9-.6 2.2-.3 2.8.6.4.6.4 1.4.1 2h29.9c-.4-.7-.4-1.5 0-2.2.6-.9 1.9-1.2 2.8-.5l4.6 3.1c.9.6 1.2 1.9.5 2.8-.4.5-1 .8-1.7.8z"/><path d="m22.5 52.2c-1.7 0-3-1.3-3-3v-3.6c0-1.7 1.3-3 3-3s3 1.3 3 3v3.5c0 1.8-1.4 3.1-3 3.1zm0-43.7c-1.7 0-3-1.3-3-3v-2.5c0-1.7 1.3-3 3-3s3 1.3 3 3v2.5c0 1.6-1.4 3-3 3z"/></g></svg>