<svg xmlns="http://www.w3.org/2000/svg" viewBox="0 0 167.53 238.58"><g id="Layer_2" data-name="Layer 2"><g id="Layer_1-2" data-name="Layer 1"><path d="M167.53,238.58H0V0H167.53ZM7,231.58H160.53V7H7Z" style="fill:#231f20"/><path d="M144,24.47H24.75a3.5,3.5,0,0,1,0-7H144a3.5,3.5,0,0,1,0,7Z" style="fill:#231f20"/><path d="M144,44.94H24.75a3.5,3.5,0,0,1,0-7H144a3.5,3.5,0,0,1,0,7Z" style="fill:#231f20"/><path d="M144,65.41H24.75a3.5,3.5,0,0,1,0-7H144a3.5,3.5,0,0,1,0,7Z" style="fill:#231f20"/></g></g></svg>