<svg viewBox="0 0 39.77 44.24" xmlns="http://www.w3.org/2000/svg"><path d="m34.39 20v9a15.27 15.27 0 1 1 -30.53 0v-9c0-.41 0-.81.05-1.21a15.25 15.25 0 0 1 12.19-13.79 15 15 0 0 1 3-.3 13.94 13.94 0 0 1 1.45.07 15.25 15.25 0 0 1 13.77 13.76 13.62 13.62 0 0 1 .07 1.47z" fill="#edf4f7"/><path d="m38.25 29.81h-2v-10.69a15.85 15.85 0 0 0 -.07-1.6 17.13 17.13 0 0 0 -34.12.24c0 .45-.06.9-.06 1.36v10.69h-2v-10.69c0-.51 0-1 .06-1.51a19.14 19.14 0 0 1 15.28-17.23 18.71 18.71 0 0 1 3.78-.38 17.38 17.38 0 0 1 1.88.09 19.12 19.12 0 0 1 17.17 17.23 16.79 16.79 0 0 1 .08 1.8z" fill="#f9c645"/><path d="m20.57 4.78a15.26 15.26 0 0 1 -15.21 14 13.94 13.94 0 0 1 -1.45-.07 15.25 15.25 0 0 1 12.19-13.71 15 15 0 0 1 3-.3 13.94 13.94 0 0 1 1.47.08z" fill="#153c54"/><path d="m34.32 18.53a15 15 0 0 1 -3 .3 15.28 15.28 0 0 1 -15.22-13.83 15 15 0 0 1 3-.3 15.26 15.26 0 0 1 15.2 13.82z" fill="#153c54"/><path d="m32.8 34.09h-12.29v-1h12.29a3.8 3.8 0 0 0 3.79-3.8v-1.82h1v1.82a4.8 4.8 0 0 1 -4.79 4.8z" fill="#f9c645"/><path d="m39.77 28.09-2.29 1.32v-8.03l2.29 1.06z" fill="#f9c645"/><rect fill="#3cb982" height="2.65" rx="1.32" width="6.88" x="19.74" y="32.06"/></svg>