<svg viewBox="0 0 34.61 48" xmlns="http://www.w3.org/2000/svg"><rect fill="#edf4f7" height="48" rx="1.06" width="31.53"/><path d="m6.65 24.41h11.32" fill="#edf4f7"/><path d="m18 25.41h-11.35a1 1 0 0 1 0-2h11.35a1 1 0 0 1 0 2z" fill="#112138"/><path d="m6.65 29.82h11.32" fill="#edf4f7"/><path d="m18 30.82h-11.35a1 1 0 1 1 0-2h11.35a1 1 0 0 1 0 2z" fill="#112138"/><path d="m6.65 35.24h11.32" fill="#edf4f7"/><path d="m18 36.23h-11.35a1 1 0 1 1 0-2h11.35a1 1 0 0 1 0 2z" fill="#112138"/><path d="m3.76 24.41h.03" fill="#edf4f7"/><path d="m3.79 25.41a1 1 0 0 1 -1-1 1 1 0 0 1 1-1 1 1 0 0 1 0 2z" fill="#112138"/><path d="m3.76 29.82h.03" fill="#edf4f7"/><path d="m3.79 30.82a1 1 0 0 1 -1-1 1 1 0 0 1 1-1 1 1 0 0 1 0 2z" fill="#112138"/><path d="m3.76 35.24h.03" fill="#edf4f7"/><path d="m3.79 36.23a1 1 0 0 1 -1-1 1 1 0 0 1 1-1 1 1 0 0 1 0 2z" fill="#112138"/><path d="m10.07 40.65h8.18" fill="#edf4f7"/><path d="m18.25 41.65h-8.18a1 1 0 0 1 0-2h8.18a1 1 0 0 1 0 2z" fill="#112138"/><circle cx="15.41" cy="10.65" fill="#3cb982" r="7.41"/><path d="m15.41 19.06a8.41 8.41 0 1 1 8.41-8.41 8.42 8.42 0 0 1 -8.41 8.41zm0-14.82a6.41 6.41 0 1 0 6.41 6.41 6.42 6.42 0 0 0 -6.41-6.41z" fill="#102037"/><circle cx="15.68" cy="8.18" fill="#fff" r="3"/><path d="m15.68 11.68a3.5 3.5 0 1 1 3.5-3.5 3.5 3.5 0 0 1 -3.5 3.5zm0-6a2.5 2.5 0 1 0 2.5 2.5 2.5 2.5 0 0 0 -2.5-2.5z" fill="#102037"/><path d="m9.82 15.58-.94-.34c.86-2.4 2.87-3.88 5.83-4.25a6.07 6.07 0 0 1 1.95 0c2.77.34 4.6 1.55 5.56 3.69l-.91.41c-.82-1.82-2.34-2.81-4.8-3.11a5.38 5.38 0 0 0 -1.65 0c-2.62.33-4.3 1.54-5.04 3.6z" fill="#102037"/><path d="m20.71 36.88v6.45l3.72-5.16 9.57-27.94a2 2 0 0 0 -1.23-2.52 2 2 0 0 0 -2.52 1.29l-1 2.88z" fill="#fac644"/><path d="m20.26 44.87-.05-8.07v-.08l9.56-27.93a2.49 2.49 0 1 1 4.71 1.61l-9.61 28.06zm.95-7.9v4.82l2.79-3.86 9.51-27.86a1.48 1.48 0 0 0 -2.81-1z" fill="#112138"/><path d="m33.02 13.12-3.76-1.29" fill="#edf4f7"/><path d="m33 13.62a.45.45 0 0 1 -.16 0l-3.74-1.31a.51.51 0 0 1 -.31-.64.5.5 0 0 1 .63-.31l3.76 1.28a.5.5 0 0 1 -.16 1z" fill="#112138"/><path d="m24.51 38.31a.45.45 0 0 1 -.16 0l-3.55-1.24a.51.51 0 0 1 -.31-.64.5.5 0 0 1 .63-.31l3.55 1.21a.51.51 0 0 1 .33.67.49.49 0 0 1 -.49.31z" fill="#112138"/><g fill="#fff"><path d="m23.88 38.13-2.67-.92"/><path d="m21.21 37.21v4.58l2.64-3.66z"/></g></svg>