<svg viewBox="0 0 48.94 48.94" xmlns="http://www.w3.org/2000/svg"><circle cx="24.47" cy="24.47" fill="#edf4f7" r="24.47"/><g fill="#f9c645"><path d="m44.15 24.47a19.68 19.68 0 0 1 -36.48 10.23q-.31-.51-.6-1.05l4.42-2.33a13.57 13.57 0 0 0 1.22 1.92 14.68 14.68 0 0 0 26.44-8.77z"/><path d="m15.57 32.41-2.86.83a13.57 13.57 0 0 1 -1.22-1.92l-4.42 2.33q.28.54.6 1.05l-3.12.9 1.23-5 1.52-6.13 2.7 2.62z"/><path d="m12.71 33.24-5 1.46q-.31-.51-.6-1.05l4.42-2.33a13.57 13.57 0 0 0 1.18 1.92z"/></g><path d="m33.66 41.87-2.34-4.42a14.68 14.68 0 0 0 -6.85-27.66v-5a19.68 19.68 0 0 1 9.19 37.08z" fill="#fff"/><path d="m32.41 33.38-7.94 8.27 11.13 2.74z" fill="#fff"/><path d="m9.79 24.47h-5a19.68 19.68 0 0 1 37.08-9.19l-4.42 2.34a14.68 14.68 0 0 0 -27.66 6.85z" fill="#112138"/><path d="m33.38 16.53 8.27 7.94 2.74-11.13z" fill="#112138"/><path d="m17.62 11.48a13.57 13.57 0 0 0 -1.92 1.22 14.62 14.62 0 0 0 -5.9 11.77 15.19 15.19 0 0 0 .2 2.62l-2.7-2.62-1.52 6.15a19.71 19.71 0 0 1 8.46-23q.51-.31 1-.6z" fill="#36b882"/><path d="m16.53 15.56 7.94-8.27-11.13-2.74z" fill="#36b882"/></svg>