<svg viewBox="0 0 51.12 51.12" xmlns="http://www.w3.org/2000/svg"><g fill="#231f20"><path d="m25.56 51.12a25.56 25.56 0 1 1 25.56-25.56 25.59 25.59 0 0 1 -25.56 25.56zm0-47.12a21.56 21.56 0 1 0 21.56 21.56 21.58 21.58 0 0 0 -21.56-21.56z"/><path d="m8.86 41.67-3.13-2.48a23.82 23.82 0 0 1 2-2.23 25.54 25.54 0 0 1 36.14 0c.6.6 1.17 1.23 1.74 1.92l-3.11 2.54c-.49-.59-1-1.13-1.48-1.64a21.56 21.56 0 0 0 -30.48 0 23.78 23.78 0 0 0 -1.68 1.89z"/><path d="m25.78 27.88a10.82 10.82 0 1 1 10.82-10.82 10.83 10.83 0 0 1 -10.82 10.82zm0-17.64a6.82 6.82 0 1 0 6.82 6.82 6.83 6.83 0 0 0 -6.82-6.82z"/></g></svg>