<svg viewBox="0 0 292.73 297.17" xmlns="http://www.w3.org/2000/svg"><path d="m262.85 0h-5a188.37 188.37 0 0 1 30.7 103.32c.03 104.57-84.97 189.68-189.55 189.68a188.39 188.39 0 0 1 -99-27.95v4.95a192.71 192.71 0 0 0 99 27.2c106.83 0 193.78-87 193.78-193.85a192.67 192.67 0 0 0 -29.93-103.35z" fill="#709af5"/><path d="m250.33 0h-4.58a188.23 188.23 0 0 1 15.38 74.78c0 104.57-85.06 189.64-189.63 189.64a188.41 188.41 0 0 1 -71.5-14v4.58a192.91 192.91 0 0 0 71.5 13.66c106.88 0 193.83-87 193.83-193.85a192.68 192.68 0 0 0 -15-74.81z" fill="#f9f9f9"/></svg>