<svg viewBox="0 0 34.59 48.23" xmlns="http://www.w3.org/2000/svg"><path d="m34.59 11.47v34.11c0 1.46-.89 2.65-2 2.65h-30.59c-1.1 0-2-1.19-2-2.65v-42.93c0-1.47.89-2.65 2-2.65h23.84a1.77 1.77 0 0 1 1.39.75l6.77 8.82a3.1 3.1 0 0 1 .59 1.9z" fill="#edf4f7"/><path d="m34.59 11.47v.23h-8.75v-11.7a1.77 1.77 0 0 1 1.39.75l6.77 8.82a3.1 3.1 0 0 1 .59 1.9z" fill="#d6e3e5"/><path d="m10.69 14.79h11.33" fill="#edf4f7"/><path d="m22 15.79h-11.31a1 1 0 1 1 0-2h11.31a1 1 0 1 1 0 2z" fill="#112138"/><path d="m10.69 19.73h11.33" fill="#edf4f7"/><path d="m22 20.73h-11.31a1 1 0 0 1 0-2h11.31a1 1 0 0 1 0 2z" fill="#112138"/><circle cx="17.06" cy="32.88" fill="#3cb982" r="12.71"/><g fill="#f9c645"><path d="m11.6 40.34a2 2 0 0 1 -1.42-3.41l10.32-10.31a2 2 0 0 1 2.82 2.83l-10.32 10.31a2 2 0 0 1 -1.4.58z"/><path d="m21.91 40.34a2 2 0 0 1 -1.41-.58l-10.32-10.31a2 2 0 1 1 2.82-2.83l10.32 10.31a2 2 0 0 1 0 2.83 2 2 0 0 1 -1.41.58z"/></g></svg>