<svg viewBox="0 0 160 160" xmlns="http://www.w3.org/2000/svg"><g fill="#231f20"><path d="m80 160a80 80 0 1 1 80-80 80.09 80.09 0 0 1 -80 80zm0-150a70 70 0 1 0 70 70 70.08 70.08 0 0 0 -70-70z"/><path d="m70.41 68.65a5 5 0 0 1 -5-5 11.35 11.35 0 1 0 -22.7 0 5 5 0 1 1 -10 0 21.35 21.35 0 1 1 42.7 0 5 5 0 0 1 -5 5z"/><path d="m123.24 68.65a5 5 0 0 1 -5-5 11.36 11.36 0 1 0 -22.71 0 5 5 0 1 1 -10 0 21.36 21.36 0 1 1 42.71 0 5 5 0 0 1 -5 5z"/><path d="m114.44 129.66a5 5 0 0 1 -4.33-2.49 36.13 36.13 0 0 0 -62.57 0 5 5 0 0 1 -8.66-5 46.13 46.13 0 0 1 79.88 0 5 5 0 0 1 -4.32 7.5z"/></g></svg>