<svg viewBox="0 0 43.06 45.12" xmlns="http://www.w3.org/2000/svg"><path d="m43.06 10.69v31.78a2.47 2.47 0 0 1 -2.47 2.47h-38.12a2.47 2.47 0 0 1 -2.47-2.47v-40a2.48 2.48 0 0 1 2.47-2.47h29.7a2.49 2.49 0 0 1 1.73.7l8.41 8.22a2.45 2.45 0 0 1 .75 1.77z" fill="#edf4f7"/><path d="m5.82 35.94h31.12v9.18h-31.12z" fill="#3cb982"/><path d="m5.82 1.35h24.29v9.18h-24.29z" fill="#112138"/><path d="m7.58 31.24h14.44" fill="#edf4f7"/><path d="m22 32.24h-14.42a1 1 0 1 1 0-2h14.42a1 1 0 0 1 0 2z" fill="#112138"/><path d="m25.94 31.24h.87" fill="#edf4f7"/><path d="m26.81 32.24h-.87a1 1 0 0 1 0-2h.87a1 1 0 0 1 0 2z" fill="#112138"/><path d="m7.31 26.29h11.32" fill="#edf4f7"/><path d="m18.63 27.29h-11.32a1 1 0 0 1 0-2h11.32a1 1 0 1 1 0 2z" fill="#112138"/><path d="m29 9.6h-4.43v-6.85h4.43zm-3.92-.5h3.42v-5.85h-3.43z" fill="#f9c645"/></svg>