<svg viewBox="0 0 343.96 287.68" xmlns="http://www.w3.org/2000/svg"><g fill="#414042" fill-rule="evenodd"><path d="m11.91 242.6a9.91 9.91 0 0 1 3.42.74 13.48 13.48 0 0 1 2.78 1.43c1 .53 2 .91 3 1.53a26.65 26.65 0 0 1 4.34 3.7c1.11 1.06 2 1.9 3.33 1.14.73-.85.63-1.52 1.11-2.22.68-1 2.09-.93 2.62-1.68 1-1.38.23-2.73 0-3.83-.78-3.2-3.36-6.61-6.5-8.9a14.5 14.5 0 0 0 -4.61-2 20.72 20.72 0 0 0 -5.88-1.09c-1.78.09-3.2.85-4.76 1.21a4.14 4.14 0 0 0 -.84 2.42c.09.78.69 1.58.59 2.51s-.86 1.65-.92 2.39c-.13 1.3 1.31 2.26 2.32 2.65zm13.23 6.08a24.9 24.9 0 0 0 -5.27-4c-.53-.27-1.12-.34-1.66-.61-.37-.19-.64-.5-1-.69a18.7 18.7 0 0 0 -3.3-1.21c-1.46-.41-3.32-.28-3.6-1.77-.15-.85.61-1.46.85-2.43.3-1.21-.89-2.44-.44-3.91.13-.32.6-.62 1-1.07 1.61-.44 3.56-1.18 5.65-.83.72.12 1.52.48 2.41.66a20.18 20.18 0 0 1 2.61.58 16.47 16.47 0 0 1 8.14 7.07 13.14 13.14 0 0 1 1.52 3c.17.69.35 2.49-.12 3.17-.26.38-.58.26-1 .45-.62.31-1.16.89-1.71 1.19a5.34 5.34 0 0 1 -1 2.36c-1.43.18-2.22-1.15-3.08-1.96z"/><path d="m11.94 239.66a2.85 2.85 0 0 0 2.06 1.47c3.07 1 6.48 1.74 9.21 3.7.62.45 1.18 1 1.74 1.43a16.11 16.11 0 0 1 1.43 1.56c-.39.76.7 1.49 1.59.75.61-.51.84-1.69 1.55-2 .31-.15 1-.11 1.16-.29.71-.65.15-1.93.2-2.52-1.87-4.88-9-8.9-15.09-9.73-1.49-.2-2.78-.54-3.77.93.43 1.48.86 2.89-.08 4.7zm.75-4.28.07-.15c.3-.13.48-.62.84-.77a7.3 7.3 0 0 1 2.66.07 23.61 23.61 0 0 1 5.14 1.82c2.55 1.15 5.28 2.63 6.88 4.46 1.21 1.38 2.19 3.12 2 4.74-1.31.19-2.12 1.59-3.05 2.71a11.42 11.42 0 0 0 -1.62-2.33 20.34 20.34 0 0 0 -4.13-2.78c-.5-.28-1-.65-1.45-.87-2.38-1.14-5.1-1.38-7.19-2.5.16-1.57.5-3.18-.15-4.4z"/><path d="m42.93 218.16c-3.74-.49-7.34-3-10.32-5.38a1.71 1.71 0 0 0 -1.22-1.21c-1.19.18-2 1.39-3.25 1.33-1.69 2.42 1.59 6 4.13 7.72a27.65 27.65 0 0 0 5.51 2.58c2.12.76 4 1.22 5.48.57a6.42 6.42 0 0 0 -.33-5.61zm-8.93-3.39a27.14 27.14 0 0 0 4.16 2.7 21.55 21.55 0 0 0 2.3.71 8.1 8.1 0 0 1 1.88.7c.71.5.63 1.57.67 2.54s.09 1.43-.71 1.87a12 12 0 0 0 -1.47 0c-2.52-.53-7.45-2.35-10-4.72a14.38 14.38 0 0 1 -1.39-1.45c-.55-.72-1.72-2.8-.72-3.43a7.06 7.06 0 0 1 2.36-1.09 13.8 13.8 0 0 0 2.92 2.17z"/><path d="m42 219.41c-2-.86-3.79-1-5.5-2-.38-.21-.62-.4-1-.61-.86-.43-1.38-1.06-2.43-1.63-.44-.76-1.37-1.32-1.82-2.07-1 .84-2.17 1-1.5 2.32.11.22.39.48.55.75.48.78 1.19 1.73 1.67 2.44a16 16 0 0 0 2.19 1.39c1.28.55 2.94.9 3.6 1.34a25.8 25.8 0 0 1 3.33 1c1.09-.43.99-2.09.91-2.93zm-6.11.29c-2.29-.09-4.53-2.58-5.49-4.48a2 2 0 0 0 0-.68c.33.05.5-.28.76-.37-.11.28.12.46.26.62a12.49 12.49 0 0 0 2.46 2c1.14.76 2.65 1.39 3.57 2 1.46.54 2.83.32 3.94 1.57 0 .06-.06.14 0 .18-.21.4-.33.66-.56.72a24.71 24.71 0 0 1 -4.97-1.56z"/><path d="m41.66 207.56c-.9.08-2.34-1-3.09-.69-.18.07-.37.32-.62.44s-.83.12-1.16.29c-1.43.71-1.61 2-1.13 3.51a6.24 6.24 0 0 0 2.93 3.14 7 7 0 0 0 2 1c.26 0 .53-.15.85-.16 1-.05 2.13-.1 2.63-.89 1.51-2.34-1.07-5.2-2.41-6.64zm1 2.41a5.59 5.59 0 0 1 1.14 2.65 2.47 2.47 0 0 1 -2.8 1.94c-1.65-.26-4.48-2.59-4.84-3.94-.59-2.19 1.43-2.66 3.14-2.93a6.59 6.59 0 0 1 3.35 2.31z"/><path d="m38.38 208.35c-3 1.56-.8 4 1.18 4.84 2.28.91 3.73-1.48 2.4-3.24-.87-.65-1.74-1.7-3-1.35-.33-.1-.31-.25-.58-.25zm-.33 1a2.11 2.11 0 0 1 2.75.9c.73 0 .81.84 1 1.29-.5 2.73-5.93-.78-3.75-2.2z"/><path d="m70.13 258.5a56.32 56.32 0 0 1 1.64-6.6c2.25-5 6.27-12.94 8.54-19.66a31.85 31.85 0 0 0 1.25-4.42 25.28 25.28 0 0 0 .16-6.79 21.87 21.87 0 0 0 -1.94-8.36c-.32-.64-.52-1.52-1.26-1.75a7.89 7.89 0 0 0 1.07-6 12.91 12.91 0 0 0 -4.59-7.64c-.87-.76-1.88-1.45-2.83-2.14a23.11 23.11 0 0 0 -3-2 10.18 10.18 0 0 0 -1-.26 15.41 15.41 0 0 0 -1.85-.77 14.34 14.34 0 0 0 -5 0 3.68 3.68 0 0 0 -2.51 1 11.75 11.75 0 0 0 -4.49 1.59 6.73 6.73 0 0 0 -2.39 1.77c-1.34-.2-2.37-.67-3.34-.72-.37 0-.7.23-1.06.25s-.84-.13-1.26-.09c-.72.06-1.11.38-2-.05-.14.16-.52.17-.39.52-1.22.06-2.36-.18-3.45-.06a11.66 11.66 0 0 0 -3.87 1.68 25.41 25.41 0 0 0 -2.6 2.47 8.11 8.11 0 0 1 -2 .56c-6.31 3.33-11.23 9.09-15.79 16.08a2.08 2.08 0 0 0 -1.17 1.7c-2.39 1.25-4.21 4.1-5.86 6.91-1.27 2.17-2.33 5.06-3.75 7.88-.48 1-1 1.89-1.46 2.85s-.56 2.15-.9 3.18a60.36 60.36 0 0 0 -2.95 12 10.35 10.35 0 0 0 1.6 6.92 3 3 0 0 0 .12.75 6.23 6.23 0 0 1 1.79.92c3.91 1.27 6.93 3.09 10.3 4.6a22.66 22.66 0 0 1 2.11 1.02 43.48 43.48 0 0 1 7.94 6.16c2.82 2.74 5.43 5.95 9.63 6.83.34.1.15.43.46.54 1-1 2.07.71 2.53 1.41.72.45 1.29 1 2 1.52a7.68 7.68 0 0 0 1.95 1.35 9.33 9.33 0 0 0 2.89-.26c.5-.16.89-.7 1.42-.71.06 1.34 1.37 2.17 2.21 3.19 1-.1 3 .91 3.74 1.23.32.13.45-.08.79 0s.52.3.81.34.85-.19 1.28-.15c.73 0 1.52.37 2.25.42.42 0 .93-.13 1.35-.12s1 .2 1.41.16 1.09-.42 1.72-.58c1.49-.39 3.16-.41 4.35-1.47.66-1.87 1.93-3.7 2.82-5.67.5-1.1.53-2.47 1.67-2.94.89-4.16.46-8.61 1-12.79.08-.63.06-1.3.17-1.84.23-1.11.83-1.85.64-2.76-.17-.55-.42-1.11-.9-1.2zm-44.7 14.25a50.15 50.15 0 0 0 -6.23-5.4 41.15 41.15 0 0 0 -7.74-4.29c-1.22-.58-2.46-1.25-3.71-1.91s-2.94-1.07-4.35-1.83c-1.73-.93-2.49-3-2.75-4.8a14.45 14.45 0 0 1 .26-4.32 66.28 66.28 0 0 1 2.15-9.2 47.78 47.78 0 0 1 1.75-5c1.74-3.63 2.6-6.29 4.22-9 2.41-4 4.49-8.26 8.48-7.8 4.11 2.26 8.67 2.5 12.13 4.59 2.17 1.3 4.43 2.7 6.58 4.15a11.44 11.44 0 0 1 2.78 2.63 22.5 22.5 0 0 1 2.24 2.94c1.11 2.19.78 4.58.16 7.44a37.29 37.29 0 0 1 -1 4c-.86 2.54-2.18 5.25-3.11 7.8s-1.79 4.94-2.53 7.27c-1.8 5.62-4.12 12-2.87 16.49.11.39.36 1 .09 1.25a26.53 26.53 0 0 1 -6.55-5.01zm-4-53a19.18 19.18 0 0 1 2.11 1c.41.1.68.41.12.13-2.29-.8-4.68-1.67-6.8-2.6-.22.08-.92.39-.9.06 1.32-1.62 3.38.45 5.49 1.37zm-1.05-7.38a49.22 49.22 0 0 1 3.32-4c.55-.57 1.31-1 1.9-1.63 2.6-2.59 5.88-5.28 9.25-5.48 1.84-.12 3.67.9 5.63 1.67 1.1.43 2.33.87 3.27 1.29 1.42.64 2.89 1 4.43 1.86a21.64 21.64 0 0 1 4.82 3.92 24.8 24.8 0 0 1 3.39 4.72 5.42 5.42 0 0 0 .83 2.17c.14 1.48.83 2.91.75 4.4-.06 1.07-.38 2.25-.56 3.4s-.25 2.3-.46 3.37c-.35 1.94-1.08 3.94-1.58 5.94a62 62 0 0 1 -3.77 11.43c-.81 1.71-1.85 3.28-2.69 4.94-3.15 6.23-5.28 11.9-8 18.16a37 37 0 0 0 -2.64 12.69c-1.06-.69-1.43-1.66-2.28-2.44.41-1.81.46-3.48 1-5.33 1.17-.21 1.46-1.73 1.93-2.74.15-1.39-.7-2.81-.56-4.23a19 19 0 0 1 .59-2.44c.19-.78.26-1.63.41-2.43a67.21 67.21 0 0 1 2.88-9.72c.59-1.64.86-3.28 1.41-4.79.61-1.69 1.58-3.34 2.2-5.23 1.26-3.89 1.52-8.21-.46-10.87a27.28 27.28 0 0 0 -4.2-3.42 100.29 100.29 0 0 0 -15.19-7.58 16.91 16.91 0 0 1 -2-1.12 11.86 11.86 0 0 1 -1.72-1.07c-.65-.57-.92-1.23-1.64-1.47a7.25 7.25 0 0 0 -1.69-.11c-.52.43-.95 1.07-1.78.73a26.93 26.93 0 0 1 3.23-4.63zm2.17 6.63c3.09 2 7.64 3.44 11.14 5.29 1.32.7 2.72 1.32 4 2a28.43 28.43 0 0 1 6.73 4.83 5.9 5.9 0 0 1 1.68 3.66c.35 3.54-1 7.28-2.56 11.24-.66 1.7-1.24 3.54-1.81 5.32-1.27 3.95-2.79 8.15-3.21 11.75-.45-.17-.93-.09-1.62-.25 1.17-3.38 2.19-7 3.47-10.52s2-7.31 3.13-10.74a21.86 21.86 0 0 0 1-3.58 14.85 14.85 0 0 0 0-3.4c-.81-2.53-3.48-4.48-5.54-6.23-.38-.33-.65-.91-1.17-.93-.17.54.5.73.54 1.18.87.72 1.76 1.44 2.55 2.2a14.26 14.26 0 0 1 2.31 2.36 9 9 0 0 1 .7 5.76c-.42 1.94-1.3 3.9-1.89 5.72s-1.1 3.94-1.68 6.06c-.83 3-2 5.89-3 9a11 11 0 0 0 -.84 3c-.79-.18-1.52.9-1.77 2-.11.44.22.94.17 1.46-.22 2.14-2.32 4.39-1.79 6.1a12.72 12.72 0 0 1 1.22.6 35.93 35.93 0 0 0 -.43 5.37c-1 .16-1-.74-1.17-1.36a16.26 16.26 0 0 1 .15-6.53c.27-1.58.4-3.2.76-4.71a44.19 44.19 0 0 1 1.59-4.8c.59-1.6 1-3.23 1.58-4.8 1.19-3.23 2.45-6.41 3.68-9.56a72.49 72.49 0 0 0 2.46-9.55c0-2.3-1.08-3.89-2.49-5.65-.6-.74-1.12-1.59-1.68-2.18a25.41 25.41 0 0 0 -6-4.16c-2.14-1.2-4.29-2.68-6.6-3.3-1-1-3.29-1.49-4.16-2.7a5 5 0 0 1 -2.69-1.22c0-.13.41-.41.1-.65 1.18-.79 1.95 1.12 3.14 1.92zm3.14 2.45c-.2-.11-.61 0-.67-.28.3.11.47-.05.67.24zm14.31-24.39a19.48 19.48 0 0 1 7.55 1c.92.29 2 .49 2.78.83s1.63.91 2.49 1.3a50.33 50.33 0 0 1 7.18 3.7 39.22 39.22 0 0 1 7.67 6.53 34.28 34.28 0 0 1 1.12 3.33 28.77 28.77 0 0 1 .65 3.4c.09.6.33 1.15.4 1.73.22 2-.25 3.76-.24 5.71-.81 2.37-.9 4.83-2.28 7.28a33.93 33.93 0 0 1 -2.42 3.13 22 22 0 0 0 -2.19 3.33c-2.24 4.68-4.67 9-6.76 13.82-1.19 2.71-2.46 5.51-3.51 8.33-1.12 3-2 5.84-3.19 8.63-.27 1.37-.9 3.63-1.72 4.49.18.38 0 .59-.12.9-.34 1-.89 2.09-1.18 3.23a24.66 24.66 0 0 1 -.77 3.06c-.68 1.51-2.17 1.9-3.71 2 .68-6.54 4-13.31 6.09-19.22a43.71 43.71 0 0 1 3.16-7.12 9 9 0 0 1 1.14-1.69c.36-.27 1-.14 1.44-.52a4.68 4.68 0 0 0 .72-1.09 14 14 0 0 0 1.22-4.34c.62-.48 1.85-2.6 1.75-3.34-.07-.51-.51-.41-.62-.79 2.51-5 3.1-10.88 4.33-16.48.75-3.43-.13-6.86.28-9.95-.43-1.08-.25-2.28-.72-3.25-1.45-3-4-5.28-7.44-7.47-.77-.49-1.47-1.22-2.18-1.61a22.22 22.22 0 0 0 -5.37-2.09c-1 .16-2.08-.43-3.26-.93-2.43-1-5.27-2.55-7.47-2.45 0 0-.08 0 0-.11a16.66 16.66 0 0 1 5.18-3.28zm9.52.45a29.32 29.32 0 0 1 3.27 1.12 25.67 25.67 0 0 1 4.29 2c1.79 1.17 3.64 2.39 5.46 3.52s3.82 2.17 5 3.65c-.65-.06-.81-.65-1.39-1s-1.23-.3-1.91-.63a12 12 0 0 1 -1.1-.89 42 42 0 0 0 -3.71-2.52c-2.42-1.36-5.14-2.44-7.48-3.67-.39-.2-.71-.54-1.09-.72-1.53-.68-3.22-.59-4.57-1.49 1.05.21 2.13.35 3.24.63zm-.37-.76c-.34-.13-.91 0-1.09-.29a1.42 1.42 0 0 1 1.1.29zm14.58 41.25c1.12-2.32 3.18-4 4.42-6.38a22.85 22.85 0 0 0 1.65-4.95c.94-3.66.78-7.7.77-10.7a26.41 26.41 0 0 1 1.64 6 26 26 0 0 1 .38 6.32c-.14 5-2.09 10.68-4.36 15.52-.29.62-.44 1.23-.67 1.8a17.26 17.26 0 0 0 -.85 1.81 12.77 12.77 0 0 1 -.2 1.31c-.22.59-.53 1.34-.8 1.91-.86 1.8-2.81 3.1-2.82 4.63 0 1.33 1.76 2.55 3.29 2.69 2.81.24 3.17-4.19 2.4-6.11.78-.67.53-1.77.87-2.67s1.2-1.88 1.63-2.87.74-1.77 1.12-2.65c1.84-4.24 2.59-9 3.43-13.31a30 30 0 0 0 -.63-12.24c-1.69-3.27-2.55-6.88-5.37-9.72-2.43-2.46-6-4.45-9.52-6.44-1.09-.61-2-1.51-3-2.13a23.84 23.84 0 0 0 -3.55-1.67c-1.41-.55-2.88-.9-4.22-1.52 1.41.38 2.84.41 4.2.73.85.2 1.68.53 2.56.73.37.08.79 0 1.16.14 1.08.31 2.16.94 3.24 1.36a37.66 37.66 0 0 1 11.9 7.61c0 1.15-1.34 1.55-1.14 2.3.06.24.87.79 1.17.93 1.64.75 4.58 1.6 5.87.9.26.81 1 1.41 1.32 2.21a33.84 33.84 0 0 1 1.72 9.74c.11 3.39-.87 6.81-2.25 10.51-1.91 5.08-4.62 10.64-7 15.91a27.15 27.15 0 0 0 -2.09 5.72c-.07.41 0 .86-.09 1.26-.24.82-1 1.77-.86 2.85-4.48.18-9.82-2.38-13.16-5.62 2.53-6.14 5.33-10.68 7.84-15.91zm-10.83-41.67a13.81 13.81 0 0 1 10.74-2.86 12.4 12.4 0 0 1 3.84 1.61c2.63 1.7 5.5 3.53 6.68 6.2a13.83 13.83 0 0 1 -.24 5.71c-.38 1.06-1 2.23-1.67 2.34-.28-.29.08-.67.19-.88a7.19 7.19 0 0 0 1-4.44c-.27-2.31-1.28-3.34-2.87-4.93-1.86-.9-2.87-2.75-4.46-3.62a10.24 10.24 0 0 0 -4.8-1 16.32 16.32 0 0 0 -2.05-.09 13 13 0 0 0 -3.74 1.47c-.55.26-1.19.26-1.44.95-.38-.23-1.14.06-1.21-.42zm4.41-.58c2.27-.11 4.23-1 6.91-.13-1.93.27-4.19.47-5.58 2.52a24.59 24.59 0 0 0 -3.64-1.14c-.05 0-.06-.1 0-.18a15.87 15.87 0 0 1 2.31-1.07zm-1.31 15.93c.59 1 1.17 1.72 1.68 2.61a8.69 8.69 0 0 1 1 2.77 16.44 16.44 0 0 1 .5 3.95c0 .72.16 1.45.15 2.14s-.3 1.59-.34 2.46a23.39 23.39 0 0 1 -.27 2.49c-.46 2.61-.7 5-1.34 7.51a54.35 54.35 0 0 1 -1.93 6.65 19.16 19.16 0 0 1 -1.3 3.09c-.31.44-.74.65-1 1.07s-.23 1-.52 1.43a10.81 10.81 0 0 1 -1.55 1.43c-.25.24-.59.45-.82.7s-.33.8-.74.73c4.53-6.69 5.8-14.39 7.81-21.45.43-1.49.5-3.06.78-4.53a34.36 34.36 0 0 0 .63-4.59 21 21 0 0 0 -7.5-12.7 9.77 9.77 0 0 1 4.76 4.24zm6.79-15.1c.36-.07.68-.23 1-.28 1.27-.23 1.87.45 2.71 1a23.67 23.67 0 0 1 3.5 2.24c.25.23.36.56.62.78a13.84 13.84 0 0 1 1.54 1.52c.43 1.38.91 3.22.3 4.64-3.06-3.47-7.8-5.65-13.08-8.11a4.36 4.36 0 0 1 3.39-1.79zm2.21-3.77c.21 0 .41-.11.64-.08a13.94 13.94 0 0 1 2.42.85c2 .57 2.94 1.65 4.63 2.81a16.89 16.89 0 0 1 5.76 6.33c.34 2.32 1.77 5.42-.63 7.89-1.57.58-3.36-.15-4.79-.8 2.23-2.63 2.42-7 1.5-9.52-2.09-3.26-7.42-7-11.19-7.66a3.91 3.91 0 0 1 1.66.18zm-5.7 21.31a14.93 14.93 0 0 1 .59 3.54 40.21 40.21 0 0 1 .58 7.28c0 1.24-.43 2.51-.5 3.86a49.2 49.2 0 0 1 -3.97 15.78 2.58 2.58 0 0 1 -1-.15c1.27-1.89 1.62-3.9 2.19-5.84a62.79 62.79 0 0 0 2.58-20.35 21 21 0 0 1 -.93-3.17c-.72-1.53-2.16-3.1-2.69-4.51.97 1.21 2.52 2.16 3.15 3.56zm-23 51.93a2 2 0 0 1 -1-.76c-.14-.41.31-1.77 1-1.92.51-.12 1 .31 1.5.36-.12.48.3 1.21-.16 2-.57-.03-.85.38-1.32.32zm-1.91 4.32c.05 1.4 2.36 1.78 2.9.35.06-.17-.08-.33-.07-.46a19.9 19.9 0 0 1 .41-2.43c.53 1.25.82 3.37-.33 4.72-.2-.24-.26-.18-.46-.37a1.66 1.66 0 0 1 -2.13-.29c-.32.36-.6 0-.95-.22a14.35 14.35 0 0 1 1.25-4c-.01 1.33-.63 1.67-.6 2.7zm2.85-3.66c-.67.9-.12 3.29-.74 4a.91.91 0 0 1 -1.26-.1 3.5 3.5 0 0 1 0-1.65c.13-.81.51-1.54.63-2.33.49.1 1.05-.15 1.39.08zm-.94 6.55c-.13 1.74-.71 3.67-.89 5.43-.24-.29-.6-.23-1-.4a23.17 23.17 0 0 1 .4-5.29 5.05 5.05 0 0 1 1.51.26zm31.13-64.66c.07.2 0 .44.08.64a3.57 3.57 0 0 1 -.74-.92zm-27.72 73.72c-.22-.29-.74-.47-.87-.8.31-.17.3-.73.43-1-.13-.09-.41.1-.26-.19a8.32 8.32 0 0 1 .25-2.24 38.59 38.59 0 0 1 1-6c.32-1.06.94-2.16 1.43-3.39 2.37-6 5-11.7 7.77-17.64-.39 1.11.6 1.9.47 2.8a8.43 8.43 0 0 1 -1.33 2.74c-.26.29-.7.4-.84.77s.44 1.28.22 1.75-.84.31-1.2.79-.28.85-.34 1.42a2.37 2.37 0 0 0 -1.18 2.8c-.9.36-1.26 1.73-.79 2.1-.3.64-.92.69-1.1 1.36s.36 1.18.18 1.64-.84.51-1 .86c-.4.63.06 1-.14 1.76-.12.48-.89 1.08-1 1.82-.09.51.18 1 0 1.4-.21.58-.82.89-1.13 1.26-.24.85.68 1.32.53 2s-1.1.91-1.21 1.84a4.47 4.47 0 0 1 .75 1.1 3.66 3.66 0 0 1 -.64 1.05zm28.41-74.12a8.61 8.61 0 0 1 2.63 2.8c-.42-.28-.59.05-.9.05-.68-.53 0-1.3-.62-1.82-.34-.28-.78-.19-1.28-.45.05-.16-.06-.48.17-.58zm.76 1.7a5.4 5.4 0 0 1 .12 1.1 9 9 0 0 1 -1.13-1.43c.38.27.51.13 1.01.33zm-18.43 43.18c-.08-.47-.3-.89-.38-1.37a7.56 7.56 0 0 1 1.79-2.37c.43-.43.91-.94 1.36-1-1.37.92-3.2 3.21-1.53 4.47a2.12 2.12 0 0 0 1.31.19 25.13 25.13 0 0 0 1.86-3.39c-.64 1.13-.69 3.65-2.23 4.27-.63-.44-1.54-.33-2.18-.8zm-4.45 9.26c.19-.27.66-.29.89-.67s.12-.84.2-1.31c.42-.42.91-.33 1.17-.72.51-.75-.13-1.63.14-2.19.16-.33.66-.37.89-.67.56-.74.4-2 1.25-2.77a5.75 5.75 0 0 1 1 .33c-2.64 4-3.77 7.92-5.7 12.52-.9 2.15-1.67 4.43-2.53 6.84a54.39 54.39 0 0 0 -1.73 6.38c-.3 1.31-.13 2.89-1.34 2.56.15-.6.49-.63.53-1.25s-.65-1.16-.54-1.62 1-.95 1.05-1.46-.62-1.26-.47-1.76 1-.9 1.16-1.51-.22-1.09 0-1.65.74-.78 1-1.47c0-.4-.29-.84-.16-1.28s1-.78 1.24-1.3-.3-1.3-.15-1.71.86-.67 1.08-1.11c0-.44-.11-.85-.16-1.28 1.47-.61.69-2.16 1.18-2.9zm8.09-13.87c.24.09.44.19.45.37-.87 1-1.06 2.95-2.1 3.54-2.03-.82.69-3.5 1.69-3.91zm2.3-2.59a4.09 4.09 0 0 1 -1.35 2.39c-.39-.42-1-.41-1.16-.75-.08-.18.18-.47-.16-.24.18-1.49 1.72-2.65 2.71-1.4zm13.75-34.13c-.25.31-.1.78-.37.89-.15-.37-.38-.7-.5-1.08a1.17 1.17 0 0 0 .91.19zm1.88 1.92c-1-.23-1.16-.86-1.12-1.25-.13-.07-.19 0-.32 0a3 3 0 0 1 .31-1.17 9.67 9.67 0 0 1 1.17 2.42zm-4 32.67c.87-2.68 2.24-5.21 3.2-8a46.74 46.74 0 0 0 1.82-6.79 40.93 40.93 0 0 0 .28-7.08c0-2.74-1.16-5.24-1.61-7.71a12.84 12.84 0 0 1 -1.29-3.32c1.65.81 1.09 2.53 2 3.63a1.71 1.71 0 0 0 .38 1.55c.24.19.59.2.9.56-.78.87-.75 1.32.09 1.85a3.12 3.12 0 0 0 .87 2.89 1.76 1.76 0 0 0 -.1 2.3c-.36.11-.63.59-.78.8-.07.42.57.54.46 1s-.49.38-.66.76c-.07.64.42 1.05.53 1.62-.25.32-.63.34-.76 1a3.35 3.35 0 0 1 .48.72c-.06.54-.62.46-.66.94s.81.76.56 1.36-.7.15-1.06.86c.06.62.56 1 .15 1.71-.42.33-1.16-.09-1.2.8.17.31.5.56.56.93-.31.14-.52.52-.77.8s.2.57.13.92c-.26.29-.89.36-1 .64-.21.43.35.55.42.87-.17 1-1.22.89-1.43 1.74a3.07 3.07 0 0 1 .59.86c-.28.63-1.09.26-1.35.73s.2.82.23 1.31c-.3.41-.8.32-1.1.76-.18.25.27.55-.14.54-.17-.32.11-1.01.24-1.55zm4.83-30.85c-.48-.28-.55-.66-.52-1.26.34.32.67.96.54 1.26zm-17.32 39.3c1.4 1 2.51 1.85 3.9 2.69-.38.38-.91.35-1.28.76a27.51 27.51 0 0 1 -3-2.49 2.4 2.4 0 0 1 .4-.96zm-.13 2.21c-.37.07-.61.49-1 .53.2-.35.29-1 .57-1.15.03.25.3.4.43.62zm-1.2 1.84a13.68 13.68 0 0 0 .37 1.8c-.57.31-1 .86-1.61 1.14a4 4 0 0 1 1.24-2.95zm-1.63 4.08a5.52 5.52 0 0 1 .47 1.76 11.13 11.13 0 0 1 -1.28.77 5 5 0 0 1 .48-2.58c.13.07.2-.02.33.04zm-1.21 3.48c.08.56.3 1.06.36 1.63-.51.26-1 .53-1.53.75.35-.7.28-2.2 1.17-2.39zm3.19-8.2c.34-.36.79-.45 1.09-.93.68.52.64 1.33.88 2a8.8 8.8 0 0 0 -1.44 1 9.36 9.36 0 0 1 -.53-2.08zm-4.63 11.42c.7-.29 1.24-1 2-1.07.14.82.43 1.58.55 2.4-.81.36-1.49 1-2.31 1.38a6.54 6.54 0 0 1 -.24-2.72zm-.16 3.05c-.39 0-.62.47-1 .43a5.61 5.61 0 0 1 .73-1.95c-.01.53.22.99.27 1.51zm3.35-10.21c.52-.37 1-.88 1.49-1.29.41.55.39 1.27.7 1.86a11.28 11.28 0 0 1 -1.85 1.3 10.46 10.46 0 0 1 -.34-1.88zm-4.91 13.1c.23.17.33 0 .54.15.45 1.07 1.71 1.6 3 2a4.28 4.28 0 0 1 2.67-.17c-1.87 2.63-2.49 6.26-3.64 8.45-1.06.13-2.53-.25-2.88-1.39.3-2.24 1.47-4.73 1.69-6.49-1.33 1.54-1.72 4.49-2.39 6.71a3 3 0 0 1 -1.6-2.4c.12-.37.4-.32.58-.54-.07-.22-.23-.4-.15-.67.69-2.33.72-3.78 1.88-6.33 0 0 0-.08.1 0a.75.75 0 0 1 .2.68zm.17-1.66a7.27 7.27 0 0 0 1.56-.82 13.86 13.86 0 0 1 .55 1.8 10.29 10.29 0 0 1 -1.49.24 1.77 1.77 0 0 1 -.62-1.22zm3.47-7.82c.41-.39.92-.54 1.3-1a4.41 4.41 0 0 1 .59 1.9c-.56.17-1 .69-1.61.71a13.9 13.9 0 0 1 -.28-1.61zm23.29-42.79c-1.09-.74-.45-1.89-.58-2.93-.06-.14-.29-.21-.49-.29.93-1.15-.58-1.48-1-2.23s.18-1.27 0-1.9a15.66 15.66 0 0 1 2.07 7.35zm-19.94 37.51c.21-.57 1-.68 1.5-1.1.13.7.46 1.32.53 2.05-.5.31-1 .71-1.47 1-.16-.57-.75-1.35-.56-1.95zm.32 2.74c-.09.52.93 1.67.75 2.14-.06.15-.79.42-1 .53a5 5 0 0 1 -1 .43c-.21-.63-.4-1.26-.59-1.9.61-.32 1.15-.94 1.84-1.2zm-3.14 4.58c.6-.18 1.07-.67 1.7-.76.07.75.6 1.31.61 2.08a17.61 17.61 0 0 0 -1.68 1.19 7.75 7.75 0 0 1 -.63-2.51zm-2 4.65a23.23 23.23 0 0 0 2.06-1.39 5.59 5.59 0 0 1 .72 2.21 18.46 18.46 0 0 1 -2.15 1.07 4.86 4.86 0 0 1 -.59-1.89zm6.8-13.89c-.13-.08-.19 0-.28.05 0-.21-.23-.63 0-.71-.07.42.5.2.32.66zm-6.49 16.45c.1.45.47.78.52 1.25a2.19 2.19 0 0 1 -1.75-1c.48-.01.83-.25 1.27-.25zm7.17-16.42c.47.36 1.2.61 1.68 1-.54.68-1.26.9-1.84 1.48-.41-.79-1.07-2.23.2-2.48zm-1.85 4.21a8.76 8.76 0 0 0 1.37-1c.13.7 1 1.62.76 2.32-.22.52-1 .55-1.44.95-.22-.77-.82-1.39-.69-2.27zm.51 2.91a3.79 3.79 0 0 0 .51 1.25 2.25 2.25 0 0 0 -.24-1.49c.55-.21.91-.87 1.48-1-.27.92-.35 1.32-.67 2.41-.77.71-1.61 1.25-2.38 1.95a13.84 13.84 0 0 1 -.78-2.06 18.27 18.27 0 0 0 2.03-1.09zm-5.25 9c.85-.1 1.4-1 2.26-1.05a3.6 3.6 0 0 0 .41 1.3 7.34 7.34 0 0 1 -2.22 1.15c-.17-.5-.63-.84-.5-1.43zm1.85-4c.64-.27 1.15-.87 1.79-1.15.13.78.52 1.45.61 2.25a6.28 6.28 0 0 1 -1.71 1.19 5.11 5.11 0 0 1 -.74-2.32zm16.5-9.71c0 .65-.83.56-1.21.79a26.29 26.29 0 0 1 -7.75-2.39c-.17-.3.42-.24.11-.48-.14.26-.39.23-.63.26-.37-.41-1-.57-1.57-1 .32-.36.74-.49 1.06-.86 2.83 1.7 6.28 2.3 9.15 3 .29-.3.86-.26 1.42-.27-.09.28 0 .48-.06.75-.3-.02-.43.28-.57.18zm-11.87.68a7.76 7.76 0 0 1 1.87-1.55c-.48.92-.76 2.34-1.31 3.52a8.24 8.24 0 0 0 -.56-1.97zm-2.39 7.33c.6-.55 1.44-1.22 2.11-1.72-.65 2.14-.94 4.64-1.45 6.33-.46.07-1.16.85-1.71 1.19a2.56 2.56 0 0 1 -.5-1.51 18.08 18.08 0 0 1 1.79-1.15c.1.15.12.49.35.4a2.19 2.19 0 0 1 0-1.11c-.12 0-.13.16-.28.06.19-.75-.87-2.03-.31-2.53zm-1.48 6.4c.36.18.24 1.07.8.78-.09-.35-.29-.66-.35-1 .58-.37 1.1-.9 1.67-1.29a8.62 8.62 0 0 1 -1.33 2.74 4.88 4.88 0 0 0 -2.37-.14c.44-.62 1.09-.68 1.58-1.13zm20.78-43.4a1.59 1.59 0 0 1 .22-2 1 1 0 0 0 -.52-.83c.3-.8.83-1.82.27-2.49 1.29-1-.21-1.75.63-2.94.49 2.44-.17 5.37-.6 8.22zm-14.9 47.36c-1.32-.1-3.39-.24-4.27-1.2-.5-1.24.19-1.68.69-2.66a13.56 13.56 0 0 0 .83-2.83c.21-.95.25-2 .49-3a43.29 43.29 0 0 1 2.91-9.62 50.19 50.19 0 0 0 5 1.83c-1 2.2-1.82 5-3.31 6.85 0 .19.34.22.14.49-.6 1-.31 2.79-1 3.75 0 .18.39.17.38.34-.42 2.21.81 3.74.78 5.79-.76-.05-1.68.28-2.64.22zm8.06-23.08c-.93 1.44-4.42.29-4.18-1.41.21-1.44 2-3 2.54-4-.31 1.14-1.6 2.47-1.56 3.51a1.35 1.35 0 0 0 2.27.78c.7-.69.7-2.15 1.36-2.81-.16 1.22.44 2.55-.43 3.89zm-14.51 24.14a5.49 5.49 0 0 1 1.29-2.24c.36.35.37.86.83 1.13a5.91 5.91 0 0 0 2.78.39c1.15.13 2.31.35 3.07.34.35 0 .76-.29 1-.17a17.69 17.69 0 0 1 -3.37 6.56c-1.88.73-4.52-.41-6.56-.07-.31-.37-.43-.16-.86-.45a34.53 34.53 0 0 1 1.82-5.49zm15.49-31.66c0 .52-.23 2.27-.69 2-.25.16-1.18-.64-1.41-.77-.06-.75.35-1.18.81-1.91.68.04.75.25 1.29.68zm5.83-16.73c-.22.44 0 1-.38 1.32.05-.25-.27-.34-.19-.6s.31-.65.57-.72zm-6.93 19.56a10.33 10.33 0 0 1 -1.23 3.13 1.39 1.39 0 0 1 -1 0c-.28-.95.98-4.26 2.23-3.13zm6.37-17c-.15.33 0 .86-.36 1.06-.32-.55-.19-.76.36-1.07zm-4.85 13.4c-.37-.24-.71-.57-.6-.86 0-.09.64-.22.8-.45.39-.56.28-.81.19-1.48.76-.09 1.8-1.16.77-1.84.72-.58 1.64-1.37 1-2.43.23-.32.68-.36.84-.78.11-.26-.09-.64 0-1 .13-.66.79-1.23.38-1.75.38-.21 1.05-1 1-1.21-.42 3.24-2.46 8.33-4.38 11.79zm-5.6 20.11a7.6 7.6 0 0 0 1.11 1.08 6.55 6.55 0 0 1 -1.47 1.64 1.69 1.69 0 0 1 .36-2.73zm.89-2.31c0 .33.44.51.52.82-.46.18-.81.62-1.28.77a3 3 0 0 1 .76-1.6zm1.79-3.24c.12.73.5 1.67.23 2.35-.19-.29-.53-.51-.7-.81.09-.24.51-.44.38-.71-.2.05-.32.3-.6.18-.14-.38.09-1.33.69-1.02zm-3.38 8.65a1.15 1.15 0 0 1 -.68.58c.16-.57-.08-.85.22-1.13-.02.25.36.33.46.54zm2.38-6.9c.3.29.64.56.95.84-.55-.06-.36.4-.41.78-.06.14-.24 0-.27.23a1.1 1.1 0 0 1 -.27-1.86zm-1.17 3.37c.42-.31.75-.85 1.31-.84.24.23.49.45.76.67a9.51 9.51 0 0 1 -1.19 1.36c-.33-.36-.78-.69-.88-1.19zm-.86 3.89c.25.41.71.73.9 1.16a7.46 7.46 0 0 0 -1.11 1 1.9 1.9 0 0 1 -.83-1.13 7.3 7.3 0 0 1 1.04-1zm-.69 2.49c-.08.26-.26.26-.41.35-.11-.2.06-.52 0-.72.24.1.17.31.41.4zm7.07-11.86c-.24 4.17-.5 8.75-.92 13.32-1 2.9-3.38 2.6-5.35 3.22a41.37 41.37 0 0 0 2.63-4.16c.28 0 .87.09.81-.27s-.45.15-.55-.14c2-4.43.95-8.4.76-11.92a7 7 0 0 0 2.62-.02zm-4.72 7.29c.51.38.84.84 1.3 1.24a20.41 20.41 0 0 1 -1.62 1.58 4.49 4.49 0 0 1 -1-1.19 6.9 6.9 0 0 0 1.32-1.6zm1.73-2c-.13-.39-.59-.65-.89-1a3.36 3.36 0 0 1 .9-1.09c-.09.68.22 1.53-.01 2.07zm-3.65 7.04c.33.21.4.52.73.74a2.56 2.56 0 0 1 -1.3 1c-.22-.73-.3-1.41.57-1.74zm3.3-6.85c.88.61.61 2 .34 2.91l.09-.22c-.63.09-.91-.89-1.48-1.23a16.54 16.54 0 0 0 1.05-1.46zm-1.72 5.34a2.92 2.92 0 0 0 .77.85c-.37.48-.83.76-1.21 1.22-.32-.27-.45-.63-.85-.87a8.51 8.51 0 0 1 1.29-1.2zm-.58 2.66c.25.15.4.36.58.07s-.33-.19-.17-.42a11.6 11.6 0 0 1 1.15-1.08 39.89 39.89 0 0 1 -2.43 3.93c-.97-.98.06-1.82.87-2.5zm.8-3a15.35 15.35 0 0 1 1.68-1.73 2.78 2.78 0 0 1 -.9 2.57c-.27-.26-.51-.55-.78-.84zm-2.07 7.19c1.39-.82 3.15-.76 4.6-1.45a41.06 41.06 0 0 1 -2.23 4.26c-.22.47-.29 1-.51 1.43-.49.93-1.38 1.11-2.16 1.62-.86 0-1.83.48-2.56.31a16.15 16.15 0 0 0 2.86-6.16z"/><path d="m10.31 250.34c1.43.79 3.43 1 5.17 1.92.54.27.89.75 1.4 1a9.66 9.66 0 0 1 2.41 1.27c1.07-.69 3.65-1.14 3.42-3.16a14 14 0 0 0 -7.71-5.29 7.3 7.3 0 0 0 -1.9-.08c-.78-.05-1.59-.57-2.3-.1-.8 1.31-.6 3.1-.49 4.44zm5.12-2.7c1.05.36 2.15 1.21 3.2 1.69a7 7 0 0 1 .69.2c.68.4 1.22 1.38 1.58 1.62a2.28 2.28 0 0 1 -1.11 1.18 40 40 0 0 0 -7.79-3.33 1.76 1.76 0 0 1 .4-2 29.3 29.3 0 0 1 3.03.64z"/><path d="m226.4 54.29c-.85-1-2-2.48-1.85-4.11.11-1.44 1.3-2.17 2.66-2.92 0-.77-.77-2.31-.81-3.38-3.9-.91-8.21-1.16-12.18-2-1.56-1.79.68-2.9.48-4.34.35-.69 1.06-1.16 1.4-1.86a6.79 6.79 0 0 0 1.9-1.54c7.87-5.26 14.66-12.5 21.39-18.89 1.15-1.1 2.34-2.14 3.46-3.22 2.35-2.26 4-4.29 6.56-6.56 1.47-1.3 3-2.81 5.06-3.27 1.37-.31 3.15-.13 4.38-.29a105.47 105.47 0 0 0 21.46-.05 16 16 0 0 0 4.48-.75c.25.22.76 0 1 .19a166.08 166.08 0 0 1 21.39-1.3c1.61 0 3.2.51 4.78.49 1.17 0 2.46-.33 3.81-.37s2.58.19 3.86.26c1.75 1.5.37 2.83-.45 4-1.54.88-2.48 2.51-3.79 3.62-.7.59-1.56.9-2.24 1.52-1.52 1.38-3.08 2.65-4.7 3.94-4.65 3.71-8.73 8.25-13.11 12.25 4 2.86 8.14 5.87 10.77 10.54.84-1 1.6-2.3 3.19-2.5 2.45-.31 1.33 2.8 2.29 4.11s3.43.8 3.94 2.85a26.54 26.54 0 0 0 6.63-6.25c1.76-2.18 4.43-4.46 5.8-7a11.2 11.2 0 0 1 8 .69 21 21 0 0 1 7.21 9.85 4.89 4.89 0 0 1 .41 2.61c.9 1.15 0 1.82-.68 2.12a65.47 65.47 0 0 0 -10.1 4.91c-.88.49-1.74 1-2.49 1.36-1.27.65-2 1.47-3.5 2.14-.57.25-1.25.9-2.06 1.36-1.57.88-3.35 1.5-4.32 2.34s-1.08 1.45-2.29.87c-.24.46-.22 1.08-.5 1.53-1.91.42-3.15 3.08-4.65 2.31a111.3 111.3 0 0 0 -12 8.29 102.46 102.46 0 0 0 -8.33 7.75c-.91.94-1.94 1.72-2.74 2.6-.44.49-.61 1.21-1.14 1.58-2.53 1.77-6.3-.17-8.09-1.2s-2.7-2.54-4-4.9a12.55 12.55 0 0 1 -1.37-3.47 124.12 124.12 0 0 1 -13.95 1.07c-7.45 0-14.65-2.07-20.77-4.35-.15.41.22.6 0 1a6.84 6.84 0 0 1 -1.6 1.08 7.83 7.83 0 0 1 .83 1.65 8.74 8.74 0 0 1 -7.69 4.55c-.41 0-.69-.31-1.15-.27-.27 0-.47.46-.79.3a13.79 13.79 0 0 1 -7.51-4.16c1.76-3.53.59-10.4 2.12-14.71.27-.65 1.35-2.3 1.59-2.07zm102-5c3.06-1.9 6.8-4 10.13-5.68 1.58-.81 3.57-1.27 4-2.6.2-2.86-1.63-6.27-3.39-8.29-1.1-1.26-2.88-3.43-3.85-3.85a8.93 8.93 0 0 0 -5.62-.82c-3.86 2.93-6.76 7.09-10.11 10.77a13.82 13.82 0 0 1 -3 2.35c-.22.25-.35.9-.67.81 1.28 2-.47 3.15-2.08 3.53a13.11 13.11 0 0 1 6.31 8.25c2.67-1.65 5.59-2.84 8.29-4.51zm-68.4-27.66c-1.62.14-2.81.34-3.81-.07-.82-.33-1.22.11-2.29.88-1.76 1.27-3.53 3-4.87 4.09-5.83 4.67-11.22 11.08-16.85 16.08-.11 0-.21.22-.06.23 0-.07 0-.13.08-.13a40.05 40.05 0 0 1 10.83.87 46.33 46.33 0 0 0 7.34.74c3.8.15 7.58.42 10.83.87 1.24.17 2.43.17 3.55.34 2 .31 5.47 1.71 7.56 1.23.77-.18 1.15-.86 2-.8 6.06-7.25 14.14-13.25 20.12-20.55 4.14-3.68 8-7.89 12.39-11.64s9.42-6.92 12.62-11.59c-1.13-1.46-2.93-1.12-4.49-1.09a36 36 0 0 1 -5.09 0c-5.11-.69-10.32-.23-15.68.17a163.77 163.77 0 0 0 -16.57 1.92 70.76 70.76 0 0 0 -7.13.08 41.21 41.21 0 0 1 -6.7-.26c-4.57-.12-9.08-.8-12.63 2.06a73.65 73.65 0 0 0 -5.73 5.49c-3.78 3.79-7.65 7.4-11.36 11-1.89 1.82-3.65 3.74-5.55 5.34-3.68 3.11-7.93 6.64-12 9.71.06 1.34-1.7 2.3-1.62 3.64.07 1.06 1.55 1.47 2.78 1.18a17.06 17.06 0 0 0 4.82.68 8.44 8.44 0 0 0 4.73.71c1.24-1.64 3.36-2.3 4.71-3.84.8-.9 1.3-2 2.13-2.89s1.83-1.7 2.74-2.61a51.28 51.28 0 0 1 5.34-5.29c4.07-3.05 7.86-6.4 12.32-9.24a7.26 7.26 0 0 1 4.25-4.94 5.25 5.25 0 0 1 2.15-.52 6.77 6.77 0 0 1 3.4.16 9.27 9.27 0 0 1 2.49 2.23 4.43 4.43 0 0 1 -1 3.82c-1.75 1.59-3.62 1.74-5.75 1.94zm55.63 25.8a28.38 28.38 0 0 1 -3-1.66c-1 .38-2.48.92-3.36 1.35a12.09 12.09 0 0 0 1.82 2.16c.19 1.22.69 2.21.81 3.39a6.55 6.55 0 0 0 .09 1.71c.22.61 1 1.12 1.31 1.85s.29 1.44.64 2.24c.79-.19.74-.89 1.35-1.19a11.12 11.12 0 0 0 -.47-2.39c-.27-.79-1.12-1.7-.67-2.33a18.53 18.53 0 0 1 1.91 4.44 3.71 3.71 0 0 0 .87-.43c-.23-1.07-.29-1.91-.45-2.82-.54-.44-.61-1.19-1-1.82-.5-.83-1.6-1.41-1.41-2.27a12.09 12.09 0 0 1 3.22 4.87c.78-.13 1.28.31 1.87.09.44-2.93-2.29-5.15-3.54-7.19zm-2.79-2.58c1.19-.53 2.63-.68 2.45-2-.37-2.71-2.5-3.42-4.13-4.1-1-1.51-.19-4.6-2-4.29a5.59 5.59 0 0 0 -1.34.75c-.52.41-.73 1.27-1.25 1.6.09.81 1.19 1.74-.07 2a1.06 1.06 0 0 0 -.4-.77c-.53 1.8-1 4.35-.18 6 .93-1.57 1.43-4.23 3.46-3.65 3.14 2.14-3.67 3.72-1.16 6 .63-.23 2.05-.63 3.1-1.07a1.37 1.37 0 0 1 .88-.86c.1.3.37.34.63.39zm-5.72-.8c.54-.86 1.68-1.36 2-2.33-.17-.15-.46-.11-.61-.29-.89.45-1.4 2.29-1.4 2.62zm4.67 11.35c.11.6.12.83-.37 1.17-1.42-.3-3 .55-4 1.07 0-.3-.26-.16-.31-.36a18.92 18.92 0 0 0 .89-7.28c-.54-.21-.88-.76-1.5-.83-.44.68-1.05 1.73-2 1.56a15.36 15.36 0 0 0 -4.34 8.09 1.06 1.06 0 0 0 .06.74c-.4.56-.37 2.38-1.49 1.45a5.06 5.06 0 0 0 -1.79-2.5c-1.54-.91-3.12-.44-4.32-.81-.46-.35.4-.77 0-1.07-3.44 2.05-8.29 4.4-12.71 4.89.41.63 1.69 1 2.52 1.45a18 18 0 0 1 7.56 13.91 127.13 127.13 0 0 1 16.72-14.41c2.1-1.46 4.51-2.54 6.31-4.44-.27-1.03-.49-2.15-1.24-2.63zm-.72-2.1c.14-2-.88-4.42-2.23-5.22.28.84-.22 1.21-.24 1.69s.3.79.32 1.33c0 1.69-.86 3.29-.44 5 .68-.12 2.78-.23 2.68-1.51-.08-.45-.44-.43-.45-1 .07-.31.5.12.35-.29zm-5.39-16.17c-.1-.09-.1-.16-.18-.28-3.07-4.42-6.36-8.19-10.9-10.18-6.6 7.16-14.18 13.33-20.52 20.74-2.88.68-4.73-.25-7.2-.66-.35 0-.7.1-1.07 0-1.51-.22-2.95-.71-4.45-.89s-3.18-.16-4.83-.25c-2-.11-4-.49-5.9-.65-2.15-.17-4.29-.22-6.49-.39-.57.49-.75 1.23-1.32 1.72a55.7 55.7 0 0 0 -4.17 17.91c.35-.11.51.45.38.67a3.38 3.38 0 0 1 1.22 1c8.58 3.21 18.16 5.45 29.09 3.76.63.25.92.06 1.51 0 1.28-.21 3 .14 4.3-.6a6.66 6.66 0 0 1 1.58-4.28c1.24-1.17 2.95-.63 4.29-1.57a6.22 6.22 0 0 0 -3.5-1c-.23-.68.25-1 .81-1.17 1.89-.73 4.28-.66 6.38-1.42 3.15-1.13 5.73-2.83 8.63-4.23 1.84-2.44 4.81-4.25 7.07-6.25a11.94 11.94 0 0 1 -5.05-1.61c-2.07-1.15-4.61-2.9-2.89-5.27 1.11-.83 2.3-.54 2.78-1.54s-.32-2.22-.15-3.32a2.32 2.32 0 0 1 1.14-1.58c4.31.11 6.52 3.63 8.68 7.25a11.7 11.7 0 0 1 .75-5.91zm-1.47 8.81a4.91 4.91 0 0 0 .5 3.9c1.05-.29.72-1.43 1.5-1.88.71 0 .92.87 1.71.78a2.77 2.77 0 0 0 -3.72-2.8zm-2.42-6c-1.38-.85-2.23-.22-2.93.92a10.92 10.92 0 0 1 4.07 2.93c.32.4.39 1.32 1.16 1.24a6.39 6.39 0 0 0 -2.31-5.12zm-3 1.58c.69 2.2 2.65 3.09 4 3.7a8.35 8.35 0 0 0 -3.99-3.73zm-.42-1.74a2.49 2.49 0 0 1 1.75-1.29c.25 0 .93.58.69.16-.8-.65-3.11-2.3-4.15-1.93-1.58.56.08 3.14-.66 4.49s-1.94.86-3 1.81c-.77 1.48 1 2.81 2.26 3.58a12.53 12.53 0 0 0 6.48 1.7 1.93 1.93 0 0 1 1.54-.37 3 3 0 0 1 -.09-1.28c-2.2-1.64-5.92-3.25-5.41-6.72.31-.38.39.07.6-.18zm3 13.71c.7-1.19 3.14-3 2.19-4.43-.53-.11-.84.33-1.38.11a57.54 57.54 0 0 0 -7.42 5.69.53.53 0 0 1 -.08.56c-.47.44-1.11.78-1 1.55a11.87 11.87 0 0 1 3.93 1c.54.62 1 1.44 1.72 1.75a21.23 21.23 0 0 1 2.01-6.26zm-25.23 16.51c1.1 3 2.36 6.26 4.68 7.76 2.47 1.6 6.8 3 8.27-.35a14.63 14.63 0 0 0 -1-5.51c-1.8 1-2 2.47-4.33 3.21-1.91-.06-2.91-1.87-3.9-3.19-.75-1-1.65-1.44-1-2.26 1.47.53 3.34-.42 4.64-1.43-1.29-2-3-3.52-5.44-3.25a4.93 4.93 0 0 0 -2 3.84c.26 0 .41.27.48.64a.7.7 0 0 1 -.4.54zm5.69-6.14c-.49.34-.87.27-1.24.73 2.78.89 5.07 4.38 5.09 8.11a6.74 6.74 0 0 0 2-2.21 14.72 14.72 0 0 0 -5.85-6.61zm1.81 10.3c1.76-.42 1.16-4 .29-5.16-.75 1-2.56 1.52-3.88 1.9.95.83 2.12 3.63 3.59 3.28zm-27.24-54.39c-.36-.48-.57-1.22-.8-1.54a1.93 1.93 0 0 0 -.22 1.36c.5.22 1.1.3 1.24 1.11 2.89.53 9.61.17 9.12-4-1.15 3.09-6.36 4.3-9.34 3.07zm7.29-4.89a4 4 0 0 0 -.79-.57c-2.36-.22-8.86 1.58-5.44 4.89 2.15.82 8.18-.52 7.27-3.59-.49-.15-.82-.56-1.27-.78.1-.02.14.06.23.05zm-9.16 5.24a13 13 0 0 0 -3.32 2.42 5 5 0 0 0 -1.39 1c-2.59 1.5-4.33 3.53-6.68 5.18-2.25.95-2.84 2.92-4.64 4.15-.87 1.59-2.68 2.52-3.85 3.85-1.8 2.06-3.35 4.55-5.58 6.11-.41 0-.37.08-.64 0-1.08 1.08-.81 2.63-.71 4.29a9.73 9.73 0 0 1 1.81.32c.1-1.19-.49-2.55-.29-3.5.56-.38.63-1 1.16-1.47.36-.34.93-.44 1.34-.76s.54-.69.85-1a56.09 56.09 0 0 0 7-6.66c.35-.19.49-.51.93-.65 4-4.77 9.28-8.71 14.27-12.86.06 0 .11 0 .07-.12-.31.23-.26-.13-.33-.3zm-11.62 24.36v-.21a43.32 43.32 0 0 0 -12.34-.4c-.62 1-.33 2.48-.27 3.86a3.37 3.37 0 0 1 2.7 4.12c-.14.75-.78 1.11-1 1.75 3.12 1.48 4.09 6.55 6 9.62a45.93 45.93 0 0 1 4.91-18.74zm-6.33 17.89c-.82-1.81-1.81-4.23-2.66-5.65s-2.43-3.24-3.95-2c.42 2.46 2 4.37 1.66 6.44-1-2.14-1.26-4-2.53-6 0 1.8 1.2 4.35.76 5.89a23.71 23.71 0 0 1 -1.06-3.54c-.27-1.31 0-2.93-1.28-2.62-.44 1.1-.46 2.46-1 3.49-.62-1.33.18-2 .09-3.27-3.12 4-1.32 11-2.67 16 1.5.65 2.59 2.71 4.3 2.55-.18-3.73-1.33-8-1.27-11.62 0-.58-.18-1.78.61-2a45.72 45.72 0 0 0 1.42 12.38c-.4.48 0 1.81.73 1.67a25.82 25.82 0 0 1 -.23-5.47c.7 1.67.49 4.31 1.14 5.68.33-.1.48.08.85-.09 0-1.16-.89-3.06-.53-4 .38 1.18 1 2.81 1.3 4 .59 0 2.27.1 3-.61 0-1.89-1.29-3.7-1.15-5.25a49.52 49.52 0 0 1 1.95 5c1.31-.57 1.73-1.68 2.4-2.63-.21-.75-.05-1.24-.65-1.36a1.17 1.17 0 0 0 0-.87c-1.51-2.79-3.16-6.16-4.41-8.92-.18-.4-1-.83-.22-1.36 1 .84 1.29 2.33 1.83 3.57 1.07 2.46 2.71 4.68 3.75 6.59.16-.28.52-.44.7-.71-.71-1.48-2.16-3.66-2.88-5.29zm-5.92-9.32c.63.3 1.81-1.41 1.27-2.36a12.75 12.75 0 0 1 -1.27 2.36zm.83-3.78c-.29-.05-.31-.55-.74-.36.29 2.15-1.55 3.7-3.78 4.59 2.67 1.58 4.18-2.2 4.52-4.23zm-4.49 3.26c1.63-.46 4.15-2.61 2.32-3.92a14.7 14.7 0 0 1 -3.32 3.71c.1.45.66.29 1 .21zm.3-4.19a2.46 2.46 0 0 0 -1.49 3.28c1.16-.77 1.69-1.93 2.56-2.89-.14-.06-.13-.21-.1-.41-.47.27-.58.04-1.02.02z"/></g></svg>