<svg viewBox="0 0 48.94 48.94" xmlns="http://www.w3.org/2000/svg"><circle cx="24.47" cy="24.47" fill="#edf4f7" r="24.47"/><path d="m38.85 33.73v-2.92h-1.28a6 6 0 0 0 -.57-1.45l.91-.91-2.06-2.06-.91.9a5.66 5.66 0 0 0 -1.45-.62v-1.26h-2.96v1.19a5.58 5.58 0 0 0 -1.55.59l-.8-.8-2.07 2.06.74.74a6.21 6.21 0 0 0 -.72 1.62h-1v2.92h.95a5.63 5.63 0 0 0 .69 1.7l-.66.65 2.07 2.07.66-.66a6.21 6.21 0 0 0 1.69.67v1h2.92v-1a6 6 0 0 0 1.55-.78l.77.77 2.06-2.07-.83-.83a6.08 6.08 0 0 0 .59-1.52zm-5.4 1.86-.13.07a3.63 3.63 0 0 1 -2.74.08 3.59 3.59 0 0 1 -2-2s0 0 0 0a3.5 3.5 0 0 1 -.25-1.3 3.39 3.39 0 0 1 .32-1.46s0-.08 0-.11a3.67 3.67 0 0 1 1.88-1.87l.22-.08a3.62 3.62 0 0 1 1.1-.17 3.55 3.55 0 0 1 1.31.24l.29.13a3.62 3.62 0 0 1 1.63 1.65 1.94 1.94 0 0 1 .13.3 3.54 3.54 0 0 1 .23 1.27 3.62 3.62 0 0 1 -.17 1.1l-.09.25a3.57 3.57 0 0 1 -1.73 1.9z" fill="#f9c645"/><path d="m38.18 15.19v-4.11h-1.79a8.13 8.13 0 0 0 -.87-2l1.29-1.29-2.91-2.93-1.27 1.27a8.23 8.23 0 0 0 -2-.88v-1.76h-4.15v1.67a7.93 7.93 0 0 0 -2.19.84l-1.13-1.14-2.9 2.9 1 1.05a8.28 8.28 0 0 0 -1 2.27h-1.38v4.11h1.33a8.23 8.23 0 0 0 1 2.39l-.92.93 2.9 2.9.93-.93a8.41 8.41 0 0 0 2.39.95v1.36h4.11v-1.46a8 8 0 0 0 2.23-1l1.08 1.08 2.91-2.9-1.17-1.17a8.48 8.48 0 0 0 .83-2.15zm-7.59 2.63-.19.09a5 5 0 0 1 -3.85.11h-.07a5 5 0 0 1 -2.82-2.8v-.06a5.1 5.1 0 0 1 -.35-1.84 4.92 4.92 0 0 1 .45-2.06l.06-.15a5.08 5.08 0 0 1 2.69-2.49l.3-.11a5 5 0 0 1 1.56-.25 5.1 5.1 0 0 1 1.84.35l.41.18a5 5 0 0 1 2.29 2.32 3.89 3.89 0 0 1 .19.42 5.07 5.07 0 0 1 .32 1.79 5 5 0 0 1 -.24 1.56 3.42 3.42 0 0 1 -.13.34 5.08 5.08 0 0 1 -2.46 2.6z" fill="#3cb982"/><path d="m21.51 30.81v-3.3h-1.44a6.55 6.55 0 0 0 -.69-1.63l1-1-2.34-2.33-1 1a6.84 6.84 0 0 0 -1.64-.71v-1.44h-3.3v1.35a5.94 5.94 0 0 0 -1.76.67l-.91-.91-2.33 2.33.84.84a6.85 6.85 0 0 0 -.81 1.83h-1.13v3.3h1.07a6.52 6.52 0 0 0 .78 1.93l-.75.74 2.34 2.33.75-.75a6.42 6.42 0 0 0 1.92.76v1.1h3.3v-1.17a7.11 7.11 0 0 0 1.8-.8l.86.86 2.34-2.33-.94-.94a6.45 6.45 0 0 0 .66-1.73zm-6.1 2.11-.15.07a4 4 0 0 1 -3.09.1h-.06a4 4 0 0 1 -2.27-2.25.08.08 0 0 1 0 0 4 4 0 0 1 -.28-1.47 4 4 0 0 1 .35-1.66l.06-.12a4 4 0 0 1 2.16-2l.24-.09a3.94 3.94 0 0 1 1.25-.2 4.06 4.06 0 0 1 1.48.28 2.41 2.41 0 0 1 .33.15 4 4 0 0 1 1.84 1.86 2.07 2.07 0 0 1 .15.34 4 4 0 0 1 .26 1.44 4.35 4.35 0 0 1 -.19 1.25c0 .09-.07.18-.11.27a4.06 4.06 0 0 1 -1.97 2.03z" fill="#112138"/></svg>