<svg viewBox="0 0 15.88 46.82" xmlns="http://www.w3.org/2000/svg"><circle cx="8.29" cy="4.65" fill="none" r="3.65"/><g fill="#231f20"><path d="m8.29 9.29a4.65 4.65 0 1 1 4.65-4.64 4.64 4.64 0 0 1 -4.65 4.64zm0-7.29a2.65 2.65 0 1 0 2.65 2.65 2.65 2.65 0 0 0 -2.65-2.65z"/><path d="m13.18 46.82h-9.94v-25.7a1 1 0 0 1 2 0v4.76h5.94v-4.59a1 1 0 0 1 2 0zm-3.88-2h1.88v-16.94h-5.94v16.94h2l.06-13.41h2z"/><path d="m1 23a1 1 0 0 1 -.64-.23 1 1 0 0 1 -.36-.77c0-3.14.14-6.08.47-9.82a1 1 0 0 1 2 .17c-.28 3.18-.47 5.76-.47 8.38a16.38 16.38 0 0 0 4.17-2.07c2-1.29 4.13-2.62 6.69-.14a1 1 0 0 1 0 1.41 1 1 0 0 1 -1.42 0c-1.37-1.33-2.06-1-4.23.39a16.22 16.22 0 0 1 -6.03 2.68z"/><path d="m14.88 23h-.18a17.84 17.84 0 0 1 -6.33-2.53c-1.81-1.09-2.63-1.58-4.37-.65a1 1 0 1 1 -.94-1.76c2.72-1.46 4.39-.48 6.33.67a16.67 16.67 0 0 0 4.32 2 39 39 0 0 1 -.12-4.11 39.56 39.56 0 0 0 -.12-4.12 1 1 0 0 1 .91-1.08 1 1 0 0 1 1.08.9 41.1 41.1 0 0 1 .13 4.32 28.94 28.94 0 0 0 .28 5.23 1 1 0 0 1 -1 1.16z"/></g></svg>