<svg viewBox="0 0 33.53 47.12" xmlns="http://www.w3.org/2000/svg"><rect fill="#f9c645" height="43.94" rx="3.35" width="29.82" x="3.71" y="3.18"/><rect fill="#edf4f7" height="43.94" rx="3.26" width="29.82"/><path d="m4.7 23.72 1.81 1.81 3.53-3.53" fill="#fff"/><path d="m6.51 27-2.51-2.57a1 1 0 1 1 1.41-1.43l1.1 1.11 2.83-2.81a1 1 0 0 1 1.41 1.41z" fill="#112138"/><path d="m4.7 32.68 1.81 1.81 3.53-3.53" fill="#fff"/><path d="m6.51 35.91-2.51-2.52a1 1 0 0 1 1.41-1.39l1.1 1.11 2.83-2.82a1 1 0 0 1 1.41 1.41z" fill="#112138"/><path d="m3.53 5.47h9v9.18h-9z" fill="#3cb982"/><path d="m17.12 6.41h8.29" fill="#edf4f7"/><path d="m25.41 7.41h-8.29a1 1 0 0 1 0-2h8.29a1 1 0 0 1 0 2z" fill="#112138"/><path d="m17.12 11.18h8.29" fill="#edf4f7"/><path d="m25.41 12.18h-8.29a1 1 0 0 1 0-2h8.29a1 1 0 1 1 0 2z" fill="#112138"/><path d="m17.12 15.94h8.29" fill="#edf4f7"/><path d="m25.41 16.94h-8.29a1 1 0 1 1 0-2h8.29a1 1 0 0 1 0 2z" fill="#112138"/><path d="m13.72 23.88h11.33" fill="#edf4f7"/><path d="m25.05 24.88h-11.33a1 1 0 0 1 0-2h11.33a1 1 0 0 1 0 2z" fill="#112138"/><path d="m13.72 33.24h11.33" fill="#edf4f7"/><path d="m25.05 34.24h-11.33a1 1 0 1 1 0-2h11.33a1 1 0 1 1 0 2z" fill="#112138"/></svg>