<svg viewBox="0 0 45.18 42.94" xmlns="http://www.w3.org/2000/svg"><path d="m27.71 1.82h16.85a.62.62 0 0 1 .62.62v39.88a.62.62 0 0 1 -.62.62h-21.35a.62.62 0 0 1 -.62-.62v-35.38a5.12 5.12 0 0 1 5.12-5.12z" fill="#dbf1f9"/><path d="m27.71 37.21h16.85a.62.62 0 0 1 .62.62v4.5a.62.62 0 0 1 -.62.62h-21.35a.62.62 0 0 1 -.62-.62 5.12 5.12 0 0 1 5.12-5.12z" fill="#d6e3e5"/><path d="m.62 1.82h21.38a.62.62 0 0 1 .62.62v39.88a.62.62 0 0 1 -.62.62h-16.88a5.12 5.12 0 0 1 -5.12-5.12v-35.38a.62.62 0 0 1 .62-.62z" fill="#edf4f7" transform="matrix(-1 0 0 -1 22.59 44.76)"/><path d="m.62 37.21h21.38a.62.62 0 0 1 .62.62v4.5a.62.62 0 0 1 -.62.62h-16.88a5.12 5.12 0 0 1 -5.12-5.13.62.62 0 0 1 .62-.62z" fill="#d6e3e5" transform="matrix(-1 0 0 -1 22.59 80.15)"/><path d="m9.65 13.82-2.24-2.76-2.35 2.76v-13.82h4.59z" fill="#f9c645"/><g fill="#112138"><path d="m26.06 8.06h16.59v2h-16.59z"/><path d="m26.06 13.35h16.59v2h-16.59z"/><path d="m26.06 18.47h16.59v2h-16.59z"/><path d="m26.06 23.76h16.59v2h-16.59z"/></g></svg>