<svg xmlns="http://www.w3.org/2000/svg" viewBox="0 0 167.53 238.58"><g id="Layer_2" data-name="Layer 2"><g id="Layer_1-2" data-name="Layer 1"><path d="M167.53,238.58H0V0H167.53ZM7,231.58H160.53V7H7Z" style="fill:#231f20"/><path d="M103.18,148A3.49,3.49,0,0,1,100.8,142a25,25,0,1,0-34.07,0A3.5,3.5,0,0,1,62,147.1a32,32,0,1,1,43.59,0A3.46,3.46,0,0,1,103.18,148Z" style="fill:#231f20"/><path d="M60.85,211V136.47L66.74,142a25,25,0,0,0,34.05,0l5.89-5.5V211L83.76,187.3Zm22.91-33.75,15.92,16.45V151.45a32.05,32.05,0,0,1-31.83,0v42.22Z" style="fill:#231f20"/><path d="M144,24.47H24.75a3.5,3.5,0,0,1,0-7H144a3.5,3.5,0,0,1,0,7Z" style="fill:#231f20"/><path d="M144,44.94H24.75a3.5,3.5,0,0,1,0-7H144a3.5,3.5,0,0,1,0,7Z" style="fill:#231f20"/><path d="M144,65.41H24.75a3.5,3.5,0,0,1,0-7H144a3.5,3.5,0,0,1,0,7Z" style="fill:#231f20"/></g></g></svg>